<?xml version="1.0" encoding="UTF-8" standalone="no"?>
<!DOCTYPE svg  PUBLIC '-//W3C//DTD SVG 1.1//EN'  'http://www.w3.org/Graphics/SVG/1.1/DTD/svg11.dtd'>
<svg xmlns="http://www.w3.org/2000/svg" version="1.1">
<defs>
<font id="Athelas-Regular" horiz-adv-x="339">
<font-face font-family="s" underline-position="-150" descent="-240" underline-thickness="50" cap-height="655" bbox="-147 -252 1435 882" units-per-em="1000" x-height="422" unicode-range="U+0020-FB06" font-weight="400" panose-1="2 0 5 3 0 0 0 2 0 3" ascent="760"/>
<missing-glyph horiz-adv-x="500"/>
<glyph d="M104 446v13q0 103 59.5 159.5t129.5 56.5q62 0 112 -31q45 56 121 56q63 0 104 -23.5t41 -52.5q0 -11 -25 -20t-37 -9q-14 0 -21 12q-9 18 -16.5 28t-22 19t-34.5 9q-71 0 -71 -117v-124h118q0 -23 -3.5 -32.5t-16.5 -9.5h-98v-306q0 -24 21.5 -34t76.5 -16q11 -2 11 -13 q0 -2 -1 -9l-1 -7q-45 5 -138 5q-65 0 -110 -5l-1 7q-1 7 -1 9q0 10 9 12q50 9 50 35v322h-172v-323q0 -15 12.5 -21t51.5 -13q8 -2 8 -12l-2 -16q-58 5 -117 5q-57 0 -102 -5q-2 12 -2 16q0 11 7 12q60 9 60 35v322h-60v18q0 10 9.5 13.5t20.5 4t20.5 7.5t9.5 23zM188 514 v-92h172v75q0 49 15 88q-35 50 -89 50q-45 0 -71.5 -33.5t-26.5 -87.5z" glyph-name="ff" horiz-adv-x="572" unicode="ff"/>
<glyph d="M104 446v35q0 106 54.5 162.5t132.5 56.5q62 0 103 -28.5t41 -56.5q0 -10 -22.5 -19t-35.5 -10q-17 -1 -24 15q-28 61 -76 61q-89 0 -89 -128v-112h165q21 0 50 4t43 4t14 -15q0 -6 -3 -33.5t-3 -51.5v-272q0 -15 14.5 -22.5t44.5 -12.5q8 -2 8 -12q0 -14 -2 -16 q-40 5 -106 5q-67 0 -107 -5l-1 7q-1 7 -1 9q0 10 9 12q58 10 58 35v272q0 50 -45 50h-138v-323q0 -16 12.5 -22.5t51.5 -11.5q8 -2 8 -12l-2 -16q-58 5 -117 5q-57 0 -102 -5q-2 12 -2 16q0 11 7 12q60 9 60 35v322h-60v18q0 10 9.5 13.5t20.5 4t20.5 7.5t9.5 23z" glyph-name="fi" horiz-adv-x="544" unicode="fi"/>
<glyph d="M525 -5q-58 5 -107 5q-54 0 -109 -5q-2 10 -2 16q0 10 9 12q60 10 60 35v559q-13 19 -43 32t-58 13q-46 0 -66.5 -29.5t-20.5 -98.5v-112h118q0 -42 -20 -42h-98v-323q0 -25 61 -34q6 -1 6 -12l-2 -16q-69 5 -112 5l-102 -5q-2 12 -2 16q0 10 7 12q30 6 45 13.5t15 21.5 v322h-60v18q0 10 9.5 13.5t20.5 4t20.5 7t9.5 21.5v37q0 108 51 163.5t133 55.5q74 0 115 -23q11 4 21.5 10.5t16 9.5t10.5 3q14 0 14 -15q0 -11 -3 -43.5t-3 -53.5v-530q0 -25 60 -35q8 -2 8 -12q0 -6 -2 -16z" glyph-name="fl" horiz-adv-x="553" unicode="fl"/>
<glyph d="M293 675q77 0 128 -31q53 56 135 56q62 0 103 -28.5t41 -56.5q0 -10 -22.5 -19t-35.5 -10q-17 -1 -24 15q-28 61 -79 61q-86 0 -86 -128v-112h165q21 0 50 4t43 4t14 -15q0 -6 -3 -33.5t-3 -51.5v-272q0 -15 14.5 -22.5t44.5 -12.5q8 -2 8 -12q0 -14 -2 -16q-40 5 -106 5 q-67 0 -107 -5l-1 7q-1 7 -1 9q0 10 9 12q58 10 58 35v272q0 50 -45 50h-138v-323q0 -16 12.5 -22.5t51.5 -11.5q8 -2 8 -12l-2 -16q-58 5 -117 5q-57 0 -102 -5q-2 12 -2 16q0 11 7 12q60 9 60 35v322h-181v-323q0 -15 12.5 -21t51.5 -13q8 -2 8 -12l-2 -16q-58 5 -117 5 q-57 0 -102 -5q-2 12 -2 16q0 11 7 12q60 9 60 35v322h-60v18q0 10 9.5 13.5t20.5 4t20.5 7.5t9.5 23v13q0 103 59.5 159.5t129.5 56.5zM188 514v-92h181v65q0 52 16 98q-40 50 -99 50q-45 0 -71.5 -33.5t-26.5 -87.5z" glyph-name="ffi" horiz-adv-x="809" unicode="ffi"/>
<glyph d="M792 -5q-58 5 -107 5q-54 0 -109 -5q-2 10 -2 16q0 10 9 12q60 10 60 35v559q-13 19 -43 32t-58 13q-46 0 -66.5 -29.5t-20.5 -98.5v-112h118q0 -42 -20 -42h-98v-323q0 -25 61 -34q6 -1 6 -12l-2 -16q-69 5 -112 5l-102 -5q-2 12 -2 16q0 10 7 12q30 6 45 13.5t15 21.5 v322h-183v-323q0 -15 12.5 -21t51.5 -13q8 -2 8 -12l-2 -16q-58 5 -117 5q-57 0 -102 -5q-2 12 -2 16q0 11 7 12q60 9 60 35v322h-60v18q0 10 9.5 13.5t20.5 4t20.5 7.5t9.5 23v13q0 103 59.5 159.5t129.5 56.5q77 0 129 -30q49 55 133 55q74 0 115 -23q11 4 21.5 10.5 t16 9.5t10.5 3q14 0 14 -15q0 -11 -3 -43.5t-3 -53.5v-530q0 -25 60 -35q8 -2 8 -12q0 -6 -2 -16zM188 514v-92h183v59q0 56 16 104q-17 21 -44.5 35.5t-56.5 14.5q-45 0 -71.5 -33.5t-26.5 -87.5z" glyph-name="ffl" horiz-adv-x="820" unicode="ffl"/>
<glyph glyph-name=".notdef" horiz-adv-x="500"/>
<glyph glyph-name=".null" horiz-adv-x="0"/>
<glyph glyph-name="nonmarkingreturn" horiz-adv-x="333"/>
<glyph glyph-name="space" horiz-adv-x="210" unicode=" "/>
<glyph d="M102 184l-36 464q32 13 62 13q52 0 52 -35q0 -5 -3 -23q-22 -137 -39 -434q-8 -2 -12 -2q-22 0 -24 17zM57 53q0 26 19 45.5t46 19.5q26 0 44 -19t18 -46q0 -28 -18 -46.5t-44 -18.5q-27 0 -46 18.5t-19 46.5z" glyph-name="exclam" horiz-adv-x="239" unicode="!"/>
<glyph d="M54 449l-24 182q22 19 48 19q18 0 30 -8.5t12 -22.5q0 -7 -2 -11q-16 -56 -31 -173q-4 -2 -11 -2q-20 0 -22 16zM182 449l-24 182q22 19 48 19q18 0 30 -8.5t12 -22.5q0 -7 -2 -11q-16 -56 -31 -173q-4 -2 -11 -2q-20 0 -22 16z" glyph-name="quotedbl" horiz-adv-x="277" unicode='&quot;'/>
<glyph d="M83 295q-2 18 -2 22q0 26 17 26h92l30 115q47 -3 47 -21v-7l-24 -87h111l31 115q47 -3 47 -21q0 -4 -1 -7l-23 -87h79q2 -8 2 -22q0 -26 -17 -26h-77l-36 -133h93q2 -18 2 -23q0 -26 -17 -26h-91l-34 -125q-46 4 -46 21q0 4 1 6l26 98h-112l-33 -125q-48 4 -48 21 q0 1 0.5 3t0.5 3l27 98h-80q-2 9 -2 23q0 26 17 26h78l35 133h-93zM230 295l-36 -133h112l36 133h-112z" glyph-name="numbersign" horiz-adv-x="536" unicode="#"/>
<glyph d="M282 11v-62q-9 -2 -21 -2q-22 0 -22 17v46q-89 4 -155 44q-4 65 -21 148q6 3 16 3q19 0 27 -21q23 -64 52.5 -94.5t80.5 -34.5v234q-85 33 -122 72t-37 110q0 63 44 110t115 55v60q20 2 22 2q21 0 21 -17v-45q71 -4 150 -37q3 -63 14 -119q-8 -2 -13 -2q-20 0 -26 15 q-41 92 -125 100v-207q102 -55 130 -79q56 -47 56 -124q0 -69 -46.5 -116t-139.5 -56zM379 157q0 38 -24 63.5t-73 50.5v-216q46 6 71.5 34.5t25.5 67.5zM151 504q0 -33 20.5 -56.5t67.5 -44.5v190q-38 -3 -63 -28.5t-25 -60.5z" glyph-name="dollar" horiz-adv-x="534" unicode="$"/>
<glyph d="M562 651q37 -14 37 -30q0 -5 -3 -9l-408 -624q-37 16 -37 30q0 3 3 9zM25 465q0 85 39 135t104 50q66 0 105 -50t39 -135q0 -84 -39 -134t-105 -50q-65 0 -104 50t-39 134zM105 474q0 -75 16.5 -119.5t46.5 -44.5q29 0 46 39t17 111q0 160 -63 160q-29 0 -46 -36 t-17 -110zM440 172q0 84 39 134t104 50t104 -50t39 -134t-39 -134t-104 -50t-104 50t-39 134zM520 180q0 -74 16.5 -118.5t46.5 -44.5q28 0 45.5 39t17.5 110q0 161 -63 161t-63 -147z" glyph-name="percent" horiz-adv-x="781" unicode="%"/>
<glyph d="M711 8q0 -9 -3 -18q-28 3 -78 3q-23 0 -42 4.5t-58.5 28t-92.5 68.5q-96 -106 -209 -106q-83 0 -132 40.5t-49 121.5q0 107 134 191q-49 49 -67 88t-18 83q0 54 40.5 88t104.5 34q62 0 102 -37.5t40 -95.5q0 -76 -97 -141q120 -121 177 -175q36 51 61.5 105.5t25.5 77.5 q0 11 -8.5 17t-33.5 10q-13 1 -13 13q0 11 3 17q38 -3 89 -3q46 0 79 3q3 -15 3 -17q0 -11 -13 -14q-22 -5 -29.5 -8t-16.5 -12t-19 -29q-55 -118 -102 -186q127 -118 173 -131l14 -2q14 -2 24.5 -6t10.5 -12zM204 316q-73 -62 -73 -150q0 -64 38.5 -92.5t82.5 -28.5 q82 0 156 74q-76 66 -204 197zM262 382q53 49 53 112q0 100 -81 100q-27 0 -43.5 -17t-16.5 -45q0 -63 88 -150z" glyph-name="ampersand" horiz-adv-x="702" unicode="&amp;"/>
<glyph d="M54 449l-24 182q22 19 48 19q18 0 30 -8.5t12 -22.5q0 -7 -2 -11q-16 -56 -31 -173q-4 -2 -11 -2q-20 0 -22 16z" glyph-name="quotesingle" horiz-adv-x="150" unicode="&apos;"/>
<glyph d="M257 -135q4 -4 4 -11q0 -9 -11 -15q-198 140 -198 402q0 258 198 421q11 -7 11 -16q0 -4 -4 -10q-123 -142 -123 -356q0 -137 28.5 -236t94.5 -179z" glyph-name="parenleft" horiz-adv-x="286" unicode="("/>
<glyph d="M30 636q-5 5 -5 10q0 8 11 16q198 -140 198 -402q0 -258 -198 -421q-11 7 -11 15q0 4 5 11q123 142 123 356q0 136 -29 235.5t-94 179.5z" glyph-name="parenright" horiz-adv-x="286" unicode=")"/>
<glyph d="M207 516q61 38 90 69l14 -3q22 -28 22 -47q0 -5 -1 -7q-5 -11 -30 -16t-86 -8q-9 0 -9 10v2zM191 480q2 -68 15 -113l-10 -11l-32 1q-28 0 -28 22q0 21 40 99q2 5 7 5q3 0 8 -3zM190 525q-2 73 -15 113l10 11q3 0 8 0.5t8 0.5q19 0 29 -3q16 -4 16 -20q0 -23 -41 -100 q-3 -5 -6 -5t-9 3zM69 585q17 31 31 31q13 0 29.5 -19.5t48.5 -68.5l1 -3v-2q0 -5 -7 -9q-65 34 -106 43q-4 6 -4 14q1 3 3.5 7.5t3.5 6.5zM172 492q-59 -35 -90 -69l-14 3l-9 13q-13 23 -13 33q0 20 40 26q14 2 77 6q9 0 9 -12zM312 450l4 -14q-18 -45 -38 -45q-9 0 -23 14 t-35 40.5t-21 38.5q0 5 8 9q53 -27 83 -37z" glyph-name="asterisk" horiz-adv-x="380" unicode="*"/>
<glyph d="M216 188h-178q-2 18 -2 23q0 29 17 29h163v178q14 3 23 3q29 0 29 -18v-163h187q2 -18 2 -23q0 -29 -17 -29h-172v-187q-9 -1 -23 -1q-29 0 -29 16v172z" glyph-name="plus" horiz-adv-x="494" unicode="+"/>
<glyph d="M62 -143q-15 11 -15 24q0 8 6 14q51 51 51 87q0 34 -48 56q-17 8 -17 26q0 36 49 63q35 -12 61 -43t26 -71q0 -82 -113 -156z" glyph-name="comma" horiz-adv-x="219" unicode=","/>
<glyph d="M59 271h211q1 -8 1 -22q0 -39 -18 -39h-209q-3 13 -3 32q0 29 18 29z" glyph-name="hyphen" horiz-adv-x="314" unicode="-"/>
<glyph d="M44 53q0 26 19 45.5t46 19.5q26 0 44 -19.5t18 -45.5q0 -28 -18 -47t-44 -19q-28 0 -46.5 19t-18.5 47z" glyph-name="period" horiz-adv-x="215" unicode="."/>
<glyph d="M261 647l-186 -692q-48 4 -48 22q0 3 1 5l186 693q47 -2 47 -23v-5z" glyph-name="slash" horiz-adv-x="297" unicode="/"/>
<glyph d="M267 -12q-106 0 -169 67t-63 175q0 103 66 174.5t166 71.5q101 0 166.5 -69.5t65.5 -176.5q0 -104 -64 -173t-168 -69zM134 230q0 -95 38 -146t97 -51q56 0 93 50.5t37 146.5q0 97 -37.5 149t-94.5 52q-58 0 -95.5 -51t-37.5 -150z" glyph-name="zero" horiz-adv-x="534" unicode="0"/>
<glyph d="M51 467q40 -5 109 -5q70 0 110 5q2 -4 2 -15q0 -12 -10 -14q-57 -9 -57 -40v-332q0 -33 64 -42q10 -2 10 -14q0 -2 -1 -8l-1 -7q-40 5 -117 5q-69 0 -114 -5l-1 7q-1 6 -1 8q0 12 10 14q62 11 62 41v333q0 31 -57 40q-10 2 -10 14q0 11 2 15z" glyph-name="one" horiz-adv-x="323" unicode="1"/>
<glyph d="M73 359q-7 -7 -13 -7q-12 0 -21 13q87 111 190 111q67 0 102.5 -34.5t35.5 -93.5q0 -62 -51 -124t-183 -159h169q21 0 34.5 9t23.5 34q5 11 16 11l17 -3q-16 -46 -30 -108q-2 -12 -15 -12q-10 0 -45.5 2t-58.5 2h-205v24q125 104 176.5 171t51.5 127q0 89 -78 89 q-54 0 -116 -52z" glyph-name="two" horiz-adv-x="436" unicode="2"/>
<glyph d="M77 146v32q107 53 141.5 85t34.5 79q0 73 -76 73q-50 0 -113 -46q-7 -7 -13 -7q-13 0 -22 13q92 101 187 101q60 0 94.5 -27t34.5 -79q0 -47 -27 -78t-83 -65v-2q65 -15 99.5 -52.5t34.5 -90.5q0 -87 -92.5 -163t-253.5 -103q-8 10 -8 20q0 9 9 12q134 45 185.5 97 t51.5 118q0 48 -25.5 75.5t-71.5 27.5q-41 0 -87 -20z" glyph-name="three" horiz-adv-x="413" unicode="3"/>
<glyph d="M373 65h83v-65h-83v-170h-90v170h-276q-2 10 -2 16t8 16l327 432q5 7 14 7h19v-406zM283 65v258l-196 -258h196z" glyph-name="four" horiz-adv-x="481" unicode="4"/>
<glyph d="M351 462l-1 -37q-2 -36 -27 -36h-200l-17 -153q53 16 99 16q74 0 118 -41.5t44 -110.5q0 -92 -86 -165.5t-250 -118.5q-9 11 -9 20t9 12q232 94 232 241q0 49 -28.5 78t-86.5 29q-39 0 -93 -15l24 281h272z" glyph-name="five" horiz-adv-x="412" unicode="5"/>
<glyph d="M153 278q-13 -28 -13 -83q0 -79 28 -125t73 -46q47 0 76.5 40t29.5 118q0 70 -29 108t-70 38q-71 0 -95 -50zM154 330q57 49 130 49q64 0 109.5 -46t45.5 -138q0 -77 -56 -142.5t-142 -65.5q-55 0 -95.5 20t-62 54.5t-31.5 73t-10 82.5q0 121 86 234.5t255 193.5 q9 -13 9 -21t-9 -14q-103 -68 -154 -130.5t-75 -149.5z" glyph-name="six" horiz-adv-x="480" unicode="6"/>
<glyph d="M328 389h-225q-37 0 -57 -48q-5 -11 -19 -11q-8 0 -17 3q24 77 31 121q2 12 15 12q11 0 46.5 -2t58.5 -2h230v-24q-109 -207 -144.5 -329t-44.5 -255q-1 -17 -22 -26.5t-47 -9.5q-29 0 -29 15q0 8 2 26q15 103 63.5 220.5t158.5 309.5z" glyph-name="seven" horiz-adv-x="401" unicode="7"/>
<glyph d="M224 404l55 -37q58 62 58 121q0 47 -28.5 76.5t-69.5 29.5q-39 0 -65.5 -24t-26.5 -64q0 -27 16.5 -50t60.5 -52zM308 349q70 -49 101.5 -88.5t31.5 -89.5q0 -84 -63 -133.5t-143 -49.5q-85 0 -138.5 40.5t-53.5 115.5q0 55 33.5 96t101.5 81q-65 41 -90 77.5t-25 80.5 q0 62 45 108.5t131 46.5q83 0 129 -37.5t46 -96.5q0 -85 -106 -151zM275 255l-68 47q-77 -63 -77 -142q0 -65 31.5 -99t80.5 -34q43 0 75 32.5t32 80.5q0 34 -15 59.5t-59 55.5z" glyph-name="eight" horiz-adv-x="479" unicode="8"/>
<glyph d="M326 183q13 25 13 83q0 78 -28 124t-72 46q-47 0 -77 -40t-30 -118q0 -70 29 -107.5t70 -37.5q73 0 95 50zM325 131q-54 -49 -129 -49q-65 0 -110 46t-45 138q0 76 56 142t142 66q55 0 95.5 -20t62 -54.5t31.5 -73t10 -82.5q0 -62 -16 -120.5t-50.5 -116.5t-97 -108 t-147.5 -84q-10 13 -10 23q0 7 9 13q104 66 143 125t56 155z" glyph-name="nine" horiz-adv-x="480" unicode="9"/>
<glyph d="M44 53q0 26 19 45.5t46 19.5q26 0 44 -19.5t18 -45.5q0 -28 -18 -47t-44 -19q-28 0 -46.5 19t-18.5 47zM44 332q0 26 19 45.5t46 19.5q26 0 44 -19.5t18 -45.5q0 -28 -18 -47t-44 -19q-28 0 -46.5 19t-18.5 47z" glyph-name="colon" horiz-adv-x="215" unicode=":"/>
<glyph d="M74 -143q-15 11 -15 24q0 8 6 14q51 51 51 87q0 34 -48 56q-17 8 -17 26q0 36 49 63q35 -12 61 -43t26 -71q0 -82 -113 -156zM44 332q0 26 19 45.5t46 19.5q26 0 44 -19.5t18 -45.5q0 -28 -18 -47t-44 -19q-28 0 -46.5 19t-18.5 47z" glyph-name="semicolon" horiz-adv-x="229" unicode=";"/>
<glyph d="M58 220l358 203q19 -27 19 -40q0 -9 -8 -14l-303 -163l317 -175q-14 -42 -29 -42q-4 0 -8 3l-349 196q-3 13 -3 20q0 10 6 12z" glyph-name="less" horiz-adv-x="494" unicode="&lt;"/>
<glyph d="M38 292q-1 9 -1 23q0 29 16 29h402q2 -16 2 -22q0 -30 -17 -30h-402zM38 107q-1 9 -1 23q0 29 16 29h402q2 -18 2 -22q0 -30 -17 -30h-402z" glyph-name="equal" horiz-adv-x="494" unicode="="/>
<glyph d="M76 423l360 -203q5 -3 5 -12q0 -8 -4 -20l-349 -196q-3 -3 -7 -3q-16 0 -29 42l316 174l-302 164q-8 5 -8 14q0 15 18 40z" glyph-name="greater" horiz-adv-x="494" unicode="&gt;"/>
<glyph d="M336 509q0 -35 -24 -67t-53.5 -52.5t-53.5 -47.5t-24 -53q0 -36 26 -98q2 -6 2 -8q0 -15 -24 -22q-77 91 -77 152q0 28 16 53.5t38.5 44.5t45.5 37.5t39 40.5t16 45q0 39 -21 58t-52 19q-42 0 -65 -53q-7 -13 -22 -13q-13 0 -36.5 6.5t-23.5 15.5q0 39 40 66t92 27 q74 0 117.5 -47t43.5 -104zM125 53q0 26 18.5 44.5t45.5 18.5q26 0 43.5 -18.5t17.5 -44.5q0 -28 -17.5 -46.5t-43.5 -18.5q-27 0 -45.5 18.5t-18.5 46.5z" glyph-name="question" horiz-adv-x="379" unicode="?"/>
<glyph d="M536 0q-37 0 -52.5 14t-15.5 47q0 29 17 106h-4q-76 -179 -187 -179q-70 0 -70 96q0 81 24.5 151t63 114t83 68.5t87.5 24.5q59 0 124 -13l-69 -351q-1 -4 -1 -13q0 -28 25 -28q60 0 111 88t51 204q0 115 -81.5 186t-197.5 71q-149 0 -249.5 -114t-100.5 -290 q0 -140 98 -239t236 -99q124 0 219 48q6 3 14 3q14 0 25 -14q-102 -75 -261 -75q-169 0 -275.5 109t-106.5 278q0 180 120 303.5t294 123.5q140 0 227 -83t87 -216q0 -52 -13.5 -105.5t-40 -103t-74 -81t-107.5 -31.5zM523 391q-27 9 -55 9q-78 0 -120 -76t-42 -203 q0 -67 38 -67q33 0 76.5 64t73 144t29.5 129z" glyph-name="at" horiz-adv-x="814" unicode="@"/>
<glyph d="M492 73l-63 165h-223l-64 -161q-5 -12 -5 -20q0 -21 61 -30q12 -1 12 -16q0 -6 -2 -16q-60 5 -116 5q-46 0 -85 -5q-2 8 -2 16q0 17 13 18q58 10 69 36l241 580q7 17 19 17q4 0 12 -2l242 -598q10 -24 68 -33q13 -3 13 -18q0 -6 -2 -16q-70 5 -121 5q-66 0 -129 -5 q-2 10 -2 16q0 16 10 16q58 10 58 31q0 6 -4 15zM223 279h190l-93 245z" glyph-name="A" horiz-adv-x="687" unicode="A"/>
<glyph d="M220 360h15q87 0 126 31t39 98q0 62 -39 91t-126 29h-15v-249zM220 319v-242q0 -36 70 -36q83 0 125.5 29t42.5 103q0 71 -49 108.5t-136 37.5h-53zM382 350v-3q74 -9 127 -48t53 -111q0 -87 -63.5 -137.5t-168.5 -50.5h-158l-124 -5q-2 12 -2 16q0 14 11 16q41 8 55 16 t14 27v509q0 19 -13.5 27t-55.5 16q-11 2 -11 19l2 14q67 -5 123 -5h123q106 0 157 -44t51 -113q0 -46 -33.5 -86.5t-86.5 -56.5z" glyph-name="B" horiz-adv-x="598" unicode="B"/>
<glyph d="M379 -12q-162 0 -248 94t-86 243q0 61 21 119.5t61 108t105.5 79.5t146.5 30q110 0 212 -28q2 -58 23 -145q-8 -4 -16 -4q-20 0 -23 13q-18 66 -57 94t-113 28q-122 0 -188.5 -74.5t-66.5 -200.5q0 -137 76.5 -226t185.5 -89q56 0 91.5 16t53 40.5t35.5 69.5q7 15 24 15 q12 0 19 -5q-28 -80 -44 -161q-100 -17 -212 -17z" glyph-name="C" horiz-adv-x="669" unicode="C"/>
<glyph d="M607 306q0 303 -300 303h-87v-532q0 -21 22 -28.5t86 -7.5q148 0 213.5 68t65.5 197zM712 325q0 -61 -21 -117.5t-61 -103.5t-106 -75.5t-148 -28.5h-205q-55 0 -123 -5q-2 10 -2 16q0 14 11 16q40 10 54.5 18t14.5 25v509q0 19 -14.5 27.5t-54.5 15.5q-11 1 -11 17 q0 6 2 16q69 -5 122 -5h205q162 0 249.5 -92t87.5 -233z" glyph-name="D" horiz-adv-x="757" unicode="D"/>
<glyph d="M369 609h-148v-256h156q31 0 42 67q3 13 18 13q4 0 16 -3q-5 -48 -5 -99q0 -46 5 -97q-8 -2 -15 -2q-16 0 -19 13q-11 67 -42 67h-156v-236q0 -20 26 -27.5t90 -7.5h55q54 0 84.5 27.5t58.5 82.5q3 7 15 7q8 0 21 -9q-10 -20 -19 -60.5t-17.5 -67t-20.5 -26.5 q-8 0 -55.5 2.5t-66.5 2.5h-219q-58 0 -125 -5q-2 10 -2 16q0 14 10 16q40 7 55.5 15.5t15.5 27.5v509q0 19 -14 27t-57 16q-10 2 -10 17q0 6 2 16q71 -5 124 -5h197q36 0 78 3t44 3q15 0 20 -26t10 -64.5t17 -58.5q-8 -6 -18 -6q-13 0 -17 9q-25 56 -51 77.5t-83 21.5z" glyph-name="E" horiz-adv-x="605" unicode="E"/>
<glyph d="M127 70v509q0 19 -14.5 27.5t-56.5 15.5q-10 2 -10 17q0 6 2 16q73 -5 123 -5h198q30 0 74 3t48 3q14 0 19.5 -25.5t10.5 -64.5t16 -59q-6 -7 -18 -7t-16 9q-27 58 -52 79t-82 21h-148v-266h149q31 0 42 66q3 13 18 13q8 0 16 -2q-5 -48 -5 -100q0 -45 5 -96 q-8 -2 -15 -2q-18 0 -19 13q-10 66 -42 66h-149v-232q0 -10 6 -16.5t20.5 -11t26.5 -7t35 -5.5q12 -1 12 -17q0 -7 -2 -17q-70 5 -147 5q-59 0 -124 -5q-2 10 -2 16q0 15 10 16q28 6 39.5 9.5t21.5 12t10 21.5z" glyph-name="F" horiz-adv-x="567" unicode="F"/>
<glyph d="M585 5q-102 -17 -202 -17q-165 0 -251.5 93.5t-86.5 243.5q0 61 21 120t61 108t105.5 79t146.5 30q106 0 226 -30q3 -70 22 -146q-6 -4 -18 -4q-16 0 -20 13q-18 67 -60.5 96t-123.5 29q-124 0 -189.5 -76t-65.5 -199q0 -138 76 -226.5t190 -88.5q61 0 108 14v153 q0 26 -15.5 37t-54.5 16q-14 1 -14 19q0 8 2 16q65 -5 125 -5q63 0 118 5q2 -10 2 -16q0 -16 -12 -18q-32 -4 -44.5 -13.5t-12.5 -29.5v-178q0 -10 -6 -16t-27 -9z" glyph-name="G" horiz-adv-x="712" unicode="G"/>
<glyph d="M625 578v-508q0 -19 12.5 -27t52.5 -16q10 -2 10 -14q0 -8 -2 -18q-55 5 -120 5q-54 0 -121 -5q-2 10 -2 18q0 12 10 14q38 7 51.5 15.5t13.5 27.5v242h-314v-242q0 -19 12.5 -27t52.5 -16q11 -2 11 -14q0 -8 -2 -18q-57 5 -121 5q-53 0 -121 -5q-2 10 -2 18q0 12 10 14 q39 7 52.5 15.5t13.5 27.5v508q0 20 -12 28.5t-52 15.5q-10 1 -10 16q0 7 2 17q55 -5 118 -5q53 0 120 5q2 -10 2 -17q0 -14 -10 -16q-38 -6 -51 -15t-13 -29v-224h314v224q0 18 -13 28t-50 16q-11 1 -11 16q0 7 2 17q55 -5 119 -5q52 0 120 5q2 -10 2 -17q0 -14 -10 -16 q-38 -6 -51 -15t-13 -29z" glyph-name="H" horiz-adv-x="747" unicode="H"/>
<glyph d="M216 579v-509q0 -19 13 -27t53 -16q10 -2 10 -16q0 -6 -2 -16q-68 5 -121 5q-56 0 -121 -5q-2 10 -2 16q0 14 10 16q39 7 52.5 15.5t13.5 27.5v509q0 20 -13.5 28.5t-52.5 14.5q-10 1 -10 17q0 6 2 16q67 -5 121 -5q53 0 121 5q2 -10 2 -16q0 -15 -10 -17 q-39 -6 -52.5 -15t-13.5 -28z" glyph-name="I" unicode="I"/>
<glyph d="M132 46v533q0 19 -14.5 28t-54.5 15q-10 2 -10 17q0 6 2 16q72 -5 124 -5q55 0 120 5q2 -10 2 -16q0 -16 -11 -17q-37 -6 -50.5 -15t-13.5 -28v-433q0 -145 -33.5 -214.5t-153.5 -151.5q-13 10 -13 21q0 7 5 12q55 52 78 107t23 126z" glyph-name="J" horiz-adv-x="348" unicode="J"/>
<glyph d="M449 73l-233 250v-253q0 -19 12 -27.5t47 -15.5q11 -2 11 -15q0 -7 -2 -17q-70 5 -115 5q-54 0 -121 -5q-2 10 -2 16q0 14 10 16q40 8 53 16t13 27v509q0 20 -13.5 28.5t-52.5 14.5q-10 1 -10 17q0 6 2 16q65 -5 120 -5q52 0 122 5q2 -10 2 -16q0 -15 -10 -17 q-39 -6 -52.5 -15t-13.5 -28v-242l232 230q15 15 15 29q0 18 -42 25q-10 1 -10 18q0 6 2 16q63 -5 111 -5q46 0 91 5q2 -10 2 -16q0 -16 -11 -19q-48 -8 -78 -37l-225 -222l273 -294q28 -31 75 -38q12 -1 12 -17q0 -7 -2 -17q-68 5 -132 5q-49 0 -124 -5q-2 10 -2 16 q0 15 11 16q45 3 45 26q0 10 -10 20z" glyph-name="K" horiz-adv-x="663" unicode="K"/>
<glyph d="M221 572v-500q0 -31 56 -31h109q55 0 84 26.5t49 83.5q3 8 12 8q6 0 22 -8q-17 -76 -25 -139q-1 -17 -18 -17q-11 0 -42.5 2.5t-44.5 2.5h-250q-55 0 -125 -5q-2 10 -2 16q0 14 10 16q42 8 56.5 16t14.5 26v510q0 20 -14 28.5t-54 14.5q-10 1 -10 16q0 7 2 17 q75 -5 123 -5q73 0 140 5q2 -10 2 -16q0 -17 -11 -18q-46 -6 -65 -16t-19 -33z" glyph-name="L" horiz-adv-x="558" unicode="L"/>
<glyph d="M458 132l203 499q4 10 14.5 14.5t42.5 4.5q50 0 108 5q2 -10 2 -16q0 -16 -10 -17q-35 -5 -47.5 -13t-12.5 -23q0 -1 1 -16.5t3 -54.5t4.5 -93.5t6.5 -148t9 -203.5q1 -19 13.5 -28t48.5 -15q10 -1 10 -16q0 -6 -2 -16q-77 5 -116 5q-62 0 -117 -5q-2 10 -2 16 q0 16 10 16q41 8 55 16.5t14 26.5q0 6 -10.5 227t-11.5 238l-219 -529q-7 -18 -17 -18q-7 0 -9 1l-245 562q-23 -437 -23 -481q0 -31 68 -43q10 -1 10 -16q0 -6 -2 -16q-60 5 -99 5q-41 0 -94 -5q-2 10 -2 16q0 14 10 16q59 10 62 43q1 16 6.5 144.5t11 249t5.5 121.5 q0 16 -12.5 23.5t-47.5 13.5q-10 1 -10 17q0 6 2 16q58 -5 118 -5q32 0 42.5 -4.5t14.5 -14.5z" glyph-name="M" horiz-adv-x="900" unicode="M"/>
<glyph d="M204 638l359 -479v418q0 21 -15.5 30.5t-54.5 14.5q-11 1 -11 17q0 6 2 16q55 -5 100 -5q43 0 93 5q2 -10 2 -16q0 -16 -10 -17q-33 -4 -46 -13.5t-13 -29.5v-589q-6 -2 -15 -2q-13 0 -27 18l-406 535v-471q0 -19 14 -27.5t54 -15.5q10 -2 10 -16q0 -6 -2 -16 q-55 5 -98 5q-48 0 -96 -5q-2 10 -2 16q0 14 11 16q36 7 48.5 15.5t12.5 27.5v514q0 16 -12 24.5t-47 13.5q-11 2 -11 17l2 16q67 -5 104 -5q29 0 38.5 -2t15.5 -10z" glyph-name="N" horiz-adv-x="721" unicode="N"/>
<glyph d="M45 325q0 137 93 237t220 100q166 0 255 -97t89 -240q0 -154 -96 -245.5t-240 -91.5q-143 0 -232 93t-89 244zM389 36q94 0 153 68t59 172q0 150 -63 244t-183 94q-87 0 -147 -62.5t-60 -169.5q0 -153 64 -249.5t177 -96.5z" glyph-name="O" horiz-adv-x="749" unicode="O"/>
<glyph d="M308 282h-87v-205q0 -22 20.5 -31.5t67.5 -16.5q12 -1 12 -17q0 -7 -2 -17q-63 5 -146 5q-56 0 -121 -5q-2 10 -2 16q0 14 10 16q41 8 54 16t13 27v509q0 20 -15 29t-56 14q-10 2 -10 18q0 7 2 15q62 -5 119 -5h141q104 0 160 -50t56 -133q0 -70 -59.5 -127.5 t-156.5 -57.5zM221 323h53q72 0 109 32.5t37 103.5q0 150 -146 150h-53v-286z" glyph-name="P" horiz-adv-x="558" unicode="P"/>
<glyph d="M439 -1v-4q49 -10 100 -49t92.5 -71.5t72.5 -32.5q10 0 26 4.5t22 4.5q5 0 5 -5q-5 -22 -38.5 -36t-59.5 -14q-47 0 -97.5 27t-86 60.5t-77 66t-70.5 40.5q-129 14 -206 104.5t-77 230.5q0 137 93 237t220 100q166 0 255 -97t89 -240q0 -130 -72 -218t-191 -108zM389 36 q94 0 153 68t59 172q0 150 -63 244t-183 94q-87 0 -147 -62.5t-60 -169.5q0 -153 64 -249.5t177 -96.5z" glyph-name="Q" horiz-adv-x="749" unicode="Q"/>
<glyph d="M455 61l-160 231h-74v-220q0 -21 19 -29.5t64 -13.5q12 -1 12 -17q0 -7 -2 -17q-60 5 -141 5q-57 0 -124 -5q-2 10 -2 16q0 14 11 16q39 6 54 15t15 28v509q0 19 -15 28.5t-56 14.5q-10 1 -10 17q0 6 2 16q67 -5 123 -5h135q105 0 161.5 -47t56.5 -129q0 -48 -33 -96 t-95 -71l167 -232q25 -36 85 -51q9 -2 9 -14q0 -8 -2 -18q-75 5 -117 5q-40 0 -83 64zM221 333h53q73 0 109.5 31t36.5 102q0 143 -149 143h-50v-276z" glyph-name="R" horiz-adv-x="649" unicode="R"/>
<glyph d="M473 493q-10 -2 -15 -2q-20 0 -28 16q-26 57 -63 83t-97 26q-50 0 -84 -26t-34 -70q0 -45 36.5 -75t119.5 -63q97 -39 142 -86t45 -113q0 -88 -54 -141.5t-167 -53.5q-121 0 -198 47q-5 76 -23 159q7 3 17 3q21 0 30 -23q26 -74 65.5 -107t109.5 -33q61 0 94.5 32.5 t33.5 80.5q0 49 -33 79.5t-104 56.5q-97 35 -143.5 78.5t-46.5 121.5q0 76 53.5 127t141.5 51q87 0 187 -39q4 -72 15 -129z" glyph-name="S" horiz-adv-x="552" unicode="S"/>
<glyph d="M474 609h-103v-534q0 -22 18.5 -32t64.5 -15q11 0 11 -16q0 -7 -2 -17q-70 5 -139 5q-70 0 -140 -5q-2 10 -2 17q0 14 10 16q47 6 66 16t19 31v534h-103q-57 0 -83.5 -21.5t-51.5 -77.5q-4 -9 -15 -9t-19 6q7 25 13 52t8.5 42.5t5.5 29t8 19.5t12 6q8 0 47 -3t58 -3h334 q18 0 57 3t48 3q12 0 17 -15.5t12 -57t18 -76.5q-12 -6 -20 -6q-12 0 -16 9q-25 56 -51 77.5t-82 21.5z" glyph-name="T" horiz-adv-x="647" unicode="T"/>
<glyph d="M649 579v-336q0 -122 -60.5 -188.5t-201.5 -66.5q-67 0 -116 14.5t-78 37t-46 57t-22.5 67.5t-5.5 75v340q0 20 -14 29t-53 14q-10 1 -10 17q0 6 2 16q67 -5 122 -5q59 0 126 5q2 -10 2 -16q0 -16 -10 -17q-39 -5 -55 -14t-16 -29v-318q0 -107 43 -161t139 -54 q111 0 158.5 50.5t47.5 167.5v315q0 20 -15 29t-54 14q-11 1 -11 17q0 6 2 16q63 -5 104 -5q44 0 97 5q2 -10 2 -16q0 -15 -11 -17q-37 -4 -51.5 -13.5t-14.5 -29.5z" glyph-name="U" horiz-adv-x="761" unicode="U"/>
<glyph d="M364 142l175 428q4 11 4 20q0 25 -59 32q-12 2 -12 17l2 16q30 -5 107 -5q63 0 93 5q2 -13 2 -17q0 -16 -11 -18q-32 -2 -47.5 -10t-22.5 -27l-247 -594q-1 0 -4 -0.5t-5 -0.5q-11 0 -18 17l-235 583q-6 15 -20.5 22t-49.5 11q-11 1 -11 18q0 8 2 16q67 -5 126 -5 q60 0 128 5q2 -10 2 -16q0 -15 -12 -17q-59 -6 -59 -32q0 -7 2 -13z" glyph-name="V" horiz-adv-x="681" unicode="V"/>
<glyph d="M341 164l172 496q6 2 10 2q10 0 14 -13l169 -485l142 406q4 16 4 20q0 25 -61 32q-11 1 -11 17q0 8 2 16q57 -5 105 -5q60 0 95 5q0 -2 1 -8t1 -8q0 -16 -12 -18q-31 -4 -46 -12t-22 -26l-211 -593q-6 -2 -11 -2q-12 0 -18 18l-167 471l-170 -487q-4 -2 -10 -2 q-12 0 -18 18l-215 582q-5 14 -18.5 21t-49.5 12q-11 3 -11 19q0 5 2 15q62 -5 123 -5q59 0 127 5q2 -10 2 -16q0 -15 -11 -17q-61 -6 -61 -33q0 -6 3 -12z" glyph-name="W" horiz-adv-x="988" unicode="W"/>
<glyph d="M369 348l184 -286q9 -14 24.5 -21t51.5 -13q14 -2 14 -16q0 -7 -2 -17q-67 5 -128 5q-58 0 -136 -5q-2 10 -2 16q0 14 11 16q54 10 54 31q0 10 -7 18l-137 212l-129 -195q-13 -19 -13 -31q0 -26 52 -35q11 -2 11 -16q0 -6 -2 -16q-57 5 -115 5q-47 0 -93 -5q-2 10 -2 17 q0 14 11 16q60 12 77 38l176 264l-168 258q-18 28 -77 33q-12 1 -12 18q0 6 2 16q68 -5 125 -5t134 5q2 -10 2 -16q0 -15 -11 -17q-52 -6 -52 -25q0 -10 7 -19l123 -187l120 176q10 14 10 25q0 22 -51 30q-11 2 -11 17q0 6 2 16q67 -5 100 -5q55 0 103 5q2 -10 2 -17 q0 -15 -12 -17q-55 -6 -75 -37z" glyph-name="X" horiz-adv-x="647" unicode="X"/>
<glyph d="M248 73v215l-167 300q-18 27 -66 34q-10 1 -10 18l2 15q48 -5 122 -5q72 0 120 5q2 -12 2 -16q0 -15 -10 -17q-52 -7 -52 -25q0 -8 7 -19l124 -224l117 208q10 18 10 28q0 22 -56 32q-11 1 -11 17l2 16q48 -5 106 -5q44 0 99 5q2 -12 2 -16q0 -14 -11 -17 q-35 -4 -49.5 -12t-24.5 -26l-162 -287v-224q0 -21 15.5 -30t56.5 -15q11 -2 11 -16l-2 -16q-83 5 -129 5l-127 -5q-2 12 -2 16q0 14 10 16q43 8 58 16.5t15 28.5z" glyph-name="Y" horiz-adv-x="594" unicode="Y"/>
<glyph d="M551 630l-374 -589h229q61 0 86 25t47 90q4 15 18 15q11 0 20 -6q-17 -83 -21 -150q-1 -21 -22 -21q-10 0 -46.5 3t-59.5 3h-387q0 10 4 17l380 592h-223q-69 0 -92 -19t-36 -84q-3 -15 -20 -15q-10 0 -20 6q12 74 16 138q1 20 21 20q10 0 43 -2.5t56 -2.5h385 q0 -13 -4 -20z" glyph-name="Z" horiz-adv-x="608" unicode="Z"/>
<glyph d="M267 -177h-160v853h160q0 -4 0.5 -9t0.5 -7q0 -20 -17 -22q-52 -4 -64.5 -10t-12.5 -26v-705q0 -20 12.5 -26t64.5 -10q17 -2 17 -22q0 -2 -0.5 -7t-0.5 -9z" glyph-name="bracketleft" horiz-adv-x="303" unicode="["/>
<glyph d="M32 663q22 11 36 11q15 0 19 -12l185 -694q-24 -10 -37 -10q-16 0 -18 13z" glyph-name="backslash" horiz-adv-x="307" unicode="\"/>
<glyph d="M186 -177h-160q0 4 -0.5 9t-0.5 7q0 20 17 22q52 4 64.5 10t12.5 26v706q0 20 -12.5 26t-64.5 10q-17 2 -17 22q0 2 0.5 7t0.5 9h160v-854z" glyph-name="bracketright" horiz-adv-x="293" unicode="]"/>
<glyph d="M263 496l187 -342q3 -5 7 -15q-8 -17 -46 -29q-8 11 -22 35l-144 276l-163 -311q-48 16 -48 31q0 3 2 7q16 30 83.5 150t102.5 185q10 16 21 17q3 2 8 0q2 0 5.5 -1.5t6.5 -2.5z" glyph-name="asciicircum" horiz-adv-x="493" unicode="^"/>
<glyph d="M1 -121q-1 9 -1 23q0 29 16 29h385q2 -16 2 -22q0 -30 -17 -30h-385z" glyph-name="underscore" horiz-adv-x="403" unicode="_"/>
<glyph d="M216 672l96 -148q4 -8 4 -12q0 -11 -16 -19q-76 67 -135 106q-14 8 -14 24q0 19 18.5 34t46.5 15z" glyph-name="grave" horiz-adv-x="500" unicode="`"/>
<glyph d="M452 27q11 0 12 -21q-26 -18 -66 -18q-41 0 -63 22.5t-27 55.5q-44 -78 -139 -78q-131 0 -131 102q0 35 16.5 61.5t47 43.5t57.5 26t64 17q36 7 57 14q13 4 17 11t4 27q0 108 -82 108q-33 0 -47.5 -15.5t-27.5 -56.5q-3 -10 -13 -15.5t-36 -12.5q-16 -6 -30 -6 q-10 0 -10 21q0 44 59.5 82.5t117.5 38.5q76 0 114 -30t38 -111v-172q0 -55 10 -75q12 -23 33 -23q8 0 15.5 2t9.5 2zM301 144v78l-32 -5q-62 -11 -99 -35.5t-37 -74.5q0 -37 19 -57.5t49 -20.5q40 0 70 33.5t30 81.5z" glyph-name="a" horiz-adv-x="473" unicode="a"/>
<glyph d="M175 257v-177q53 -56 124 -56q56 0 86 47t30 124q0 80 -34.5 134.5t-91.5 54.5q-40 0 -77 -41t-37 -86zM92 99v497q0 31 -11 43t-45 15q-13 2 -13 14q0 6 2 14q42 0 75 5q16 2 39 7.5t28 5.5q14 0 14 -15q0 -9 -3 -39t-3 -54v-250q37 50 73.5 71t87.5 21q71 0 122.5 -58 t51.5 -156q0 -102 -68.5 -167t-140.5 -65q-74 0 -136 32q-17 -1 -38.5 -16t-25.5 -15q-8 0 -15 4q1 13 3.5 47.5t2.5 58.5z" glyph-name="b" horiz-adv-x="544" unicode="b"/>
<glyph d="M235 396q-47 0 -76.5 -41.5t-29.5 -110.5q0 -95 43.5 -150t115.5 -55q43 0 91 30q9 7 15 7q5 0 11 -6.5t8 -11.5q-61 -70 -175 -70q-86 0 -143.5 56.5t-57.5 159.5q0 97 67 163.5t144 66.5q72 0 117 -28t45 -68q0 -10 -28 -15.5t-42 -5.5q-11 0 -20.5 12.5t-16.5 27 t-24.5 27t-43.5 12.5z" glyph-name="c" horiz-adv-x="435" unicode="c"/>
<glyph d="M452 592v-503q0 -25 10.5 -35.5t43.5 -14.5q13 -2 13 -13q0 -6 -2 -14q-38 0 -71 -5q-12 -2 -26 -5.5t-23.5 -5.5t-13.5 -2q-14 0 -14 15v76q-23 -32 -38.5 -49t-48 -32.5t-74.5 -15.5q-71 0 -122 58t-51 156q0 102 68.5 167t139.5 65q62 0 126 -27v189q0 31 -11 43 t-45 15q-13 2 -13 14q0 6 2 14q42 0 75 5q16 2 39 7.5t28 5.5q14 0 14 -15q0 -9 -3 -39t-3 -54zM369 169v173q-53 56 -123 56q-56 0 -86.5 -47t-30.5 -124q0 -79 34.5 -134t91.5 -55q40 0 77 42.5t37 88.5z" glyph-name="d" horiz-adv-x="546" unicode="d"/>
<glyph d="M397 93q7 7 15 7q10 0 19 -17q-67 -95 -193 -95q-85 0 -142.5 55.5t-57.5 158.5q0 97 67.5 164.5t143.5 67.5q90 0 134 -52t44 -143q0 -6 -6 -6l-290 -13q0 -79 42.5 -129.5t112.5 -50.5q31 0 61 14.5t50 38.5zM235 398q-49 0 -77.5 -39t-28.5 -102l189 9q15 0 15 13 q0 44 -26 81.5t-72 37.5z" glyph-name="e" horiz-adv-x="465" unicode="e"/>
<glyph d="M97 58v322h-60v18q0 10 9.5 13.5t20.5 4t20.5 7.5t9.5 23v46q0 101 51 154.5t115 53.5q63 0 104 -23.5t41 -52.5q0 -11 -25 -20t-37 -9q-14 0 -21 12q-9 18 -16.5 28t-22 19t-34.5 9q-71 0 -71 -114v-127h118q0 -23 -3.5 -32.5t-16.5 -9.5h-98v-306q0 -24 21.5 -34 t76.5 -16q11 -2 11 -13q0 -2 -1 -9l-1 -7q-45 5 -138 5q-65 0 -110 -5l-1 7q-1 7 -1 9q0 10 9 12q50 9 50 35z" glyph-name="f" horiz-adv-x="309" unicode="f"/>
<glyph d="M94 21q-43 25 -43 72q0 50 66 82q-61 36 -61 116q0 57 50 100t115 43q81 0 132 -42l99 43q21 -14 21 -40q0 -22 -15 -22l-36 1q-19 0 -46 -6q24 -31 24 -76q0 -62 -51.5 -101.5t-127.5 -39.5q-46 0 -76 11q-46 -21 -46 -47q0 -41 124 -41q99 0 160 -32.5t61 -102.5 q0 -81 -62 -130t-162 -49q-200 0 -200 143q0 40 22 70.5t52 47.5zM118 9q-24 -23 -27 -58q-1 -10 -1 -33q2 -47 42 -81t110 -34q65 0 98.5 29.5t33.5 76.5q0 87 -162 87q-58 0 -94 13zM231 186q37 0 59 24.5t22 65.5q0 51 -22.5 86.5t-73.5 35.5q-35 0 -55.5 -23t-20.5 -63 q0 -52 21.5 -89t69.5 -37z" glyph-name="g" horiz-adv-x="484" unicode="g"/>
<glyph d="M187 593v-258l17 17q17 18 36.5 35t51.5 32t64 15q54 0 87.5 -32t33.5 -101v-244q0 -24 59 -34q8 -2 8 -12q0 -6 -2 -16q-57 5 -105 5t-105 -5q-2 10 -2 16q0 10 9 12q55 10 55 34v196q0 55 -16 85t-59 30q-53 0 -92.5 -35t-39.5 -94v-182q0 -24 55 -34q9 -2 9 -12 q0 -6 -2 -16q-58 5 -104 5q-51 0 -106 -5q-2 10 -2 16q0 10 8 12q59 10 59 35v538q0 32 -12 43t-48 15q-13 2 -13 14q0 6 2 14q36 0 78 5q16 2 39 7.5t28 5.5q15 0 15 -15q0 -9 -3 -39.5t-3 -52.5z" glyph-name="h" horiz-adv-x="570" unicode="h"/>
<glyph d="M142 0q-67 0 -107 -5l-1 7q-1 7 -1 9q0 10 9 12q58 10 58 35v272q0 31 -11 43.5t-45 15.5q-13 2 -13 14q0 5 2 13q42 0 75 5q12 2 27 5.5t25 5.5t15 2q14 0 14 -15q0 -6 -3 -33.5t-3 -51.5v-276q0 -15 14.5 -22.5t44.5 -12.5q8 -2 8 -12q0 -14 -2 -16q-40 5 -106 5z M84 601q0 24 17 41.5t41 17.5t40 -17.5t16 -41.5q0 -25 -16 -41.5t-40 -16.5q-25 0 -41.5 16.5t-16.5 41.5z" glyph-name="i" horiz-adv-x="273" unicode="i"/>
<glyph d="M99 0v330q0 33 -11.5 44t-49.5 15q-14 0 -14 14q0 5 2 13q46 0 81 5q12 2 27 5.5t24.5 5.5t14.5 2q15 0 15 -15q0 -6 -3 -33.5t-3 -51.5v-234q0 -50 -1.5 -79t-7.5 -61t-16.5 -52t-31.5 -45.5t-48.5 -48.5t-70.5 -54q-12 10 -12 21q0 5 6 11q57 56 78 98.5t21 109.5z M82 601q0 24 17 41.5t42 17.5q24 0 40 -17.5t16 -41.5q0 -25 -16 -41.5t-40 -16.5q-26 0 -42.5 16.5t-16.5 41.5z" glyph-name="j" horiz-adv-x="269" unicode="j"/>
<glyph d="M187 218v-160q0 -24 55 -35q9 -2 9 -12q0 -6 -2 -16q-58 5 -103 5q-52 0 -107 -5q-2 10 -2 16q0 10 8 12q59 11 59 35v538q0 32 -12 43.5t-48 14.5q-13 2 -13 14q0 6 2 14q36 0 78 5q16 2 39 7.5t28 5.5q15 0 15 -15q0 -9 -3 -39.5t-3 -52.5v-358l150 133q9 5 9 15 q0 8 -24 12.5t-24 17.5q0 4 2 12l33 -1q33 -2 57 -2t54 1.5t31 1.5l1 -5q2 -4 2 -7q0 -16 -14 -16q-40 -3 -58 -18l-140 -126l162 -188q28 -35 75 -39q10 0 10 -12q0 -4 -3 -19q-68 3 -140 3l-182 220h-1z" glyph-name="k" horiz-adv-x="506" unicode="k"/>
<glyph d="M253 -5q-58 5 -107 5q-54 0 -109 -5q-2 10 -2 16q0 10 9 12q60 10 60 35v538q0 32 -12 43.5t-48 14.5q-13 2 -13 14q0 6 2 14q36 0 78 5q16 2 39 7.5t28 5.5q15 0 15 -15q0 -9 -3 -39.5t-3 -52.5v-535q0 -25 60 -35q8 -2 8 -12q0 -6 -2 -16z" glyph-name="l" horiz-adv-x="281" unicode="l"/>
<glyph d="M460 333q1 0 18 18t36.5 35.5t52 32.5t63.5 15q110 0 110 -134v-243q0 -24 58 -34q9 -2 9 -12q0 -6 -2 -16q-57 5 -105 5q-50 0 -105 -5q-2 10 -2 16q0 10 9 12q55 10 55 34v206q0 61 -14.5 83t-49.5 22q-54 0 -92.5 -35t-38.5 -94v-182q0 -24 55 -34q9 -2 9 -12 q0 -6 -2 -16q-58 5 -102 5q-49 0 -106 -5q-2 10 -2 16q0 10 9 12q55 9 55 34v206q0 61 -14 83t-49 22q-54 0 -93 -35t-39 -94v-182q0 -24 55 -34q9 -2 9 -12q0 -6 -2 -16q-58 5 -104 5q-51 0 -106 -5q-2 10 -2 16q0 10 9 12q58 10 58 35v272q0 31 -11 43.5t-45 15.5 q-13 2 -13 14q0 5 2 13q42 0 75 5q12 2 27 5.5t25 5.5t15 2q14 0 14 -15q0 -6 -3 -33.5t-3 -51.5q1 1 12 13t25.5 25.5t34.5 28t45.5 24t51.5 9.5q97 0 108 -101z" glyph-name="m" horiz-adv-x="832" unicode="m"/>
<glyph d="M474 300v-243q0 -24 58 -34q9 -2 9 -12q0 -6 -2 -16q-58 5 -105 5q-49 0 -106 -5q-2 10 -2 16q0 10 9 12q55 10 55 34v196q0 56 -16 85.5t-59 29.5q-53 0 -92.5 -35t-39.5 -94v-182q0 -24 55 -34q9 -2 9 -12q0 -6 -2 -16q-58 5 -104 5q-51 0 -106 -5q-2 10 -2 16 q0 10 9 12q58 10 58 35v272q0 31 -11 43.5t-45 15.5q-13 2 -13 14q0 5 2 13q42 0 75 5q12 2 27 5.5t25 5.5t15 2q14 0 14 -15q0 -6 -3 -33.5t-3 -51.5q90 100 169 100q60 0 91 -35t31 -99z" glyph-name="n" horiz-adv-x="565" unicode="n"/>
<glyph d="M36 211q0 93 64.5 158t158.5 65q98 0 160.5 -62t62.5 -161q0 -94 -64.5 -158.5t-158.5 -64.5q-98 0 -160.5 62t-62.5 161zM130 244q0 -53 13.5 -101t46 -83t78.5 -35q56 0 88 39.5t32 103.5q0 54 -12.5 103.5t-46 87.5t-81.5 38q-55 0 -86.5 -38t-31.5 -115z" glyph-name="o" horiz-adv-x="517" unicode="o"/>
<glyph d="M178 257v-176q54 -57 123 -57q56 0 86.5 47t30.5 124q0 79 -34.5 134t-91.5 55q-40 0 -77 -41t-37 -86zM94 -182v516q0 30 -10 41t-43 14q-13 2 -13 13q0 6 2 14q43 0 73 6q15 2 37.5 7t27.5 5q13 0 13 -15q0 -5 -1.5 -28.5t-1.5 -48.5q71 92 160 92q71 0 122.5 -58 t51.5 -156q0 -102 -68.5 -167t-139.5 -65q-67 0 -126 27v-181q0 -24 21.5 -34t76.5 -16q11 -2 11 -13q0 -6 -2 -16q-75 5 -138 5q-53 0 -110 -5q-2 10 -2 16q0 10 9 12q50 10 50 35z" glyph-name="p" horiz-adv-x="547" unicode="p"/>
<glyph d="M369 169v173q-53 56 -123 56q-56 0 -86.5 -47t-30.5 -124q0 -79 34.5 -134t91.5 -55q40 0 77 42.5t37 88.5zM452 317v-499q0 -26 55 -35q9 -2 9 -12q0 -6 -2 -16q-57 5 -114 5q-48 0 -121 -5q-2 10 -2 16q0 11 10 13q49 6 65.5 15.5t16.5 34.5v251q-23 -32 -38.5 -49 t-48 -32.5t-74.5 -15.5q-73 0 -123 56t-50 158t68 167t140 65q71 0 145 -34q18 3 34.5 15t20.5 12q3 0 15 -3q-1 -13 -2.5 -34t-2.5 -38.5t-1 -34.5z" glyph-name="q" horiz-adv-x="535" unicode="q"/>
<glyph d="M321 433q27 0 42 -13t15 -32q0 -13 -12.5 -22.5t-57.5 -30.5q-23 27 -49 27q-33 0 -54.5 -35t-21.5 -83v-172q0 -37 89 -49q10 -2 10 -12q0 -6 -2 -16q-75 5 -134 5q-54 0 -111 -5q-2 10 -2 16q0 10 9 12q58 9 58 35v254q0 42 -11 57t-47 19q-13 2 -13 13q0 6 2 14 q42 0 75 5q12 2 26 5.5t23.5 5.5t13.5 2q14 0 14 -15v-67q38 40 69.5 61t68.5 21z" glyph-name="r" horiz-adv-x="379" unicode="r"/>
<glyph d="M329 310l-23 1q-14 0 -16 11q-13 76 -96 76q-30 0 -52 -17.5t-22 -44.5q0 -26 20.5 -43.5t74.5 -34.5q67 -21 100 -50.5t33 -87.5q0 -56 -40.5 -94t-117.5 -38q-85 0 -143 33q-5 57 -5 112h10q24 0 25 -15q4 -43 33.5 -68t78.5 -25q40 0 62.5 18.5t22.5 50.5 q0 31 -22.5 49t-72.5 33q-64 19 -95 49t-31 83t39 89.5t101 36.5q77 0 131 -33q5 -33 5 -91z" glyph-name="s" horiz-adv-x="387" unicode="s"/>
<glyph d="M270 59q8 7 14 7q9 0 16 -13q-58 -65 -120 -65q-46 0 -71.5 24.5t-25.5 91.5v276h-60v11q0 19 13 19q46 0 72 50q4 8 9 19t8 18t7.5 14.5t8.5 11t8 3.5h18v-104h117q0 -42 -21 -42h-96v-248q0 -60 10.5 -79t33.5 -19q26 0 59 25z" glyph-name="t" horiz-adv-x="307" unicode="t"/>
<glyph d="M90 122v208q0 34 -9.5 45t-43.5 14q-13 2 -13 13q0 6 2 14q41 0 71 6q15 2 36.5 7t26.5 5q14 0 14 -15v-250q0 -56 16 -85.5t59 -29.5q54 0 93 35t39 95v146q0 32 -10 44t-44 15q-13 2 -13 13q0 6 2 14q40 0 72 6q15 2 36 7t26 5q14 0 14 -15v-325q0 -33 10 -44.5 t44 -14.5q13 -2 13 -13q0 -6 -2 -14q-30 0 -80 -9t-54 -9q-14 0 -14 15v83q-1 -1 -12 -13t-25.5 -25.5t-34.5 -28t-45.5 -24t-51.5 -9.5q-60 0 -91 35t-31 99z" glyph-name="u" horiz-adv-x="559" unicode="u"/>
<glyph d="M185 303l82 -194q95 235 95 263q0 11 -7.5 17.5t-30.5 9.5q-13 1 -13 13q0 1 3 13q39 -3 83 -3q43 0 74 3q3 -7 3 -13q0 -7 -13 -15q-4 -2 -17 -9t-18.5 -11t-13 -11.5t-11.5 -17.5l-145 -358q-6 -2 -15 -2q-2 0 -4 0.5t-4 1.5t-3 2t-3 3.5t-3 4.5t-2.5 6t-3 6.5t-3.5 8 t-4 9.5l-137 318q-13 30 -22 37t-38 12q-13 1 -13 15q0 6 3 13q50 -3 98 -3q54 0 107 3q3 -6 3 -13q0 -12 -13 -13q-23 -4 -31 -8t-8 -13q0 -15 25 -75z" glyph-name="v" horiz-adv-x="476" unicode="v"/>
<glyph d="M394 432l132 -323q9 24 29 74t31 78.5t20.5 61t9.5 49.5q0 12 -27 21t-27 19q0 7 3 13q42 -3 84 -3q36 0 69 3q3 -6 3 -13q0 -13 -13 -14q-24 -5 -33 -13t-20 -37l-139 -358q-8 -2 -16 -2t-12.5 5.5t-13.5 27.5l-112 272l-118 -303q-10 -2 -17 -2q-10 0 -16 10t-16 36 l-129 314q-12 29 -21 37t-31 12q-13 3 -13 15q0 7 3 13q39 -3 90 -3h34q13 0 26 0.5t29 1.5t25 1q3 -6 3 -13q0 -12 -13 -13q-46 -7 -46 -22q0 -13 24 -74l77 -193l120 313q4 11 12 11q3 0 9 -2z" glyph-name="w" horiz-adv-x="722" unicode="w"/>
<glyph d="M202 208l-120 159q-18 25 -56 30q-13 2 -13 14q0 8 3 14q50 -3 104 -3q62 0 112 3q0 -1 1 -4t1.5 -5t0.5 -3q0 -14 -13 -14q-43 -4 -43 -17q0 -12 16 -31l74 -93l71 101q11 17 11 24q0 11 -34 15q-13 0 -13 15q0 6 3 12q39 -3 85 -3q40 0 76 3q3 -6 3 -13q0 -13 -13 -14 q-49 -6 -71 -37l-94 -133l121 -154q20 -25 36 -35.5t38 -13.5q8 -1 8 -14q0 -6 -2 -16q-62 5 -114 5q-48 0 -113 -5q-2 10 -2 16q0 12 10 13q46 8 46 23q0 6 -14 24l-82 108l-68 -101q-13 -20 -13 -26q0 -19 53 -28q10 -2 10 -13q0 -6 -2 -16q-58 5 -97 5q-42 0 -99 -5 q-2 10 -2 16q0 11 9 13q63 12 86 44z" glyph-name="x" horiz-adv-x="502" unicode="x"/>
<glyph d="M184 303l88 -194q12 29 42 98.5t45 108.5t15 56q0 12 -25.5 21t-25.5 19q0 1 3 13q39 -3 83 -3q42 0 72 3q3 -6 3 -13q0 -11 -13 -14q-29 -7 -37.5 -14t-20.5 -36l-205 -484q-20 -48 -60 -76t-86 -28q-15 0 -15 15q0 24 11 47t25 23q5 0 14.5 -1.5t14.5 -1.5 q26 0 39.5 10t23.5 34l51 119l-154 343q-13 28 -22.5 36t-35.5 13q-13 3 -13 15q0 7 3 13q39 -3 87 -3h29q45 0 87 3q3 -6 3 -13q0 -12 -13 -13q-39 -6 -39 -21q0 -20 26 -75z" glyph-name="y" horiz-adv-x="486" unicode="y"/>
<glyph d="M274 385h-130q-34 0 -48.5 -14.5t-21.5 -58.5q-2 -9 -14 -9q-6 0 -11 3q2 23 5 90q2 26 18 26h311q2 -4 2 -7t-7 -14l-230 -364h151q26 0 41.5 18.5t27.5 58.5q3 10 15 10q3 0 12 -3l-10 -113q-1 -12 -15 -12q-11 0 -37 2q-42 2 -67 2h-231q-1 1 -1 6q0 4 7 15z" glyph-name="z" horiz-adv-x="426" unicode="z"/>
<glyph d="M147 251v-1q45 -17 63.5 -50t18.5 -88q0 -61 -21 -172q-3 -14 -3 -27q0 -32 18 -45t54 -18q14 -1 14 -13q0 -4 -2 -14q-45 0 -75 6t-53 29t-23 63q0 9 2 23q21 162 21 184q0 48 -20 73t-71 30v33q51 5 71 30.5t20 74.5q0 24 -21 186q-2 12 -2 23q0 101 150 98q1 -5 1 -12 q0 -14 -12 -15q-35 -5 -53.5 -18t-18.5 -45q0 -14 3 -27q21 -111 21 -171q0 -55 -18.5 -87.5t-63.5 -49.5z" glyph-name="braceleft" horiz-adv-x="315" unicode="{"/>
<glyph d="M152 683v-922q-10 -2 -24 -2q-28 0 -28 17v922q14 3 24 3q28 0 28 -18z" glyph-name="bar" horiz-adv-x="252" unicode="|"/>
<glyph d="M167 250v1q-45 17 -63.5 50t-18.5 88q0 61 21 172q3 13 3 27q0 32 -18 45t-54 18q-14 1 -14 13q0 4 2 14q45 0 75 -6t53 -29t23 -63q0 -9 -2 -23q-21 -162 -21 -184q0 -48 20 -73t71 -30v-33q-51 -5 -71 -30.5t-20 -74.5q0 -24 21 -186q2 -12 2 -23q0 -101 -150 -98 q-1 5 -1 12q0 13 12 15q35 5 53.5 18t18.5 45q0 13 -3 27q-21 111 -21 171q0 55 18.5 87.5t63.5 49.5z" glyph-name="braceright" horiz-adv-x="315" unicode="}"/>
<glyph d="M390 219q42 0 95 65q28 -15 28 -35q0 -9 -4 -14q-55 -72 -118 -72q-52 0 -132 41q-60 29 -90 29q-20 0 -40 -12.5t-54 -51.5q-30 15 -30 35q0 7 5 12q61 74 118 74q44 0 121 -40q63 -31 101 -31z" glyph-name="asciitilde" horiz-adv-x="560" unicode="~"/>
<glyph d="M139 238l36 -464q-32 -13 -62 -13q-52 0 -52 35q0 5 3 23q22 137 39 434q8 2 12 2q22 0 24 -17zM184 369q0 -26 -19 -45.5t-46 -19.5q-26 0 -44 19t-18 46q0 28 18 46.5t44 18.5q27 0 46 -18.5t19 -46.5z" glyph-name="exclamdown" horiz-adv-x="239" unicode="¡"/>
<glyph d="M333 61q50 0 91 30q10 7 15 7t11.5 -7.5t7.5 -11.5q-53 -60 -143 -68v-67q-8 -2 -20 -2q-25 0 -25 17v51q-85 3 -138 59t-53 157q0 90 58.5 154.5t132.5 74.5v63q16 2 23 2q22 0 22 -18v-47q63 -4 101.5 -32t38.5 -64q0 -10 -26.5 -15t-40.5 -5q-12 0 -21 14t-21.5 32.5 t-30.5 25.5v-350h18zM172 266q0 -156 98 -194v345q-44 -3 -71 -44t-27 -107z" glyph-name="cent" horiz-adv-x="508" unicode="¢"/>
<glyph d="M65 302q-2 14 -2 18q0 24 17 24h53q-9 49 -9 76q0 107 52.5 163t128.5 56q54 0 94 -19.5t40 -40.5q0 -9 -15 -21.5t-28 -18.5q-8 -3 -17 -3t-12 4q-40 57 -87 57q-36 0 -54 -29t-18 -95q0 -38 20 -129h151q1 -7 1 -18q0 -24 -17 -24h-127q3 -18 3 -34q0 -90 -78 -168 q46 0 108 -29.5t90 -29.5q51 0 51 39q0 9 -5.5 24.5t-5.5 19.5q0 13 24 27.5t41 14.5q21 0 21 -43q0 -56 -47 -101.5t-113 -45.5q-41 0 -104 38t-85 38q-29 0 -50 -52q-28 0 -28 18q0 17 14.5 37t31.5 37.5t31.5 51.5t14.5 75q0 33 -9 83h-76z" glyph-name="sterling" horiz-adv-x="535" unicode="£"/>
<glyph d="M105 334q0 62 39 112l-54 54q21 28 32 28q6 0 11 -5l45 -44q49 36 107 36q59 0 108 -36l56 56q27 -21 27 -33q0 -5 -5 -10l-45 -45q40 -50 40 -113q0 -59 -38 -110l56 -55q-21 -28 -34 -28q-4 0 -9 5l-45 45q-50 -37 -111 -37q-63 0 -111 38l-57 -57q-27 20 -27 34 q0 6 4 10l47 47q-36 47 -36 108zM272 472q-41 0 -74 -33t-33 -91q0 -62 36 -107t89 -45q52 0 84 33.5t32 91.5q0 65 -34 108t-100 43z" glyph-name="currency" horiz-adv-x="575" unicode="¤"/>
<glyph d="M78 271q-1 7 -1 17q0 23 16 23h119l-138 252q-15 25 -64 34q-10 1 -10 17l2 14q36 -4 121 -4q71 0 108 4q2 -11 2 -15q0 -14 -9 -16q-46 -4 -46 -24q0 -7 14 -35l95 -175l91 175q10 20 10 29q0 12 -11.5 18.5t-40.5 11.5q-9 1 -9 16l2 15q37 -4 97 -4q54 0 98 4 q2 -11 2 -15q0 -15 -12 -16q-33 -4 -48.5 -12t-24.5 -25l-130 -249h140q1 -7 1 -19t-4 -16.5t-13 -4.5h-126v-68h142q1 -7 1 -19q0 -22 -17 -22h-126v-92q0 -19 15 -27.5t55 -14.5q11 -4 11 -16l-2 -16q-79 5 -125 5l-122 -5q-3 12 -3 16q0 12 12 16q42 8 56 15.5t14 26.5 v92h-142q-1 7 -1 18q0 23 16 23h127v68h-142z" glyph-name="yen" horiz-adv-x="526" unicode="¥"/>
<glyph d="M152 682v-339q-9 -2 -23 -2q-29 0 -29 17v340q18 2 24 2q28 0 28 -18zM152 100v-339q-18 -2 -23 -2q-29 0 -29 18v339q18 2 24 2q28 0 28 -18z" glyph-name="brokenbar" horiz-adv-x="252" unicode="¦"/>
<glyph d="M86 442q0 -30 9.5 -58.5t34.5 -64.5t42.5 -57t59.5 -70q54 -63 83 -113.5t31 -101.5q44 51 44 118q0 43 -27 93.5t-65.5 97t-76.5 92.5t-63.5 92.5t-23.5 84.5q-48 -48 -48 -113zM333 662q27 0 27 -46q0 -30 -22 -30q-8 0 -12 3q-30 16 -46 20.5t-45 4.5q-24 0 -40 -14.5 t-16 -41.5q0 -29 40 -84.5t87.5 -110t87.5 -122.5t40 -119q0 -100 -74 -178.5t-208 -83.5q-13 -2 -24 1q-19 4 -19 43q0 32 22 32q2 0 11 -3q31 -16 48 -21t45 -5q25 0 45.5 16t20.5 45q0 44 -28.5 89t-84.5 103q-71 73 -107.5 129.5t-36.5 118.5q0 103 80 178.5t209 75.5z " glyph-name="section" horiz-adv-x="478" unicode="§"/>
<glyph d="M224 583q0 -23 -15.5 -39t-37.5 -16q-23 0 -39 16t-16 39t16 39.5t39 16.5q22 0 37.5 -16.5t15.5 -39.5zM422 583q0 -23 -15.5 -39t-38.5 -16t-39 16t-16 39t16.5 39.5t38.5 16.5t38 -16.5t16 -39.5z" glyph-name="dieresis" horiz-adv-x="500" unicode="¨"/>
<glyph d="M38 325q0 127 90 217t217 90t217 -90t90 -217t-90 -217t-217 -90t-217 90t-90 217zM347 48q109 0 185.5 81t76.5 194q0 115 -78.5 197t-187.5 82t-185.5 -80.5t-76.5 -193.5q0 -111 76.5 -195t189.5 -85zM348 148q-89 0 -136 49.5t-47 129.5q0 69 48.5 124t134.5 55 q56 0 110 -14q2 -32 13 -79q-4 -4 -13 -4q-11 0 -14 9q-18 57 -86 57q-57 0 -88.5 -35.5t-31.5 -100.5q0 -69 35.5 -114t88.5 -45q37 0 57.5 13t32.5 44q4 10 15 10q6 0 16 -4q-18 -55 -25 -86q-59 -9 -110 -9z" glyph-name="copyright" horiz-adv-x="690" unicode="©"/>
<glyph d="M353 285q9 0 10 -19q-23 -13 -55 -13q-60 0 -70 54q-33 -54 -104 -54q-103 0 -103 70q0 46 38 69.5t105 35.5q8 2 38 9q10 3 13.5 7t3.5 15q0 30 -14 48t-43 18q-21 0 -31.5 -9.5t-19.5 -36.5q0 -1 -1 -2.5t-2.5 -2.5l-3 -2t-4 -2t-4.5 -1.5t-5.5 -1.5t-6.5 -2t-8 -2 t-8 -2q-17 -5 -28 -5q-8 0 -8 14q0 31 45 58t91 27q63 0 94.5 -20.5t31.5 -75.5v-115q0 -36 8 -49q7 -12 21 -12q6 0 12 1t8 1zM229 359v54l-22 -4q-47 -8 -71.5 -24.5t-24.5 -50.5q0 -21 13 -32.5t35 -11.5q29 0 49.5 18.5t20.5 50.5z" glyph-name="ordfeminine" horiz-adv-x="374" unicode="ª"/>
<glyph d="M32 226l154 149q6 4 10 4q10 0 21 -16q-61 -81 -101 -145q38 -64 102 -152q-10 -17 -24 -17q-5 0 -8 3l-160 156q-1 1 -1 6t7 12zM186 226l154 149q4 4 9 4q10 0 22 -16q-61 -78 -101 -145q31 -55 102 -152q-10 -17 -24 -17q-5 0 -8 3l-160 156v2q-1 3 -1 4q0 5 7 12z " glyph-name="guillemotleft" horiz-adv-x="415" unicode="«"/>
<glyph d="M406 292h-367q-1 10 -1 24q0 29 16 29h402v-236q-8 -1 -22 -1q-28 0 -28 16v168z" glyph-name="logicalnot" horiz-adv-x="494" unicode="¬"/>
<glyph d="M69 262h191q1 -8 1 -22q0 -30 -16 -30h-191q-3 13 -3 23q0 29 18 29z" glyph-name="uni00AD" horiz-adv-x="314" unicode="­"/>
<glyph d="M35 479q0 78 51 131t133 53q85 0 135 -53t50 -131t-51.5 -131.5t-133.5 -53.5t-133 53.5t-51 131.5zM220 324q68 0 109.5 44t41.5 109q0 67 -43 111.5t-110 44.5q-68 0 -109 -43.5t-41 -109.5t40 -111t112 -45zM328 388q-7 -12 -16 -21h-8q-22 0 -37 22l-53 78h-16v-68 q0 -9 20 -13q6 -2 6 -6t-2 -10q-12 1 -45 1q-30 0 -43 -1q-1 3 -1 10q0 5 5 6q20 3 20 13v166q0 10 -19 11q-7 0 -7 6q0 4 2 10q26 -2 47 -2h38q39 0 63 -14.5t24 -44.5q0 -19 -15.5 -35.5t-35.5 -21.5l44 -65q11 -17 29 -21zM198 488h12q51 0 51 40q0 41 -52 41h-11v-81z " glyph-name="registered" horiz-adv-x="439" unicode="®"/>
<glyph d="M364 552h-251q-5 22 -5 31q0 22 23 22h251q4 -17 4 -31t-5.5 -18t-16.5 -4z" glyph-name="macron" horiz-adv-x="500" unicode="¯"/>
<glyph d="M20 523q0 57 39.5 92t96.5 35q53 0 92.5 -35t39.5 -92q0 -58 -40 -94t-93 -36q-56 0 -95.5 35t-39.5 95zM144 608q-24 0 -43 -21t-19 -56q0 -39 21.5 -67.5t52.5 -28.5t50.5 21t19.5 56q0 41 -21 68.5t-61 27.5z" glyph-name="degree" horiz-adv-x="308" unicode="°"/>
<glyph d="M38 0q-1 8 -1 22q0 30 16 30h402q2 -18 2 -23q0 -29 -17 -29h-402zM216 297h-178q-1 8 -1 22q0 30 16 30h163v178q9 2 23 2q29 0 29 -17v-163h187q2 -18 2 -23q0 -29 -17 -29h-172v-185q-18 -2 -23 -2q-29 0 -29 17v170z" glyph-name="plusminus" horiz-adv-x="494" unicode="±"/>
<glyph d="M69 660q-4 -4 -10 -4q-7 0 -19 15q59 69 128 69q50 0 80 -25t30 -65t-35.5 -93t-126.5 -134h112q23 0 39 32q2 8 10 8t18 -4q-4 -9 -8.5 -26t-9 -36.5t-6.5 -26.5q-2 -6 -10 -6q-7 0 -30.5 1t-38.5 1h-152v23q153 154 153 242q0 28 -14.5 42.5t-38.5 14.5q-33 0 -71 -28z " glyph-name="twosuperior" unicode="²"/>
<glyph d="M150 400q33 0 52 22t19 59q0 68 -70 68q-18 0 -48 -8v24q57 23 78 45t21 46q0 42 -45 42q-31 0 -73 -29q-8 -4 -9 -4q-11 0 -18 15q59 60 126 60q35 0 62 -16.5t27 -51.5q0 -55 -72 -85q45 -5 73 -26.5t28 -59.5q0 -56 -57 -98.5t-122 -42.5q-48 0 -75 18q-10 6 -10 13 q0 5 33 35q11 11 21 3q32 -29 59 -29z" glyph-name="threesuperior" unicode="³"/>
<glyph d="M157 524l96 148q28 0 46.5 -15.5t18.5 -33.5q0 -16 -14 -24q-58 -38 -135 -106q-17 9 -17 19q0 5 5 12z" glyph-name="acute" horiz-adv-x="500" unicode="´"/>
<glyph d="M90 122v200q0 63 -11 81q-7 12 -1 25q17 1 45 5t37 4q14 0 14 -15v-253q0 -56 16 -85.5t59 -29.5q52 0 87 34.5t35 95.5v136v8q0 32 -2 46t-10 29q-7 12 -1 25q17 1 45 5t37 4q14 0 14 -15v-325q0 -13 0.5 -19.5t5 -13t13.5 -6.5q12 0 26 7t19 7q9 0 15 -21 q-83 -63 -123 -63q-39 0 -39 55v45q-1 -1 -15 -18.5t-30.5 -34.5t-45 -32t-57.5 -15t-53.5 9.5t-33.5 25.5q0 -51 8.5 -87t26 -55.5t33 -28.5t38.5 -16q14 -4 9 -31q-12 -52 -38 -55q-20 -2 -43 21q-48 52 -64 141t-16 210z" glyph-name="mu" horiz-adv-x="559" unicode="µ"/>
<glyph d="M267 588l106 7q2 -11 2 -15q0 -10 -8 -12q-53 -8 -53 -35v-498q0 -64 -14 -107t-40 -64t-55.5 -28.5t-68.5 -5.5q-20 0 -23 22q-9 38 8 44q9 3 17 -2q3 -2 9 -5l8 -4t6.5 -3t6.5 -3t5.5 -2.5t5 -2t4.5 -1t5.5 -1t6 -0.5h6.5q66 0 66 127v169q-108 0 -160 47t-52 150 q0 99 56.5 161t155.5 62z" glyph-name="paragraph" horiz-adv-x="444" unicode="¶"/>
<glyph d="M42 262q0 26 19 45.5t46 19.5q26 0 44 -19.5t18 -45.5q0 -28 -18 -46.5t-44 -18.5q-27 0 -46 18.5t-19 46.5z" glyph-name="periodcentered" horiz-adv-x="212" unicode="·"/>
<glyph d="M240 0h34q-21 -34 -21 -45q0 -14 23 -35q28 -28 28 -57q0 -32 -28.5 -58.5t-81.5 -42.5q-6 10 -6 18q0 9 7 12q42 22 42 56q0 19 -22 39q-22 22 -22 35q0 15 7.5 27.5t39.5 50.5z" glyph-name="cedilla" horiz-adv-x="503" unicode="¸"/>
<glyph d="M88 364q-1 2 -1 11t6 9q29 5 38 10.5t9 16.5v237q0 21 -8 28.5t-36 7.5q-11 0 -11 13q0 8 2 14q21 2 71 12q8 3 21 7.5t21 7t13 2.5q10 0 10 -10q0 -7 -2 -29.5t-2 -34.5v-256q0 -12 7 -17t32 -9q6 0 6 -9t-1 -11q-50 2 -83 2q-44 0 -92 -2z" glyph-name="onesuperior" unicode="¹"/>
<glyph d="M31 404q0 64 45 107.5t113 43.5q71 0 114.5 -42t43.5 -109q0 -63 -45 -107t-113 -44q-71 0 -114.5 42t-43.5 109zM195 285q34 0 56 24.5t22 60.5q0 57 -23 105.5t-68 48.5q-33 0 -55 -23.5t-22 -70.5q0 -54 23.5 -99.5t66.5 -45.5z" glyph-name="ordmasculine" horiz-adv-x="379" unicode="º"/>
<glyph d="M382 202l-154 -148q-3 -4 -9 -4q-10 0 -22 16q58 75 101 146q-30 53 -102 151q12 16 24 16q5 0 8 -3l160 -154q1 -2 1 -7q0 -6 -7 -13zM229 202l-154 -148q-4 -4 -10 -4q-10 0 -21 16q59 78 100 146q-28 49 -101 151q11 16 24 16q5 0 8 -3l159 -154q2 -6 2 -7 q0 -6 -7 -13z" glyph-name="guillemotright" horiz-adv-x="415" unicode="»"/>
<glyph d="M78 257q-1 2 -1 11t6 9q29 5 38 10.5t9 16.5v237q0 21 -8 28.5t-36 7.5q-11 0 -11 13q0 8 2 14q21 2 71 12q8 3 21 7.5t21 7t13 2.5q10 0 10 -10q0 -7 -2 -29t-2 -35v-256q0 -12 7 -16.5t32 -9.5q6 0 6 -9t-1 -11q-50 2 -83 2q-44 0 -92 -2zM607 651q37 -14 37 -30l-3 -9 l-409 -624q-36 15 -36 30q0 6 3 9zM622 135v144l-113 -144h113zM743 -2q-50 2 -96 2q-32 0 -80 -2q-2 4 -2 11q0 9 7 9q30 5 40 10.5t10 16.5v41h-162q-3 8 -3 20q-1 7 6 19l181 233q7 7 11 7h41v-230h49v-49h-49v-42q0 -11 9 -16t33 -10q6 0 6 -9t-1 -11z" glyph-name="onequarter" horiz-adv-x="802" unicode="¼"/>
<glyph d="M58 257q-1 2 -1 11t6 9q29 5 38 10.5t9 16.5v237q0 21 -8 28.5t-36 7.5q-11 0 -11 13q0 8 2 14q21 2 71 12q8 3 21 7.5t21 7t13 2.5q10 0 10 -10q0 -7 -2 -29t-2 -35v-256q0 -12 7 -16.5t32 -9.5q6 0 6 -9t-1 -11q-50 2 -83 2q-44 0 -92 -2zM568 651q37 -14 37 -30l-3 -9 l-409 -624q-36 15 -36 30q0 6 3 9zM502 294q-4 -4 -10 -4q-7 0 -19 15q59 69 128 69q50 0 80 -25t30 -65t-35.5 -93t-126.5 -134h112q23 0 39 32q2 8 10 8t18 -4q-4 -9 -8.5 -26t-9 -36.5t-6.5 -26.5q-2 -6 -10 -6q-7 0 -30.5 1t-38.5 1h-152v23q153 154 153 242 q0 28 -14.5 42.5t-38.5 14.5q-33 0 -71 -28z" glyph-name="onehalf" horiz-adv-x="802" unicode="½"/>
<glyph d="M150 293q33 0 52 22t19 59q0 68 -70 68q-18 0 -48 -8v24q57 23 78 45t21 46q0 42 -49 42q-27 0 -69 -29q-8 -4 -9 -4q-11 0 -18 15q59 60 126 60q35 0 62 -16.5t27 -51.5q0 -55 -72 -85q45 -5 73 -26.5t28 -59.5q0 -56 -57 -98.5t-122 -42.5q-48 0 -75 18q-10 6 -10 13 q0 5 33 35q11 11 21 3q32 -29 59 -29zM614 651q37 -14 37 -30l-3 -9l-409 -624q-36 15 -36 30q0 6 3 9zM632 135v144l-113 -144h113zM753 -2q-50 2 -96 2q-32 0 -80 -2q-2 4 -2 11q0 9 7 9q30 5 40 10.5t10 16.5v41h-162q-3 8 -3 20q-1 7 6 19l181 233q7 7 11 7h41v-230h49 v-49h-49v-42q0 -11 9 -16t33 -10q6 0 6 -9t-1 -11z" glyph-name="threequarters" horiz-adv-x="802" unicode="¾"/>
<glyph d="M43 -87q0 35 24 67t53.5 52.5t53.5 47.5t24 53q0 36 -26 98q-2 6 -2 8q0 15 24 22q77 -91 77 -152q0 -28 -16 -53.5t-38.5 -44.5t-45.5 -37.5t-39 -40.5t-16 -45q0 -39 21 -58t52 -19q42 0 65 53q6 13 22 13q13 0 36.5 -6.5t23.5 -15.5q0 -39 -40 -66t-92 -27 q-74 0 -117.5 47t-43.5 104zM254 369q0 -26 -18.5 -44.5t-45.5 -18.5q-26 0 -43.5 18.5t-17.5 44.5q0 28 17.5 46.5t43.5 18.5q27 0 45.5 -18.5t18.5 -46.5z" glyph-name="questiondown" horiz-adv-x="379" unicode="¿"/>
<glyph d="M492 73l-63 165h-223l-64 -161q-5 -12 -5 -20q0 -21 61 -30q12 -1 12 -16q0 -6 -2 -16q-60 5 -116 5q-46 0 -85 -5q-2 8 -2 16q0 17 13 18q58 10 69 36l241 580q7 17 19 17q4 0 12 -2l242 -598q10 -24 68 -33q13 -3 13 -18q0 -6 -2 -16q-70 5 -121 5q-66 0 -129 -5 q-2 10 -2 16q0 16 10 16q58 10 58 31q0 6 -4 15zM223 279h190l-93 245zM283 851l138 -109q9 -5 9 -13q0 -9 -11 -19q-92 38 -161 56q-23 6 -23 29q0 16 13 32t35 24z" glyph-name="Agrave" horiz-adv-x="687" unicode="À"/>
<glyph d="M492 73l-63 165h-223l-64 -161q-5 -12 -5 -20q0 -21 61 -30q12 -1 12 -16q0 -6 -2 -16q-60 5 -116 5q-46 0 -85 -5q-2 8 -2 16q0 17 13 18q58 10 69 36l241 580q7 17 19 17q4 0 12 -2l242 -598q10 -24 68 -33q13 -3 13 -18q0 -6 -2 -16q-70 5 -121 5q-66 0 -129 -5 q-2 10 -2 16q0 16 10 16q58 10 58 31q0 6 -4 15zM223 279h190l-93 245zM270 742l139 109q22 -8 34.5 -24t12.5 -32q0 -23 -22 -29q-70 -18 -162 -56q-10 10 -10 19q0 7 8 13z" glyph-name="Aacute" horiz-adv-x="687" unicode="Á"/>
<glyph d="M492 73l-63 165h-223l-64 -161q-5 -12 -5 -20q0 -21 61 -30q12 -1 12 -16q0 -6 -2 -16q-60 5 -116 5q-46 0 -85 -5q-2 8 -2 16q0 17 13 18q58 10 69 36l241 580q7 17 19 17q4 0 12 -2l242 -598q10 -24 68 -33q13 -3 13 -18q0 -6 -2 -16q-70 5 -121 5q-66 0 -129 -5 q-2 10 -2 16q0 16 10 16q58 10 58 31q0 6 -4 15zM223 279h190l-93 245zM385 829l92 -89q4 -4 4 -10q0 -12 -16 -20q-73 43 -121 66q-39 -20 -113 -66q-17 8 -17 19q0 6 5 11l108 113q22 0 32.5 -4.5t25.5 -19.5z" glyph-name="Acircumflex" horiz-adv-x="687" unicode="Â"/>
<glyph d="M492 73l-63 165h-223l-64 -161q-5 -12 -5 -20q0 -21 61 -30q12 -1 12 -16q0 -6 -2 -16q-60 5 -116 5q-46 0 -85 -5q-2 8 -2 16q0 17 13 18q58 10 69 36l241 580q7 17 19 17q4 0 12 -2l242 -598q10 -24 68 -33q13 -3 13 -18q0 -6 -2 -16q-70 5 -121 5q-66 0 -129 -5 q-2 10 -2 16q0 16 10 16q58 10 58 31q0 6 -4 15zM223 279h190l-93 245zM214 738q51 73 98 73q21 0 57 -18q25 -12 46 -12q41 0 67 27q15 -8 15 -19q0 -4 -3 -10q-49 -69 -94 -69q-28 0 -62 16q-32 16 -47 16q-35 0 -64 -32q-16 8 -16 19q0 5 3 9z" glyph-name="Atilde" horiz-adv-x="687" unicode="Ã"/>
<glyph d="M492 73l-63 165h-223l-64 -161q-5 -12 -5 -20q0 -21 61 -30q12 -1 12 -16q0 -6 -2 -16q-60 5 -116 5q-46 0 -85 -5q-2 8 -2 16q0 17 13 18q58 10 69 36l241 580q7 17 19 17q4 0 12 -2l242 -598q10 -24 68 -33q13 -3 13 -18q0 -6 -2 -16q-70 5 -121 5q-66 0 -129 -5 q-2 10 -2 16q0 16 10 16q58 10 58 31q0 6 -4 15zM223 279h190l-93 245zM251 710q-24 0 -40.5 16.5t-16.5 40.5t16.5 41t40.5 17q23 0 39 -17t16 -41t-16 -40.5t-39 -16.5zM453 710q-23 0 -40 16.5t-17 40.5t17 41t40 17t39 -17t16 -41t-16 -40.5t-39 -16.5z" glyph-name="Adieresis" horiz-adv-x="687" unicode="Ä"/>
<glyph d="M492 73l-63 165h-223l-64 -161q-5 -12 -5 -20q0 -21 61 -30q12 -1 12 -16q0 -6 -2 -16q-60 5 -116 5q-46 0 -85 -5q-2 8 -2 16q0 17 13 18q58 10 69 36l241 580q7 17 19 17q4 0 12 -2l242 -598q10 -24 68 -33q13 -3 13 -18q0 -6 -2 -16q-70 5 -121 5q-66 0 -129 -5 q-2 10 -2 16q0 16 10 16q58 10 58 31q0 6 -4 15zM223 279h190l-93 245zM255 794q0 39 27.5 63.5t66.5 24.5q35 0 62.5 -24.5t27.5 -63.5t-27.5 -63.5t-63.5 -24.5q-38 0 -65.5 24t-27.5 64zM342 847q-15 0 -26.5 -12.5t-11.5 -34.5q0 -23 13 -40t32 -17t30 12.5t11 33.5 q0 25 -12.5 41.5t-35.5 16.5z" glyph-name="Aring" horiz-adv-x="687" unicode="Å"/>
<glyph d="M271 333h161v259q0 15 -14 15q-11 0 -17 -12zM432 70v221h-179l-102 -214q-5 -12 -5 -20q0 -21 61 -30q12 -1 12 -16q0 -6 -2 -16q-60 5 -125 5q-46 0 -85 -5q-2 8 -2 16q0 17 13 18q56 10 69 36l254 514q6 11 6 18q0 18 -57 25q-10 1 -10 17q0 6 2 16q71 -5 120 -5h272 q36 0 78 3t44 3q15 0 20.5 -26t10.5 -64.5t16 -58.5q-6 -6 -18 -6t-16 9q-26 57 -52 78t-83 21h-148v-276h157q30 0 41 66q3 13 19 13q7 0 15 -2q-5 -48 -5 -100q0 -45 5 -96q-6 -2 -15 -2q-16 0 -19 13q-9 66 -41 66h-157v-215q0 -20 26 -27.5t90 -7.5h55q54 0 84.5 27.5 t58.5 82.5q4 7 15 7q7 0 21 -9q-8 -14 -17 -54.5t-18.5 -70t-21.5 -29.5q-8 0 -55.5 2.5t-66.5 2.5h-219q-58 0 -125 -5q-2 10 -2 16q0 14 10 16q40 7 55.5 15.5t15.5 27.5z" glyph-name="AE" horiz-adv-x="910" unicode="Æ"/>
<glyph d="M591 5q-90 -14 -183 -17q-13 -20 -13 -33q0 -14 23 -35q28 -28 28 -57q0 -32 -28.5 -58.5t-81.5 -42.5q-6 10 -6 18q0 9 7 12q42 22 42 56q0 19 -22 39q-22 22 -22 35q0 14 6 25.5t31 40.5q-159 2 -243 96t-84 241q0 61 21 119.5t61 108t105.5 79.5t146.5 30 q110 0 212 -28q2 -58 23 -145q-8 -4 -16 -4q-20 0 -23 13q-18 66 -57 94t-113 28q-122 0 -188.5 -74.5t-66.5 -200.5q0 -137 76.5 -226t185.5 -89q56 0 91.5 16t53 40.5t35.5 69.5q7 15 24 15q12 0 19 -5q-28 -80 -44 -161z" glyph-name="Ccedilla" horiz-adv-x="669" unicode="Ç"/>
<glyph d="M369 609h-148v-256h156q31 0 42 67q3 13 18 13q4 0 16 -3q-5 -48 -5 -99q0 -46 5 -97q-8 -2 -15 -2q-16 0 -19 13q-11 67 -42 67h-156v-236q0 -20 26 -27.5t90 -7.5h55q54 0 84.5 27.5t58.5 82.5q3 7 15 7q8 0 21 -9q-10 -20 -19 -60.5t-17.5 -67t-20.5 -26.5 q-8 0 -55.5 2.5t-66.5 2.5h-219q-58 0 -125 -5q-2 10 -2 16q0 14 10 16q40 7 55.5 15.5t15.5 27.5v509q0 19 -14 27t-57 16q-10 2 -10 17q0 6 2 16q71 -5 124 -5h197q36 0 78 3t44 3q15 0 20 -26t10 -64.5t17 -58.5q-8 -6 -18 -6q-13 0 -17 9q-25 56 -51 77.5t-83 21.5z M243 851l138 -109q9 -5 9 -13q0 -9 -11 -19q-92 38 -161 56q-23 6 -23 29q0 16 13 32t35 24z" glyph-name="Egrave" horiz-adv-x="605" unicode="È"/>
<glyph d="M369 609h-148v-256h156q31 0 42 67q3 13 18 13q4 0 16 -3q-5 -48 -5 -99q0 -46 5 -97q-8 -2 -15 -2q-16 0 -19 13q-11 67 -42 67h-156v-236q0 -20 26 -27.5t90 -7.5h55q54 0 84.5 27.5t58.5 82.5q3 7 15 7q8 0 21 -9q-10 -20 -19 -60.5t-17.5 -67t-20.5 -26.5 q-8 0 -55.5 2.5t-66.5 2.5h-219q-58 0 -125 -5q-2 10 -2 16q0 14 10 16q40 7 55.5 15.5t15.5 27.5v509q0 19 -14 27t-57 16q-10 2 -10 17q0 6 2 16q71 -5 124 -5h197q36 0 78 3t44 3q15 0 20 -26t10 -64.5t17 -58.5q-8 -6 -18 -6q-13 0 -17 9q-25 56 -51 77.5t-83 21.5z M221 742l139 109q22 -8 34.5 -24t12.5 -32q0 -23 -22 -29q-70 -18 -162 -56q-10 10 -10 19q0 7 8 13z" glyph-name="Eacute" horiz-adv-x="605" unicode="É"/>
<glyph d="M369 609h-148v-256h156q31 0 42 67q3 13 18 13q4 0 16 -3q-5 -48 -5 -99q0 -46 5 -97q-8 -2 -15 -2q-16 0 -19 13q-11 67 -42 67h-156v-236q0 -20 26 -27.5t90 -7.5h55q54 0 84.5 27.5t58.5 82.5q3 7 15 7q8 0 21 -9q-10 -20 -19 -60.5t-17.5 -67t-20.5 -26.5 q-8 0 -55.5 2.5t-66.5 2.5h-219q-58 0 -125 -5q-2 10 -2 16q0 14 10 16q40 7 55.5 15.5t15.5 27.5v509q0 19 -14 27t-57 16q-10 2 -10 17q0 6 2 16q71 -5 124 -5h197q36 0 78 3t44 3q15 0 20 -26t10 -64.5t17 -58.5q-8 -6 -18 -6q-13 0 -17 9q-25 56 -51 77.5t-83 21.5z M337 829l92 -89q4 -4 4 -10q0 -12 -16 -20q-73 43 -121 66q-39 -20 -113 -66q-17 8 -17 19q0 6 5 11l108 113q22 0 32.5 -4.5t25.5 -19.5z" glyph-name="Ecircumflex" horiz-adv-x="605" unicode="Ê"/>
<glyph d="M369 609h-148v-256h156q31 0 42 67q3 13 18 13q4 0 16 -3q-5 -48 -5 -99q0 -46 5 -97q-8 -2 -15 -2q-16 0 -19 13q-11 67 -42 67h-156v-236q0 -20 26 -27.5t90 -7.5h55q54 0 84.5 27.5t58.5 82.5q3 7 15 7q8 0 21 -9q-10 -20 -19 -60.5t-17.5 -67t-20.5 -26.5 q-8 0 -55.5 2.5t-66.5 2.5h-219q-58 0 -125 -5q-2 10 -2 16q0 14 10 16q40 7 55.5 15.5t15.5 27.5v509q0 19 -14 27t-57 16q-10 2 -10 17q0 6 2 16q71 -5 124 -5h197q36 0 78 3t44 3q15 0 20 -26t10 -64.5t17 -58.5q-8 -6 -18 -6q-13 0 -17 9q-25 56 -51 77.5t-83 21.5z M201 710q-24 0 -40.5 16.5t-16.5 40.5t16.5 41t40.5 17q23 0 39 -17t16 -41t-16 -40.5t-39 -16.5zM403 710q-23 0 -40 16.5t-17 40.5t17 41t40 17t39 -17t16 -41t-16 -40.5t-39 -16.5z" glyph-name="Edieresis" horiz-adv-x="605" unicode="Ë"/>
<glyph d="M216 579v-509q0 -19 13 -27t53 -16q10 -2 10 -16q0 -6 -2 -16q-68 5 -121 5q-56 0 -121 -5q-2 10 -2 16q0 14 10 16q39 7 52.5 15.5t13.5 27.5v509q0 20 -13.5 28.5t-52.5 14.5q-10 1 -10 17q0 6 2 16q67 -5 121 -5q53 0 121 5q2 -10 2 -16q0 -15 -10 -17 q-39 -6 -52.5 -15t-13.5 -28zM120 851l138 -109q9 -5 9 -13q0 -9 -11 -19q-92 38 -161 56q-23 6 -23 29q0 16 13 32t35 24z" glyph-name="Igrave" unicode="Ì"/>
<glyph d="M216 579v-509q0 -19 13 -27t53 -16q10 -2 10 -16q0 -6 -2 -16q-68 5 -121 5q-56 0 -121 -5q-2 10 -2 16q0 14 10 16q39 7 52.5 15.5t13.5 27.5v509q0 20 -13.5 28.5t-52.5 14.5q-10 1 -10 17q0 6 2 16q67 -5 121 -5q53 0 121 5q2 -10 2 -16q0 -15 -10 -17 q-39 -6 -52.5 -15t-13.5 -28zM83 742l139 109q22 -8 34.5 -24t12.5 -32q0 -23 -22 -29q-70 -18 -162 -56q-10 10 -10 19q0 7 8 13z" glyph-name="Iacute" unicode="Í"/>
<glyph d="M216 579v-509q0 -19 13 -27t53 -16q10 -2 10 -16q0 -6 -2 -16q-68 5 -121 5q-56 0 -121 -5q-2 10 -2 16q0 14 10 16q39 7 52.5 15.5t13.5 27.5v509q0 20 -13.5 28.5t-52.5 14.5q-10 1 -10 17q0 6 2 16q67 -5 121 -5q53 0 121 5q2 -10 2 -16q0 -15 -10 -17 q-39 -6 -52.5 -15t-13.5 -28zM207 829l92 -89q4 -4 4 -10q0 -12 -16 -20q-73 43 -121 66q-39 -20 -113 -66q-17 8 -17 19q0 6 5 11l108 113q22 0 32.5 -4.5t25.5 -19.5z" glyph-name="Icircumflex" unicode="Î"/>
<glyph d="M216 579v-509q0 -19 13 -27t53 -16q10 -2 10 -16q0 -6 -2 -16q-68 5 -121 5q-56 0 -121 -5q-2 10 -2 16q0 14 10 16q39 7 52.5 15.5t13.5 27.5v509q0 20 -13.5 28.5t-52.5 14.5q-10 1 -10 17q0 6 2 16q67 -5 121 -5q53 0 121 5q2 -10 2 -16q0 -15 -10 -17 q-39 -6 -52.5 -15t-13.5 -28zM70 710q-24 0 -40.5 16.5t-16.5 40.5t16.5 41t40.5 17q23 0 39 -17t16 -41t-16 -40.5t-39 -16.5zM272 710q-23 0 -40 16.5t-17 40.5t17 41t40 17t39 -17t16 -41t-16 -40.5t-39 -16.5z" glyph-name="Idieresis" unicode="Ï"/>
<glyph d="M727 325q0 -61 -21 -117.5t-61 -103.5t-106 -75.5t-148 -28.5h-205q-54 0 -122 -5q-2 10 -2 16q0 14 10 16q40 10 54.5 18t14.5 25v242h-104q-1 8 -1 19q0 26 16 26h89v222q0 19 -14 27.5t-55 15.5q-10 1 -10 17q0 6 2 16q69 -5 121 -5h205q162 0 249.5 -92t87.5 -233z M623 306q0 303 -301 303h-86v-252h195q1 -7 1 -19q0 -26 -16 -26h-180v-235q0 -21 22 -28.5t85 -7.5q148 0 214 68t66 197z" glyph-name="Eth" horiz-adv-x="772" unicode="Ð"/>
<glyph d="M204 638l359 -479v418q0 21 -15.5 30.5t-54.5 14.5q-11 1 -11 17q0 6 2 16q55 -5 100 -5q43 0 93 5q2 -10 2 -16q0 -16 -10 -17q-33 -4 -46 -13.5t-13 -29.5v-589q-6 -2 -15 -2q-13 0 -27 18l-406 535v-471q0 -19 14 -27.5t54 -15.5q10 -2 10 -16q0 -6 -2 -16 q-55 5 -98 5q-48 0 -96 -5q-2 10 -2 16q0 14 11 16q36 7 48.5 15.5t12.5 27.5v514q0 16 -12 24.5t-47 13.5q-11 2 -11 17l2 16q67 -5 104 -5q29 0 38.5 -2t15.5 -10zM227 738q51 73 98 73q21 0 57 -18q25 -12 46 -12q41 0 67 27q15 -8 15 -19q0 -4 -3 -10q-49 -69 -94 -69 q-28 0 -62 16q-32 16 -47 16q-35 0 -64 -32q-16 8 -16 19q0 5 3 9z" glyph-name="Ntilde" horiz-adv-x="721" unicode="Ñ"/>
<glyph d="M45 325q0 137 93 237t220 100q166 0 255 -97t89 -240q0 -154 -96 -245.5t-240 -91.5q-143 0 -232 93t-89 244zM389 36q94 0 153 68t59 172q0 150 -63 244t-183 94q-87 0 -147 -62.5t-60 -169.5q0 -153 64 -249.5t177 -96.5zM324 851l138 -109q9 -5 9 -13q0 -9 -11 -19 q-92 38 -161 56q-23 6 -23 29q0 16 13 32t35 24z" glyph-name="Ograve" horiz-adv-x="749" unicode="Ò"/>
<glyph d="M45 325q0 137 93 237t220 100q166 0 255 -97t89 -240q0 -154 -96 -245.5t-240 -91.5q-143 0 -232 93t-89 244zM389 36q94 0 153 68t59 172q0 150 -63 244t-183 94q-87 0 -147 -62.5t-60 -169.5q0 -153 64 -249.5t177 -96.5zM294 742l139 109q22 -8 34.5 -24t12.5 -32 q0 -23 -22 -29q-70 -18 -162 -56q-10 10 -10 19q0 7 8 13z" glyph-name="Oacute" horiz-adv-x="749" unicode="Ó"/>
<glyph d="M45 325q0 137 93 237t220 100q166 0 255 -97t89 -240q0 -154 -96 -245.5t-240 -91.5q-143 0 -232 93t-89 244zM389 36q94 0 153 68t59 172q0 150 -63 244t-183 94q-87 0 -147 -62.5t-60 -169.5q0 -153 64 -249.5t177 -96.5zM412 829l92 -89q4 -4 4 -10q0 -12 -16 -20 q-73 43 -121 66q-39 -20 -113 -66q-17 8 -17 19q0 6 5 11l108 113q22 0 32.5 -4.5t25.5 -19.5z" glyph-name="Ocircumflex" horiz-adv-x="749" unicode="Ô"/>
<glyph d="M45 325q0 137 93 237t220 100q166 0 255 -97t89 -240q0 -154 -96 -245.5t-240 -91.5q-143 0 -232 93t-89 244zM389 36q94 0 153 68t59 172q0 150 -63 244t-183 94q-87 0 -147 -62.5t-60 -169.5q0 -153 64 -249.5t177 -96.5zM240 738q51 73 98 73q21 0 57 -18 q25 -12 46 -12q41 0 67 27q15 -8 15 -19q0 -4 -3 -10q-49 -69 -94 -69q-28 0 -62 16q-32 16 -47 16q-35 0 -64 -32q-16 8 -16 19q0 5 3 9z" glyph-name="Otilde" horiz-adv-x="749" unicode="Õ"/>
<glyph d="M45 325q0 137 93 237t220 100q166 0 255 -97t89 -240q0 -154 -96 -245.5t-240 -91.5q-143 0 -232 93t-89 244zM389 36q94 0 153 68t59 172q0 150 -63 244t-183 94q-87 0 -147 -62.5t-60 -169.5q0 -153 64 -249.5t177 -96.5zM274 710q-24 0 -40.5 16.5t-16.5 40.5t16.5 41 t40.5 17q23 0 39 -17t16 -41t-16 -40.5t-39 -16.5zM476 710q-23 0 -40 16.5t-17 40.5t17 41t40 17t39 -17t16 -41t-16 -40.5t-39 -16.5z" glyph-name="Odieresis" horiz-adv-x="749" unicode="Ö"/>
<glyph d="M207 214l-155 152q23 31 38 31q5 0 10 -5l143 -142l154 155q31 -23 31 -38q0 -6 -4 -9l-144 -145l162 -160q-24 -31 -39 -31q-6 0 -10 4l-150 151l-159 -162q-32 25 -32 39q0 3 4 9z" glyph-name="multiply" horiz-adv-x="494" unicode="×"/>
<glyph d="M45 325q0 137 93 237t220 100q111 0 191 -47l46 71q31 -12 31 -24q0 -5 -5 -12l-38 -58q59 -46 89 -116t30 -151q0 -154 -96 -245.5t-240 -91.5q-87 0 -155 35l-43 -66q-31 11 -31 24q0 2 5 12l34 52q-62 43 -96.5 115.5t-34.5 164.5zM148 382q0 -170 75 -265l286 437 q-62 60 -154 60q-87 0 -147 -62.5t-60 -169.5zM389 36q94 0 153 68t59 172q0 155 -65 244l-284 -434q58 -50 137 -50z" glyph-name="Oslash" horiz-adv-x="749" unicode="Ø"/>
<glyph d="M649 579v-336q0 -122 -60.5 -188.5t-201.5 -66.5q-67 0 -116 14.5t-78 37t-46 57t-22.5 67.5t-5.5 75v340q0 20 -14 29t-53 14q-10 1 -10 17q0 6 2 16q67 -5 122 -5q59 0 126 5q2 -10 2 -16q0 -16 -10 -17q-39 -5 -55 -14t-16 -29v-318q0 -107 43 -161t139 -54 q111 0 158.5 50.5t47.5 167.5v315q0 20 -15 29t-54 14q-11 1 -11 17q0 6 2 16q63 -5 104 -5q44 0 97 5q2 -10 2 -16q0 -15 -11 -17q-37 -4 -51.5 -13.5t-14.5 -29.5zM336 851l138 -109q9 -5 9 -13q0 -9 -11 -19q-92 38 -161 56q-23 6 -23 29q0 16 13 32t35 24z" glyph-name="Ugrave" horiz-adv-x="761" unicode="Ù"/>
<glyph d="M649 579v-336q0 -122 -60.5 -188.5t-201.5 -66.5q-67 0 -116 14.5t-78 37t-46 57t-22.5 67.5t-5.5 75v340q0 20 -14 29t-53 14q-10 1 -10 17q0 6 2 16q67 -5 122 -5q59 0 126 5q2 -10 2 -16q0 -16 -10 -17q-39 -5 -55 -14t-16 -29v-318q0 -107 43 -161t139 -54 q111 0 158.5 50.5t47.5 167.5v315q0 20 -15 29t-54 14q-11 1 -11 17q0 6 2 16q63 -5 104 -5q44 0 97 5q2 -10 2 -16q0 -15 -11 -17q-37 -4 -51.5 -13.5t-14.5 -29.5zM335 742l139 109q22 -8 34.5 -24t12.5 -32q0 -23 -22 -29q-70 -18 -162 -56q-10 10 -10 19q0 7 8 13z" glyph-name="Uacute" horiz-adv-x="761" unicode="Ú"/>
<glyph d="M649 579v-336q0 -122 -60.5 -188.5t-201.5 -66.5q-67 0 -116 14.5t-78 37t-46 57t-22.5 67.5t-5.5 75v340q0 20 -14 29t-53 14q-10 1 -10 17q0 6 2 16q67 -5 122 -5q59 0 126 5q2 -10 2 -16q0 -16 -10 -17q-39 -5 -55 -14t-16 -29v-318q0 -107 43 -161t139 -54 q111 0 158.5 50.5t47.5 167.5v315q0 20 -15 29t-54 14q-11 1 -11 17q0 6 2 16q63 -5 104 -5q44 0 97 5q2 -10 2 -16q0 -15 -11 -17q-37 -4 -51.5 -13.5t-14.5 -29.5zM445 829l92 -89q4 -4 4 -10q0 -12 -16 -20q-73 43 -121 66q-39 -20 -113 -66q-17 8 -17 19q0 6 5 11 l108 113q22 0 32.5 -4.5t25.5 -19.5z" glyph-name="Ucircumflex" horiz-adv-x="761" unicode="Û"/>
<glyph d="M649 579v-336q0 -122 -60.5 -188.5t-201.5 -66.5q-67 0 -116 14.5t-78 37t-46 57t-22.5 67.5t-5.5 75v340q0 20 -14 29t-53 14q-10 1 -10 17q0 6 2 16q67 -5 122 -5q59 0 126 5q2 -10 2 -16q0 -16 -10 -17q-39 -5 -55 -14t-16 -29v-318q0 -107 43 -161t139 -54 q111 0 158.5 50.5t47.5 167.5v315q0 20 -15 29t-54 14q-11 1 -11 17q0 6 2 16q63 -5 104 -5q44 0 97 5q2 -10 2 -16q0 -15 -11 -17q-37 -4 -51.5 -13.5t-14.5 -29.5zM300 710q-24 0 -40.5 16.5t-16.5 40.5t16.5 41t40.5 17q23 0 39 -17t16 -41t-16 -40.5t-39 -16.5zM502 710 q-23 0 -40 16.5t-17 40.5t17 41t40 17t39 -17t16 -41t-16 -40.5t-39 -16.5z" glyph-name="Udieresis" horiz-adv-x="761" unicode="Ü"/>
<glyph d="M248 73v215l-167 300q-18 27 -66 34q-10 1 -10 18l2 15q48 -5 122 -5q72 0 120 5q2 -12 2 -16q0 -15 -10 -17q-52 -7 -52 -25q0 -8 7 -19l124 -224l117 208q10 18 10 28q0 22 -56 32q-11 1 -11 17l2 16q48 -5 106 -5q44 0 99 5q2 -12 2 -16q0 -14 -11 -17 q-35 -4 -49.5 -12t-24.5 -26l-162 -287v-224q0 -21 15.5 -30t56.5 -15q11 -2 11 -16l-2 -16q-83 5 -129 5l-127 -5q-2 12 -2 16q0 14 10 16q43 8 58 16.5t15 28.5zM237 742l139 109q22 -8 34.5 -24t12.5 -32q0 -23 -22 -29q-70 -18 -162 -56q-10 10 -10 19q0 7 8 13z" glyph-name="Yacute" horiz-adv-x="594" unicode="Ý"/>
<glyph d="M217 149v-79q0 -19 13 -27t52 -16q10 -2 10 -16q0 -6 -2 -16q-67 5 -120 5q-57 0 -122 -5q-2 10 -2 16q0 14 10 16q39 7 52.5 15.5t13.5 27.5v509q0 20 -13.5 28.5t-52.5 14.5q-10 1 -10 17q0 6 2 16q67 -5 121 -5t121 5q2 -10 2 -16q0 -15 -10 -17q-38 -6 -51.5 -15 t-13.5 -28v-66h88q105 0 160.5 -49.5t55.5 -132.5q0 -69 -59.5 -125.5t-156.5 -56.5h-88zM217 472v-282h53q73 0 109.5 31t36.5 102q0 149 -146 149h-53z" glyph-name="Thorn" horiz-adv-x="563" unicode="Þ"/>
<glyph d="M292 663q-87 0 -109 -93q-6 -24 -6 -52v-461q0 -18 16 -28.5t16 -17.5q0 -2 -1 -9l-1 -7q-63 5 -74 5q-52 0 -97 -5l-1 7q-1 7 -1 9q0 10 9 12q51 9 51 35v434q0 92 60.5 150t155.5 58q77 0 121.5 -29.5t44.5 -85.5q0 -24 -12 -48.5t-21 -35t-36 -40.5q-39 -42 -39 -71 q0 -40 54 -99q55 -59 68 -84t13 -51q0 -70 -56.5 -119t-136.5 -49q-22 0 -44 5.5t-22 17.5q0 22 9 40t21 18q3 0 11 -4q41 -29 68 -29q29 0 51 21.5t22 62.5q0 11 -4 23t-8 20.5t-15 22.5t-16 19.5t-20.5 22t-19.5 20.5q-56 61 -56 104q0 19 9 38t17 28.5t30 34.5 q51 55 51 112q0 53 -30 75.5t-72 22.5z" glyph-name="germandbls" horiz-adv-x="537" unicode="ß"/>
<glyph d="M452 27q11 0 12 -21q-26 -18 -66 -18q-41 0 -63 22.5t-27 55.5q-44 -78 -139 -78q-131 0 -131 102q0 35 16.5 61.5t47 43.5t57.5 26t64 17q36 7 57 14q13 4 17 11t4 27q0 108 -82 108q-33 0 -47.5 -15.5t-27.5 -56.5q-3 -10 -13 -15.5t-36 -12.5q-16 -6 -30 -6 q-10 0 -10 21q0 44 59.5 82.5t117.5 38.5q76 0 114 -30t38 -111v-172q0 -55 10 -75q12 -23 33 -23q8 0 15.5 2t9.5 2zM301 144v78l-32 -5q-62 -11 -99 -35.5t-37 -74.5q0 -37 19 -57.5t49 -20.5q40 0 70 33.5t30 81.5zM202 672l96 -148q4 -8 4 -12q0 -11 -16 -19 q-76 67 -135 106q-14 8 -14 24q0 19 18.5 34t46.5 15z" glyph-name="agrave" horiz-adv-x="473" unicode="à"/>
<glyph d="M452 27q11 0 12 -21q-26 -18 -66 -18q-41 0 -63 22.5t-27 55.5q-44 -78 -139 -78q-131 0 -131 102q0 35 16.5 61.5t47 43.5t57.5 26t64 17q36 7 57 14q13 4 17 11t4 27q0 108 -82 108q-33 0 -47.5 -15.5t-27.5 -56.5q-3 -10 -13 -15.5t-36 -12.5q-16 -6 -30 -6 q-10 0 -10 21q0 44 59.5 82.5t117.5 38.5q76 0 114 -30t38 -111v-172q0 -55 10 -75q12 -23 33 -23q8 0 15.5 2t9.5 2zM301 144v78l-32 -5q-62 -11 -99 -35.5t-37 -74.5q0 -37 19 -57.5t49 -20.5q40 0 70 33.5t30 81.5zM177 524l96 148q28 0 46.5 -15.5t18.5 -33.5 q0 -16 -14 -24q-58 -38 -135 -106q-17 9 -17 19q0 5 5 12z" glyph-name="aacute" horiz-adv-x="473" unicode="á"/>
<glyph d="M452 27q11 0 12 -21q-26 -18 -66 -18q-41 0 -63 22.5t-27 55.5q-44 -78 -139 -78q-131 0 -131 102q0 35 16.5 61.5t47 43.5t57.5 26t64 17q36 7 57 14q13 4 17 11t4 27q0 108 -82 108q-33 0 -47.5 -15.5t-27.5 -56.5q-3 -10 -13 -15.5t-36 -12.5q-16 -6 -30 -6 q-10 0 -10 21q0 44 59.5 82.5t117.5 38.5q76 0 114 -30t38 -111v-172q0 -55 10 -75q12 -23 33 -23q8 0 15.5 2t9.5 2zM301 144v78l-32 -5q-62 -11 -99 -35.5t-37 -74.5q0 -37 19 -57.5t49 -20.5q40 0 70 33.5t30 81.5zM267 644l82 -122q4 -8 4 -12q0 -11 -16 -18 q-76 68 -112 94q-16 -12 -31.5 -25.5t-38 -35.5t-34.5 -33q-17 8 -17 19q0 3 4 11l101 146q25 0 36 -4.5t22 -19.5z" glyph-name="acircumflex" horiz-adv-x="473" unicode="â"/>
<glyph d="M452 27q11 0 12 -21q-26 -18 -66 -18q-41 0 -63 22.5t-27 55.5q-44 -78 -139 -78q-131 0 -131 102q0 35 16.5 61.5t47 43.5t57.5 26t64 17q36 7 57 14q13 4 17 11t4 27q0 108 -82 108q-33 0 -47.5 -15.5t-27.5 -56.5q-3 -10 -13 -15.5t-36 -12.5q-16 -6 -30 -6 q-10 0 -10 21q0 44 59.5 82.5t117.5 38.5q76 0 114 -30t38 -111v-172q0 -55 10 -75q12 -23 33 -23q8 0 15.5 2t9.5 2zM301 144v78l-32 -5q-62 -11 -99 -35.5t-37 -74.5q0 -37 19 -57.5t49 -20.5q40 0 70 33.5t30 81.5zM99 559q50 70 97 70q23 0 52 -16q28 -14 48 -14 q37 0 64 30q16 -7 16 -19q0 -8 -3 -9q-49 -70 -93 -70q-26 0 -60 17q-29 15 -46 15q-32 0 -61 -32q-17 9 -17 19q0 4 3 9z" glyph-name="atilde" horiz-adv-x="473" unicode="ã"/>
<glyph d="M452 27q11 0 12 -21q-26 -18 -66 -18q-41 0 -63 22.5t-27 55.5q-44 -78 -139 -78q-131 0 -131 102q0 35 16.5 61.5t47 43.5t57.5 26t64 17q36 7 57 14q13 4 17 11t4 27q0 108 -82 108q-33 0 -47.5 -15.5t-27.5 -56.5q-3 -10 -13 -15.5t-36 -12.5q-16 -6 -30 -6 q-10 0 -10 21q0 44 59.5 82.5t117.5 38.5q76 0 114 -30t38 -111v-172q0 -55 10 -75q12 -23 33 -23q8 0 15.5 2t9.5 2zM301 144v78l-32 -5q-62 -11 -99 -35.5t-37 -74.5q0 -37 19 -57.5t49 -20.5q40 0 70 33.5t30 81.5zM184 583q0 -23 -15.5 -39t-37.5 -16q-23 0 -39 16 t-16 39t16 39.5t39 16.5q22 0 37.5 -16.5t15.5 -39.5zM382 583q0 -23 -15.5 -39t-38.5 -16t-39 16t-16 39t16.5 39.5t38.5 16.5t38 -16.5t16 -39.5z" glyph-name="adieresis" horiz-adv-x="473" unicode="ä"/>
<glyph d="M452 27q11 0 12 -21q-26 -18 -66 -18q-41 0 -63 22.5t-27 55.5q-44 -78 -139 -78q-131 0 -131 102q0 35 16.5 61.5t47 43.5t57.5 26t64 17q36 7 57 14q13 4 17 11t4 27q0 108 -82 108q-33 0 -47.5 -15.5t-27.5 -56.5q-3 -10 -13 -15.5t-36 -12.5q-16 -6 -30 -6 q-10 0 -10 21q0 44 59.5 82.5t117.5 38.5q76 0 114 -30t38 -111v-172q0 -55 10 -75q12 -23 33 -23q8 0 15.5 2t9.5 2zM301 144v78l-32 -5q-62 -11 -99 -35.5t-37 -74.5q0 -37 19 -57.5t49 -20.5q40 0 70 33.5t30 81.5zM135 578q0 39 27.5 63t66.5 24q36 0 63.5 -24t27.5 -63 t-27.5 -63.5t-64.5 -24.5q-38 0 -65.5 24t-27.5 64zM222 631q-15 0 -27 -13t-12 -35q0 -24 13.5 -41.5t32.5 -17.5t31 13t12 35q0 24 -13 41.5t-37 17.5z" glyph-name="aring" horiz-adv-x="473" unicode="å"/>
<glyph d="M667 102q8 0 19 -17q-67 -97 -194 -97q-118 0 -171 95q-41 -83 -127 -94q-17 -2 -35 0q-22 0 -41 4.5t-38 15t-30.5 31.5t-11.5 50q0 35 16.5 61.5t47.5 43t57 25.5t64 17q7 2 24 5t23 5t15.5 7t12.5 14t3 22q0 108 -82 108q-34 0 -48 -15t-27 -57q-3 -10 -25.5 -22 t-53.5 -12q-10 0 -10 21q0 43 59.5 82t116.5 39q106 0 137 -60q63 60 135 60q90 0 134 -52t44 -142q0 -6 -6 -6l-290 -13q0 -79 43 -130.5t112 -51.5q66 0 112 55q5 8 15 8zM301 144v78q-33 -5 -49 -8.5t-43 -12.5t-40.5 -19.5t-24.5 -30t-11 -44.5q0 -37 18.5 -56.5 t48.5 -19.5q41 0 71 32.5t30 80.5zM490 397q-50 0 -78 -38.5t-28 -101.5l188 9q15 0 15 13q0 44 -25.5 81t-71.5 37z" glyph-name="ae" horiz-adv-x="720" unicode="æ"/>
<glyph d="M235 396q-47 0 -76.5 -41.5t-29.5 -110.5q0 -95 43.5 -150t115.5 -55q43 0 91 30q9 7 15 7q5 0 11 -6.5t8 -11.5q-51 -57 -138 -68q-14 -24 -14 -35q0 -14 23 -35q28 -28 28 -57q0 -32 -28.5 -58.5t-81.5 -42.5q-6 10 -6 18q0 9 7 12q42 22 42 56q0 19 -22 39 q-22 22 -22 35q0 14 6 25.5t30 40.5q-86 0 -143 56.5t-57 159.5q0 97 67 163.5t144 66.5q72 0 117 -28t45 -68q0 -10 -28 -15.5t-42 -5.5q-11 0 -20.5 12.5t-16.5 27t-24.5 27t-43.5 12.5z" glyph-name="ccedilla" horiz-adv-x="435" unicode="ç"/>
<glyph d="M397 93q7 7 15 7q10 0 19 -17q-67 -95 -193 -95q-85 0 -142.5 55.5t-57.5 158.5q0 97 67.5 164.5t143.5 67.5q90 0 134 -52t44 -143q0 -6 -6 -6l-290 -13q0 -79 42.5 -129.5t112.5 -50.5q31 0 61 14.5t50 38.5zM235 398q-49 0 -77.5 -39t-28.5 -102l189 9q15 0 15 13 q0 44 -26 81.5t-72 37.5zM215 672l96 -148q4 -8 4 -12q0 -11 -16 -19q-76 67 -135 106q-14 8 -14 24q0 19 18.5 34t46.5 15z" glyph-name="egrave" horiz-adv-x="465" unicode="è"/>
<glyph d="M397 93q7 7 15 7q10 0 19 -17q-67 -95 -193 -95q-85 0 -142.5 55.5t-57.5 158.5q0 97 67.5 164.5t143.5 67.5q90 0 134 -52t44 -143q0 -6 -6 -6l-290 -13q0 -79 42.5 -129.5t112.5 -50.5q31 0 61 14.5t50 38.5zM235 398q-49 0 -77.5 -39t-28.5 -102l189 9q15 0 15 13 q0 44 -26 81.5t-72 37.5zM176 524l96 148q28 0 46.5 -15.5t18.5 -33.5q0 -16 -14 -24q-58 -38 -135 -106q-17 9 -17 19q0 5 5 12z" glyph-name="eacute" horiz-adv-x="465" unicode="é"/>
<glyph d="M397 93q7 7 15 7q10 0 19 -17q-67 -95 -193 -95q-85 0 -142.5 55.5t-57.5 158.5q0 97 67.5 164.5t143.5 67.5q90 0 134 -52t44 -143q0 -6 -6 -6l-290 -13q0 -79 42.5 -129.5t112.5 -50.5q31 0 61 14.5t50 38.5zM235 398q-49 0 -77.5 -39t-28.5 -102l189 9q15 0 15 13 q0 44 -26 81.5t-72 37.5zM285 644l82 -122q4 -8 4 -12q0 -11 -16 -18q-76 68 -112 94q-16 -12 -31.5 -25.5t-38 -35.5t-34.5 -33q-17 8 -17 19q0 3 4 11l101 146q25 0 36 -4.5t22 -19.5z" glyph-name="ecircumflex" horiz-adv-x="465" unicode="ê"/>
<glyph d="M397 93q7 7 15 7q10 0 19 -17q-67 -95 -193 -95q-85 0 -142.5 55.5t-57.5 158.5q0 97 67.5 164.5t143.5 67.5q90 0 134 -52t44 -143q0 -6 -6 -6l-290 -13q0 -79 42.5 -129.5t112.5 -50.5q31 0 61 14.5t50 38.5zM235 398q-49 0 -77.5 -39t-28.5 -102l189 9q15 0 15 13 q0 44 -26 81.5t-72 37.5zM201 583q0 -23 -15.5 -39t-37.5 -16q-23 0 -39 16t-16 39t16 39.5t39 16.5q22 0 37.5 -16.5t15.5 -39.5zM399 583q0 -23 -15.5 -39t-38.5 -16t-39 16t-16 39t16.5 39.5t38.5 16.5t38 -16.5t16 -39.5z" glyph-name="edieresis" horiz-adv-x="465" unicode="ë"/>
<glyph d="M142 0q-67 0 -107 -5l-1 7q-1 7 -1 9q0 10 9 12q58 10 58 35v272q0 31 -11 43.5t-45 15.5q-13 2 -13 14q0 5 2 13q42 0 75 5q12 2 27 5.5t25 5.5t15 2q14 0 14 -15q0 -6 -3 -33.5t-3 -51.5v-276q0 -15 14.5 -22.5t44.5 -12.5q8 -2 8 -12q0 -14 -2 -16q-40 5 -106 5z M114 672l96 -148q4 -8 4 -12q0 -11 -16 -19q-76 67 -135 106q-14 8 -14 24q0 19 18.5 34t46.5 15z" glyph-name="igrave" horiz-adv-x="273" unicode="ì"/>
<glyph d="M142 0q-67 0 -107 -5l-1 7q-1 7 -1 9q0 10 9 12q58 10 58 35v272q0 31 -11 43.5t-45 15.5q-13 2 -13 14q0 5 2 13q42 0 75 5q12 2 27 5.5t25 5.5t15 2q14 0 14 -15q0 -6 -3 -33.5t-3 -51.5v-276q0 -15 14.5 -22.5t44.5 -12.5q8 -2 8 -12q0 -14 -2 -16q-40 5 -106 5z M65 524l96 148q28 0 46.5 -15.5t18.5 -33.5q0 -16 -14 -24q-58 -38 -135 -106q-17 9 -17 19q0 5 5 12z" glyph-name="iacute" horiz-adv-x="273" unicode="í"/>
<glyph d="M142 0q-67 0 -107 -5l-1 7q-1 7 -1 9q0 10 9 12q58 10 58 35v272q0 31 -11 43.5t-45 15.5q-13 2 -13 14q0 5 2 13q42 0 75 5q12 2 27 5.5t25 5.5t15 2q14 0 14 -15q0 -6 -3 -33.5t-3 -51.5v-276q0 -15 14.5 -22.5t44.5 -12.5q8 -2 8 -12q0 -14 -2 -16q-40 5 -106 5z M162 644l82 -122q4 -8 4 -12q0 -11 -16 -18q-76 68 -112 94q-16 -12 -31.5 -25.5t-38 -35.5t-34.5 -33q-17 8 -17 19q0 3 4 11l101 146q25 0 36 -4.5t22 -19.5z" glyph-name="icircumflex" horiz-adv-x="273" unicode="î"/>
<glyph d="M142 0q-67 0 -107 -5l-1 7q-1 7 -1 9q0 10 9 12q58 10 58 35v272q0 31 -11 43.5t-45 15.5q-13 2 -13 14q0 5 2 13q42 0 75 5q12 2 27 5.5t25 5.5t15 2q14 0 14 -15q0 -6 -3 -33.5t-3 -51.5v-276q0 -15 14.5 -22.5t44.5 -12.5q8 -2 8 -12q0 -14 -2 -16q-40 5 -106 5z M88 583q0 -23 -15.5 -39t-37.5 -16q-23 0 -39 16t-16 39t16 39.5t39 16.5q22 0 37.5 -16.5t15.5 -39.5zM286 583q0 -23 -15.5 -39t-38.5 -16t-39 16t-16 39t16.5 39.5t38.5 16.5t38 -16.5t16 -39.5z" glyph-name="idieresis" horiz-adv-x="273" unicode="ï"/>
<glyph d="M318 409q-28 79 -77 138l-122 -65q-18 16 -18 29q0 9 10 13l102 55q-36 37 -102 85q-9 5 -9 13q0 12 10 23q95 -43 158 -91l99 54q19 -17 19 -28q0 -8 -11 -14l-73 -39q150 -129 150 -318q0 -48 -12.5 -94.5t-37 -88.5t-69.5 -68t-103 -26q-94 0 -146 57.5t-52 146.5 q0 99 65.5 164t133.5 65q42 0 85 -11zM235 378q-46 0 -75.5 -44t-29.5 -112q0 -84 35.5 -137t82.5 -53q49 0 77 44t28 136q0 69 -19 135q-44 31 -99 31z" glyph-name="eth" horiz-adv-x="492" unicode="ð"/>
<glyph d="M474 300v-243q0 -24 58 -34q9 -2 9 -12q0 -6 -2 -16q-58 5 -105 5q-49 0 -106 -5q-2 10 -2 16q0 10 9 12q55 10 55 34v196q0 56 -16 85.5t-59 29.5q-53 0 -92.5 -35t-39.5 -94v-182q0 -24 55 -34q9 -2 9 -12q0 -6 -2 -16q-58 5 -104 5q-51 0 -106 -5q-2 10 -2 16 q0 10 9 12q58 10 58 35v272q0 31 -11 43.5t-45 15.5q-13 2 -13 14q0 5 2 13q42 0 75 5q12 2 27 5.5t25 5.5t15 2q14 0 14 -15q0 -6 -3 -33.5t-3 -51.5q90 100 169 100q60 0 91 -35t31 -99zM155 559q50 70 97 70q23 0 52 -16q28 -14 48 -14q37 0 64 30q16 -7 16 -19 q0 -8 -3 -9q-49 -70 -93 -70q-26 0 -60 17q-29 15 -46 15q-32 0 -61 -32q-17 9 -17 19q0 4 3 9z" glyph-name="ntilde" horiz-adv-x="565" unicode="ñ"/>
<glyph d="M36 211q0 93 64.5 158t158.5 65q98 0 160.5 -62t62.5 -161q0 -94 -64.5 -158.5t-158.5 -64.5q-98 0 -160.5 62t-62.5 161zM130 244q0 -53 13.5 -101t46 -83t78.5 -35q56 0 88 39.5t32 103.5q0 54 -12.5 103.5t-46 87.5t-81.5 38q-55 0 -86.5 -38t-31.5 -115zM232 672 l96 -148q4 -8 4 -12q0 -11 -16 -19q-76 67 -135 106q-14 8 -14 24q0 19 18.5 34t46.5 15z" glyph-name="ograve" horiz-adv-x="517" unicode="ò"/>
<glyph d="M36 211q0 93 64.5 158t158.5 65q98 0 160.5 -62t62.5 -161q0 -94 -64.5 -158.5t-158.5 -64.5q-98 0 -160.5 62t-62.5 161zM130 244q0 -53 13.5 -101t46 -83t78.5 -35q56 0 88 39.5t32 103.5q0 54 -12.5 103.5t-46 87.5t-81.5 38q-55 0 -86.5 -38t-31.5 -115zM189 524 l96 148q28 0 46.5 -15.5t18.5 -33.5q0 -16 -14 -24q-58 -38 -135 -106q-17 9 -17 19q0 5 5 12z" glyph-name="oacute" horiz-adv-x="517" unicode="ó"/>
<glyph d="M36 211q0 93 64.5 158t158.5 65q98 0 160.5 -62t62.5 -161q0 -94 -64.5 -158.5t-158.5 -64.5q-98 0 -160.5 62t-62.5 161zM130 244q0 -53 13.5 -101t46 -83t78.5 -35q56 0 88 39.5t32 103.5q0 54 -12.5 103.5t-46 87.5t-81.5 38q-55 0 -86.5 -38t-31.5 -115zM300 644 l82 -122q4 -8 4 -12q0 -11 -16 -18q-76 68 -112 94q-16 -12 -31.5 -25.5t-38 -35.5t-34.5 -33q-17 8 -17 19q0 3 4 11l101 146q25 0 36 -4.5t22 -19.5z" glyph-name="ocircumflex" horiz-adv-x="517" unicode="ô"/>
<glyph d="M36 211q0 93 64.5 158t158.5 65q98 0 160.5 -62t62.5 -161q0 -94 -64.5 -158.5t-158.5 -64.5q-98 0 -160.5 62t-62.5 161zM130 244q0 -53 13.5 -101t46 -83t78.5 -35q56 0 88 39.5t32 103.5q0 54 -12.5 103.5t-46 87.5t-81.5 38q-55 0 -86.5 -38t-31.5 -115zM125 559 q50 70 97 70q23 0 52 -16q28 -14 48 -14q37 0 64 30q16 -7 16 -19q0 -8 -3 -9q-49 -70 -93 -70q-26 0 -60 17q-29 15 -46 15q-32 0 -61 -32q-17 9 -17 19q0 4 3 9z" glyph-name="otilde" horiz-adv-x="517" unicode="õ"/>
<glyph d="M36 211q0 93 64.5 158t158.5 65q98 0 160.5 -62t62.5 -161q0 -94 -64.5 -158.5t-158.5 -64.5q-98 0 -160.5 62t-62.5 161zM130 244q0 -53 13.5 -101t46 -83t78.5 -35q56 0 88 39.5t32 103.5q0 54 -12.5 103.5t-46 87.5t-81.5 38q-55 0 -86.5 -38t-31.5 -115zM213 583 q0 -23 -15.5 -39t-37.5 -16q-23 0 -39 16t-16 39t16 39.5t39 16.5q22 0 37.5 -16.5t15.5 -39.5zM411 583q0 -23 -15.5 -39t-38.5 -16t-39 16t-16 39t16.5 39.5t38.5 16.5t38 -16.5t16 -39.5z" glyph-name="odieresis" horiz-adv-x="517" unicode="ö"/>
<glyph d="M38 188q-1 9 -1 23q0 29 16 29h402q2 -16 2 -22q0 -30 -17 -30h-402zM182 76q0 24 18 42t43 18q24 0 40.5 -18t16.5 -42q0 -26 -16.5 -43.5t-40.5 -17.5q-26 0 -43.5 17.5t-17.5 43.5zM182 358q0 24 18 42t43 18q24 0 40.5 -18t16.5 -42q0 -26 -16.5 -43.5t-40.5 -17.5 q-26 0 -43.5 17.5t-17.5 43.5z" glyph-name="divide" horiz-adv-x="494" unicode="÷"/>
<glyph d="M37 211q0 93 64.5 158t158.5 65q71 0 122 -33l36 47q28 -7 28 -20q0 -7 -6 -13l-27 -36q70 -67 70 -168q0 -94 -65 -158.5t-158 -64.5q-66 0 -120 30l-39 -51q-28 7 -28 21q0 6 6 13l30 40q-72 61 -72 170zM131 244q0 -81 28 -138l181 242q-34 49 -91 49q-55 0 -86.5 -38 t-31.5 -115zM389 168q0 81 -28 143l-180 -241q35 -45 88 -45q55 0 87.5 40t32.5 103z" glyph-name="oslash" horiz-adv-x="520" unicode="ø"/>
<glyph d="M90 122v208q0 34 -9.5 45t-43.5 14q-13 2 -13 13q0 6 2 14q41 0 71 6q15 2 36.5 7t26.5 5q14 0 14 -15v-250q0 -56 16 -85.5t59 -29.5q54 0 93 35t39 95v146q0 32 -10 44t-44 15q-13 2 -13 13q0 6 2 14q40 0 72 6q15 2 36 7t26 5q14 0 14 -15v-325q0 -33 10 -44.5 t44 -14.5q13 -2 13 -13q0 -6 -2 -14q-30 0 -80 -9t-54 -9q-14 0 -14 15v83q-1 -1 -12 -13t-25.5 -25.5t-34.5 -28t-45.5 -24t-51.5 -9.5q-60 0 -91 35t-31 99zM230 672l96 -148q4 -8 4 -12q0 -11 -16 -19q-76 67 -135 106q-14 8 -14 24q0 19 18.5 34t46.5 15z" glyph-name="ugrave" horiz-adv-x="559" unicode="ù"/>
<glyph d="M90 122v208q0 34 -9.5 45t-43.5 14q-13 2 -13 13q0 6 2 14q41 0 71 6q15 2 36.5 7t26.5 5q14 0 14 -15v-250q0 -56 16 -85.5t59 -29.5q54 0 93 35t39 95v146q0 32 -10 44t-44 15q-13 2 -13 13q0 6 2 14q40 0 72 6q15 2 36 7t26 5q14 0 14 -15v-325q0 -33 10 -44.5 t44 -14.5q13 -2 13 -13q0 -6 -2 -14q-30 0 -80 -9t-54 -9q-14 0 -14 15v83q-1 -1 -12 -13t-25.5 -25.5t-34.5 -28t-45.5 -24t-51.5 -9.5q-60 0 -91 35t-31 99zM218 524l96 148q28 0 46.5 -15.5t18.5 -33.5q0 -16 -14 -24q-58 -38 -135 -106q-17 9 -17 19q0 5 5 12z" glyph-name="uacute" horiz-adv-x="559" unicode="ú"/>
<glyph d="M90 122v208q0 34 -9.5 45t-43.5 14q-13 2 -13 13q0 6 2 14q41 0 71 6q15 2 36.5 7t26.5 5q14 0 14 -15v-250q0 -56 16 -85.5t59 -29.5q54 0 93 35t39 95v146q0 32 -10 44t-44 15q-13 2 -13 13q0 6 2 14q40 0 72 6q15 2 36 7t26 5q14 0 14 -15v-325q0 -33 10 -44.5 t44 -14.5q13 -2 13 -13q0 -6 -2 -14q-30 0 -80 -9t-54 -9q-14 0 -14 15v83q-1 -1 -12 -13t-25.5 -25.5t-34.5 -28t-45.5 -24t-51.5 -9.5q-60 0 -91 35t-31 99zM308 644l82 -122q4 -8 4 -12q0 -11 -16 -18q-76 68 -112 94q-16 -12 -31.5 -25.5t-38 -35.5t-34.5 -33 q-17 8 -17 19q0 3 4 11l101 146q25 0 36 -4.5t22 -19.5z" glyph-name="ucircumflex" horiz-adv-x="559" unicode="û"/>
<glyph d="M90 122v208q0 34 -9.5 45t-43.5 14q-13 2 -13 13q0 6 2 14q41 0 71 6q15 2 36.5 7t26.5 5q14 0 14 -15v-250q0 -56 16 -85.5t59 -29.5q54 0 93 35t39 95v146q0 32 -10 44t-44 15q-13 2 -13 13q0 6 2 14q40 0 72 6q15 2 36 7t26 5q14 0 14 -15v-325q0 -33 10 -44.5 t44 -14.5q13 -2 13 -13q0 -6 -2 -14q-30 0 -80 -9t-54 -9q-14 0 -14 15v83q-1 -1 -12 -13t-25.5 -25.5t-34.5 -28t-45.5 -24t-51.5 -9.5q-60 0 -91 35t-31 99zM229 583q0 -23 -15.5 -39t-37.5 -16q-23 0 -39 16t-16 39t16 39.5t39 16.5q22 0 37.5 -16.5t15.5 -39.5zM427 583 q0 -23 -15.5 -39t-38.5 -16t-39 16t-16 39t16.5 39.5t38.5 16.5t38 -16.5t16 -39.5z" glyph-name="udieresis" horiz-adv-x="559" unicode="ü"/>
<glyph d="M184 303l88 -194q12 29 42 98.5t45 108.5t15 56q0 12 -25.5 21t-25.5 19q0 1 3 13q39 -3 83 -3q42 0 72 3q3 -6 3 -13q0 -11 -13 -14q-29 -7 -37.5 -14t-20.5 -36l-205 -484q-20 -48 -60 -76t-86 -28q-15 0 -15 15q0 24 11 47t25 23q5 0 14.5 -1.5t14.5 -1.5 q26 0 39.5 10t23.5 34l51 119l-154 343q-13 28 -22.5 36t-35.5 13q-13 3 -13 15q0 7 3 13q39 -3 87 -3h29q45 0 87 3q3 -6 3 -13q0 -12 -13 -13q-39 -6 -39 -21q0 -20 26 -75zM238 524l96 148q28 0 46.5 -15.5t18.5 -33.5q0 -16 -14 -24q-58 -38 -135 -106q-17 9 -17 19 q0 5 5 12z" glyph-name="yacute" horiz-adv-x="486" unicode="ý"/>
<glyph d="M191 257v-177q54 -57 123 -57q56 0 86.5 47.5t30.5 124.5q0 79 -34.5 134t-91.5 55q-40 0 -77 -41t-37 -86zM191 593v-251q71 92 160 92q71 0 122.5 -58t51.5 -156q0 -102 -68.5 -167t-139.5 -65q-65 0 -126 27v-181q0 -24 21.5 -34t76.5 -16q11 -2 11 -13q0 -6 -2 -16 q-72 5 -138 5q-53 0 -110 -5q-2 10 -2 16q0 10 9 12q50 10 50 35v778q0 32 -12 43.5t-47 14.5q-13 2 -13 14q0 6 2 14q36 0 78 5q16 2 39 7.5t28 5.5q15 0 15 -15q0 -9 -3 -39.5t-3 -52.5z" glyph-name="thorn" horiz-adv-x="562" unicode="þ"/>
<glyph d="M184 303l88 -194q12 29 42 98.5t45 108.5t15 56q0 12 -25.5 21t-25.5 19q0 1 3 13q39 -3 83 -3q42 0 72 3q3 -6 3 -13q0 -11 -13 -14q-29 -7 -37.5 -14t-20.5 -36l-205 -484q-20 -48 -60 -76t-86 -28q-15 0 -15 15q0 24 11 47t25 23q5 0 14.5 -1.5t14.5 -1.5 q26 0 39.5 10t23.5 34l51 119l-154 343q-13 28 -22.5 36t-35.5 13q-13 3 -13 15q0 7 3 13q39 -3 87 -3h29q45 0 87 3q3 -6 3 -13q0 -12 -13 -13q-39 -6 -39 -21q0 -20 26 -75zM226 583q0 -23 -15.5 -39t-37.5 -16q-23 0 -39 16t-16 39t16 39.5t39 16.5q22 0 37.5 -16.5 t15.5 -39.5zM424 583q0 -23 -15.5 -39t-38.5 -16t-39 16t-16 39t16.5 39.5t38.5 16.5t38 -16.5t16 -39.5z" glyph-name="ydieresis" horiz-adv-x="486" unicode="ÿ"/>
<glyph d="M492 73l-63 165h-223l-64 -161q-5 -12 -5 -20q0 -21 61 -30q12 -1 12 -16q0 -6 -2 -16q-60 5 -116 5q-46 0 -85 -5q-2 8 -2 16q0 17 13 18q58 10 69 36l241 580q7 17 19 17q4 0 12 -2l242 -598q10 -24 68 -33q13 -3 13 -18q0 -6 -2 -16q-70 5 -121 5q-66 0 -129 -5 q-2 10 -2 16q0 16 10 16q58 10 58 31q0 6 -4 15zM223 279h190l-93 245zM481 793q5 -23 5 -31q0 -23 -23 -23h-251q-4 19 -4 32t5.5 17.5t16.5 4.5h251z" glyph-name="Amacron" horiz-adv-x="687" unicode="Ā"/>
<glyph d="M452 27q11 0 12 -21q-26 -18 -66 -18q-41 0 -63 22.5t-27 55.5q-44 -78 -139 -78q-131 0 -131 102q0 35 16.5 61.5t47 43.5t57.5 26t64 17q36 7 57 14q13 4 17 11t4 27q0 108 -82 108q-33 0 -47.5 -15.5t-27.5 -56.5q-3 -10 -13 -15.5t-36 -12.5q-16 -6 -30 -6 q-10 0 -10 21q0 44 59.5 82.5t117.5 38.5q76 0 114 -30t38 -111v-172q0 -55 10 -75q12 -23 33 -23q8 0 15.5 2t9.5 2zM301 144v78l-32 -5q-62 -11 -99 -35.5t-37 -74.5q0 -37 19 -57.5t49 -20.5q40 0 70 33.5t30 81.5zM348 552h-251q-5 22 -5 31q0 22 23 22h251q4 -17 4 -31 t-5.5 -18t-16.5 -4z" glyph-name="amacron" horiz-adv-x="473" unicode="ā"/>
<glyph d="M492 73l-63 165h-223l-64 -161q-5 -12 -5 -20q0 -21 61 -30q12 -1 12 -16q0 -6 -2 -16q-60 5 -116 5q-46 0 -85 -5q-2 8 -2 16q0 17 13 18q58 10 69 36l241 580q7 17 19 17q4 0 12 -2l242 -598q10 -24 68 -33q13 -3 13 -18q0 -6 -2 -16q-70 5 -121 5q-66 0 -129 -5 q-2 10 -2 16q0 16 10 16q58 10 58 31q0 6 -4 15zM223 279h190l-93 245zM234 853q42 -76 124 -76q31 0 62 19t52 57q22 -4 22 -16q0 -3 -2 -7q-16 -54 -56 -87t-83 -33q-47 0 -84.5 29t-53.5 85q-2 8 -2 12q0 13 21 17z" glyph-name="Abreve" horiz-adv-x="687" unicode="Ă"/>
<glyph d="M452 27q11 0 12 -21q-26 -18 -66 -18q-41 0 -63 22.5t-27 55.5q-44 -78 -139 -78q-131 0 -131 102q0 35 16.5 61.5t47 43.5t57.5 26t64 17q36 7 57 14q13 4 17 11t4 27q0 108 -82 108q-33 0 -47.5 -15.5t-27.5 -56.5q-3 -10 -13 -15.5t-36 -12.5q-16 -6 -30 -6 q-10 0 -10 21q0 44 59.5 82.5t117.5 38.5q76 0 114 -30t38 -111v-172q0 -55 10 -75q12 -23 33 -23q8 0 15.5 2t9.5 2zM301 144v78l-32 -5q-62 -11 -99 -35.5t-37 -74.5q0 -37 19 -57.5t49 -20.5q40 0 70 33.5t30 81.5zM242 574q64 0 110 81q22 -4 22 -16q0 -4 -2 -10 q-17 -53 -54.5 -86.5t-80.5 -33.5q-47 0 -84.5 32t-51.5 91q0 1 -1 4v2q0 13 22 17q44 -81 120 -81z" glyph-name="abreve" horiz-adv-x="473" unicode="ă"/>
<glyph d="M492 73l-63 165h-223l-64 -161q-5 -12 -5 -20q0 -21 61 -30q12 -1 12 -16q0 -6 -2 -16q-60 5 -116 5q-46 0 -85 -5q-2 8 -2 16q0 17 13 18q58 10 69 36l241 580q7 17 19 17q4 0 12 -2l242 -598q10 -24 68 -33q13 -3 13 -18q0 -6 -2 -16q-70 5 -127 5q-56 0 -92.5 -41.5 t-36.5 -92.5q0 -47 41 -47q13 0 26 4.5t17 4.5q11 0 12 -21q-46 -33 -92 -33q-33 0 -53 17.5t-20 53.5q0 68 99 152q5 4 16.5 13t15.5 13t8 11t4 14q0 10 -6 25zM223 279h190l-93 245z" glyph-name="Aogonek" horiz-adv-x="687" unicode="Ą"/>
<glyph d="M452 27q11 0 12 -21q-10 -7 -36 -20q-36 -19 -53.5 -53t-17.5 -67q0 -47 41 -47q12 0 25.5 4.5t17.5 4.5q11 0 12 -21q-46 -33 -92 -33q-33 0 -53 17.5t-20 53.5q0 68 91 145q-62 10 -71 76q-44 -78 -139 -78q-131 0 -131 102q0 35 16.5 61.5t47 43.5t57.5 26t64 17 q36 7 57 14q13 4 17 11t4 27q0 108 -82 108q-33 0 -47.5 -15.5t-27.5 -56.5q-3 -10 -13 -15.5t-36 -12.5q-16 -6 -30 -6q-10 0 -10 21q0 44 59.5 82.5t117.5 38.5q76 0 114 -30t38 -111v-172q0 -55 10 -75q12 -23 33 -23q8 0 15.5 2t9.5 2zM301 144v78l-32 -5 q-62 -11 -99 -35.5t-37 -74.5q0 -37 19 -57.5t49 -20.5q40 0 70 33.5t30 81.5z" glyph-name="aogonek" horiz-adv-x="473" unicode="ą"/>
<glyph d="M379 -12q-162 0 -248 94t-86 243q0 61 21 119.5t61 108t105.5 79.5t146.5 30q110 0 212 -28q2 -58 23 -145q-8 -4 -16 -4q-20 0 -23 13q-18 66 -57 94t-113 28q-122 0 -188.5 -74.5t-66.5 -200.5q0 -137 76.5 -226t185.5 -89q56 0 91.5 16t53 40.5t35.5 69.5q7 15 24 15 q12 0 19 -5q-28 -80 -44 -161q-100 -17 -212 -17zM320 742l139 109q22 -8 34.5 -24t12.5 -32q0 -23 -22 -29q-70 -18 -162 -56q-10 10 -10 19q0 7 8 13z" glyph-name="Cacute" horiz-adv-x="669" unicode="Ć"/>
<glyph d="M235 396q-47 0 -76.5 -41.5t-29.5 -110.5q0 -95 43.5 -150t115.5 -55q43 0 91 30q9 7 15 7q5 0 11 -6.5t8 -11.5q-61 -70 -175 -70q-86 0 -143.5 56.5t-57.5 159.5q0 97 67 163.5t144 66.5q72 0 117 -28t45 -68q0 -10 -28 -15.5t-42 -5.5q-11 0 -20.5 12.5t-16.5 27 t-24.5 27t-43.5 12.5zM187 524l96 148q28 0 46.5 -15.5t18.5 -33.5q0 -16 -14 -24q-58 -38 -135 -106q-17 9 -17 19q0 5 5 12z" glyph-name="cacute" horiz-adv-x="435" unicode="ć"/>
<glyph d="M379 -12q-162 0 -248 94t-86 243q0 61 21 119.5t61 108t105.5 79.5t146.5 30q110 0 212 -28q2 -58 23 -145q-8 -4 -16 -4q-20 0 -23 13q-18 66 -57 94t-113 28q-122 0 -188.5 -74.5t-66.5 -200.5q0 -137 76.5 -226t185.5 -89q56 0 91.5 16t53 40.5t35.5 69.5q7 15 24 15 q12 0 19 -5q-28 -80 -44 -161q-100 -17 -212 -17zM415 829l92 -89q4 -4 4 -10q0 -12 -16 -20q-73 43 -121 66q-39 -20 -113 -66q-17 8 -17 19q0 6 5 11l108 113q22 0 32.5 -4.5t25.5 -19.5z" glyph-name="Ccircumflex" horiz-adv-x="669" unicode="Ĉ"/>
<glyph d="M235 396q-47 0 -76.5 -41.5t-29.5 -110.5q0 -95 43.5 -150t115.5 -55q43 0 91 30q9 7 15 7q5 0 11 -6.5t8 -11.5q-61 -70 -175 -70q-86 0 -143.5 56.5t-57.5 159.5q0 97 67 163.5t144 66.5q72 0 117 -28t45 -68q0 -10 -28 -15.5t-42 -5.5q-11 0 -20.5 12.5t-16.5 27 t-24.5 27t-43.5 12.5zM286 644l82 -122q4 -8 4 -12q0 -11 -16 -18q-76 68 -112 94q-16 -12 -31.5 -25.5t-38 -35.5t-34.5 -33q-17 8 -17 19q0 3 4 11l101 146q25 0 36 -4.5t22 -19.5z" glyph-name="ccircumflex" horiz-adv-x="435" unicode="ĉ"/>
<glyph d="M379 -12q-162 0 -248 94t-86 243q0 61 21 119.5t61 108t105.5 79.5t146.5 30q110 0 212 -28q2 -58 23 -145q-8 -4 -16 -4q-20 0 -23 13q-18 66 -57 94t-113 28q-122 0 -188.5 -74.5t-66.5 -200.5q0 -137 76.5 -226t185.5 -89q56 0 91.5 16t53 40.5t35.5 69.5q7 15 24 15 q12 0 19 -5q-28 -80 -44 -161q-100 -17 -212 -17zM335 775q0 24 17 41.5t41 17.5t40 -17.5t16 -41.5q0 -25 -16 -41.5t-40 -16.5q-25 0 -41.5 16.5t-16.5 41.5z" glyph-name="Cdotaccent" horiz-adv-x="669" unicode="Ċ"/>
<glyph d="M235 396q-47 0 -76.5 -41.5t-29.5 -110.5q0 -95 43.5 -150t115.5 -55q43 0 91 30q9 7 15 7q5 0 11 -6.5t8 -11.5q-61 -70 -175 -70q-86 0 -143.5 56.5t-57.5 159.5q0 97 67 163.5t144 66.5q72 0 117 -28t45 -68q0 -10 -28 -15.5t-42 -5.5q-11 0 -20.5 12.5t-16.5 27 t-24.5 27t-43.5 12.5zM200 601q0 24 17 41.5t41 17.5t40 -17.5t16 -41.5q0 -25 -16 -41.5t-40 -16.5q-25 0 -41.5 16.5t-16.5 41.5z" glyph-name="cdotaccent" horiz-adv-x="435" unicode="ċ"/>
<glyph d="M379 -12q-162 0 -248 94t-86 243q0 61 21 119.5t61 108t105.5 79.5t146.5 30q110 0 212 -28q2 -58 23 -145q-8 -4 -16 -4q-20 0 -23 13q-18 66 -57 94t-113 28q-122 0 -188.5 -74.5t-66.5 -200.5q0 -137 76.5 -226t185.5 -89q56 0 91.5 16t53 40.5t35.5 69.5q7 15 24 15 q12 0 19 -5q-28 -80 -44 -161q-100 -17 -212 -17zM355 734l-92 89q-4 4 -4 10q0 12 16 20q73 -43 121 -66q39 20 113 66q17 -9 17 -19q0 -6 -5 -11l-108 -113q-22 0 -32.5 4.5t-25.5 19.5z" glyph-name="Ccaron" horiz-adv-x="669" unicode="Č"/>
<glyph d="M235 396q-47 0 -76.5 -41.5t-29.5 -110.5q0 -95 43.5 -150t115.5 -55q43 0 91 30q9 7 15 7q5 0 11 -6.5t8 -11.5q-61 -70 -175 -70q-86 0 -143.5 56.5t-57.5 159.5q0 97 67 163.5t144 66.5q72 0 117 -28t45 -68q0 -10 -28 -15.5t-42 -5.5q-11 0 -20.5 12.5t-16.5 27 t-24.5 27t-43.5 12.5zM215 516l-85 122q-4 8 -4 12q0 11 16 18q65 -59 115 -94q32 25 103 94q17 -8 17 -19q0 -3 -4 -11l-100 -146q-25 0 -36 4.5t-22 19.5z" glyph-name="ccaron" horiz-adv-x="435" unicode="č"/>
<glyph d="M607 306q0 303 -300 303h-87v-532q0 -21 22 -28.5t86 -7.5q148 0 213.5 68t65.5 197zM712 325q0 -61 -21 -117.5t-61 -103.5t-106 -75.5t-148 -28.5h-205q-55 0 -123 -5q-2 10 -2 16q0 14 11 16q40 10 54.5 18t14.5 25v509q0 19 -14.5 27.5t-54.5 15.5q-11 1 -11 17 q0 6 2 16q69 -5 122 -5h205q162 0 249.5 -92t87.5 -233zM341 734l-92 89q-4 4 -4 10q0 12 16 20q73 -43 121 -66q39 20 113 66q17 -9 17 -19q0 -6 -5 -11l-108 -113q-22 0 -32.5 4.5t-25.5 19.5z" glyph-name="Dcaron" horiz-adv-x="757" unicode="Ď"/>
<glyph d="M542 509l-9 186q25 16 47 15t33 -15q7 -12 3 -28q-17 -58 -41 -176q-24 -3 -29 5q-4 4 -4 13zM452 592v-503q0 -25 10.5 -35.5t43.5 -14.5q13 -2 13 -13q0 -6 -2 -14q-38 0 -71 -5q-12 -2 -26 -5.5t-23.5 -5.5t-13.5 -2q-14 0 -14 15v76q-23 -32 -38.5 -49t-48 -32.5 t-74.5 -15.5q-71 0 -122 58t-51 156q0 102 68.5 167t139.5 65q62 0 126 -27v189q0 31 -11 43t-45 15q-13 2 -13 14q0 6 2 14q42 0 75 5q16 2 39 7.5t28 5.5q14 0 14 -15q0 -9 -3 -39t-3 -54zM369 169v173q-53 56 -123 56q-56 0 -86.5 -47t-30.5 -124q0 -79 34.5 -134 t91.5 -55q40 0 77 42.5t37 88.5z" glyph-name="dcaron" horiz-adv-x="598" unicode="ď"/>
<glyph d="M727 325q0 -61 -21 -117.5t-61 -103.5t-106 -75.5t-148 -28.5h-205q-54 0 -122 -5q-2 10 -2 16q0 14 10 16q40 10 54.5 18t14.5 25v242h-104q-1 8 -1 19q0 26 16 26h89v222q0 19 -14 27.5t-55 15.5q-10 1 -10 17q0 6 2 16q69 -5 121 -5h205q162 0 249.5 -92t87.5 -233z M623 306q0 303 -301 303h-86v-252h195q1 -7 1 -19q0 -26 -16 -26h-180v-235q0 -21 22 -28.5t85 -7.5q148 0 214 68t66 197z" glyph-name="Dcroat" horiz-adv-x="772" unicode="Đ"/>
<glyph d="M452 592v-36h68q5 -15 5 -23q0 -18 -18 -18h-55v-426q0 -25 10.5 -35.5t43.5 -14.5q13 -2 13 -13q0 -6 -2 -14q-38 0 -71 -5q-12 -2 -26 -5.5t-23.5 -5.5t-13.5 -2q-14 0 -14 15v76q-23 -32 -38.5 -49t-48 -32.5t-74.5 -15.5q-71 0 -122 58t-51 156q0 102 68.5 167 t139.5 65q62 0 126 -27v108h-158q-5 11 -5 23q0 18 18 18h145v40q0 31 -11 43t-45 15q-13 2 -13 14q0 6 2 14q42 0 75 5q16 2 39 7.5t28 5.5q14 0 14 -15q0 -9 -3 -39t-3 -54zM369 169v173q-53 56 -123 56q-56 0 -86.5 -47t-30.5 -124q0 -79 34.5 -134t91.5 -55 q40 0 77 42.5t37 88.5z" glyph-name="dcroat" horiz-adv-x="546" unicode="đ"/>
<glyph d="M369 609h-148v-256h156q31 0 42 67q3 13 18 13q4 0 16 -3q-5 -48 -5 -99q0 -46 5 -97q-8 -2 -15 -2q-16 0 -19 13q-11 67 -42 67h-156v-236q0 -20 26 -27.5t90 -7.5h55q54 0 84.5 27.5t58.5 82.5q3 7 15 7q8 0 21 -9q-10 -20 -19 -60.5t-17.5 -67t-20.5 -26.5 q-8 0 -55.5 2.5t-66.5 2.5h-219q-58 0 -125 -5q-2 10 -2 16q0 14 10 16q40 7 55.5 15.5t15.5 27.5v509q0 19 -14 27t-57 16q-10 2 -10 17q0 6 2 16q71 -5 124 -5h197q36 0 78 3t44 3q15 0 20 -26t10 -64.5t17 -58.5q-8 -6 -18 -6q-13 0 -17 9q-25 56 -51 77.5t-83 21.5z M438 793q5 -23 5 -31q0 -23 -23 -23h-251q-4 19 -4 32t5.5 17.5t16.5 4.5h251z" glyph-name="Emacron" horiz-adv-x="605" unicode="Ē"/>
<glyph d="M397 93q7 7 15 7q10 0 19 -17q-67 -95 -193 -95q-85 0 -142.5 55.5t-57.5 158.5q0 97 67.5 164.5t143.5 67.5q90 0 134 -52t44 -143q0 -6 -6 -6l-290 -13q0 -79 42.5 -129.5t112.5 -50.5q31 0 61 14.5t50 38.5zM235 398q-49 0 -77.5 -39t-28.5 -102l189 9q15 0 15 13 q0 44 -26 81.5t-72 37.5zM362 552h-251q-5 22 -5 31q0 22 23 22h251q4 -17 4 -31t-5.5 -18t-16.5 -4z" glyph-name="emacron" horiz-adv-x="465" unicode="ē"/>
<glyph d="M369 609h-148v-256h156q31 0 42 67q3 13 18 13q4 0 16 -3q-5 -48 -5 -99q0 -46 5 -97q-8 -2 -15 -2q-16 0 -19 13q-11 67 -42 67h-156v-236q0 -20 26 -27.5t90 -7.5h55q54 0 84.5 27.5t58.5 82.5q3 7 15 7q8 0 21 -9q-10 -20 -19 -60.5t-17.5 -67t-20.5 -26.5 q-8 0 -55.5 2.5t-66.5 2.5h-219q-58 0 -125 -5q-2 10 -2 16q0 14 10 16q40 7 55.5 15.5t15.5 27.5v509q0 19 -14 27t-57 16q-10 2 -10 17q0 6 2 16q71 -5 124 -5h197q36 0 78 3t44 3q15 0 20 -26t10 -64.5t17 -58.5q-8 -6 -18 -6q-13 0 -17 9q-25 56 -51 77.5t-83 21.5z M188 853q42 -76 124 -76q31 0 62 19t52 57q22 -4 22 -16q0 -3 -2 -7q-16 -54 -56 -87t-83 -33q-47 0 -84.5 29t-53.5 85q-2 8 -2 12q0 13 21 17z" glyph-name="Ebreve" horiz-adv-x="605" unicode="Ĕ"/>
<glyph d="M397 93q7 7 15 7q10 0 19 -17q-67 -95 -193 -95q-85 0 -142.5 55.5t-57.5 158.5q0 97 67.5 164.5t143.5 67.5q90 0 134 -52t44 -143q0 -6 -6 -6l-290 -13q0 -79 42.5 -129.5t112.5 -50.5q31 0 61 14.5t50 38.5zM235 398q-49 0 -77.5 -39t-28.5 -102l189 9q15 0 15 13 q0 44 -26 81.5t-72 37.5zM261 574q64 0 110 81q22 -4 22 -16q0 -4 -2 -10q-17 -53 -54.5 -86.5t-80.5 -33.5q-47 0 -84.5 32t-51.5 91v4l-1 2q0 13 22 17q44 -81 120 -81z" glyph-name="ebreve" horiz-adv-x="465" unicode="ĕ"/>
<glyph d="M369 609h-148v-256h156q31 0 42 67q3 13 18 13q4 0 16 -3q-5 -48 -5 -99q0 -46 5 -97q-8 -2 -15 -2q-16 0 -19 13q-11 67 -42 67h-156v-236q0 -20 26 -27.5t90 -7.5h55q54 0 84.5 27.5t58.5 82.5q3 7 15 7q8 0 21 -9q-10 -20 -19 -60.5t-17.5 -67t-20.5 -26.5 q-8 0 -55.5 2.5t-66.5 2.5h-219q-58 0 -125 -5q-2 10 -2 16q0 14 10 16q40 7 55.5 15.5t15.5 27.5v509q0 19 -14 27t-57 16q-10 2 -10 17q0 6 2 16q71 -5 124 -5h197q36 0 78 3t44 3q15 0 20 -26t10 -64.5t17 -58.5q-8 -6 -18 -6q-13 0 -17 9q-25 56 -51 77.5t-83 21.5z M259 775q0 24 17 41.5t41 17.5t40 -17.5t16 -41.5q0 -25 -16 -41.5t-40 -16.5q-25 0 -41.5 16.5t-16.5 41.5z" glyph-name="Edotaccent" horiz-adv-x="605" unicode="Ė"/>
<glyph d="M397 93q7 7 15 7q10 0 19 -17q-67 -95 -193 -95q-85 0 -142.5 55.5t-57.5 158.5q0 97 67.5 164.5t143.5 67.5q90 0 134 -52t44 -143q0 -6 -6 -6l-290 -13q0 -79 42.5 -129.5t112.5 -50.5q31 0 61 14.5t50 38.5zM235 398q-49 0 -77.5 -39t-28.5 -102l189 9q15 0 15 13 q0 44 -26 81.5t-72 37.5zM192 601q0 24 17 41.5t41 17.5t40 -17.5t16 -41.5q0 -25 -16 -41.5t-40 -16.5q-25 0 -41.5 16.5t-16.5 41.5z" glyph-name="edotaccent" horiz-adv-x="465" unicode="ė"/>
<glyph d="M369 609h-148v-256h156q31 0 42 67q3 13 18 13q4 0 16 -3q-5 -48 -5 -99q0 -46 5 -97q-8 -2 -15 -2q-16 0 -19 13q-11 67 -42 67h-156v-236q0 -20 26 -27.5t90 -7.5h55q54 0 84.5 27.5t58.5 82.5q3 7 15 7q8 0 21 -9q-10 -20 -18 -59.5t-16.5 -66t-22.5 -28.5 q-41 -5 -68 -49.5t-27 -79.5q0 -47 41 -47q12 0 26 4.5t17 4.5q11 0 12 -21q-46 -33 -92 -33q-33 0 -53 17.5t-20 53.5q0 26 18 57t35 49.5t47 46.5q-42 2 -58 2h-219q-58 0 -125 -5q-2 10 -2 16q0 14 10 16q40 7 55.5 15.5t15.5 27.5v509q0 19 -14 27t-57 16q-10 2 -10 17 q0 6 2 16q71 -5 124 -5h197q36 0 78 3t44 3q15 0 20 -26t10 -64.5t17 -58.5q-8 -6 -18 -6q-13 0 -17 9q-25 56 -51 77.5t-83 21.5z" glyph-name="Eogonek" horiz-adv-x="605" unicode="Ę"/>
<glyph d="M397 93q7 7 15 7q10 0 19 -17q-33 -46 -97 -83q-41 -24 -63.5 -61.5t-22.5 -72.5q0 -47 41 -47q13 0 26 4.5t17 4.5q11 0 12 -21q-46 -33 -92 -33q-33 0 -53 17.5t-20 53.5q0 25 16 53.5t32.5 46.5t43.5 45q-22 -2 -33 -2q-85 0 -142.5 55.5t-57.5 158.5q0 97 67.5 164.5 t143.5 67.5q90 0 134 -52t44 -143q0 -6 -6 -6l-290 -13q0 -79 42.5 -129.5t112.5 -50.5q31 0 61 14.5t50 38.5zM235 398q-49 0 -77.5 -39t-28.5 -102l189 9q15 0 15 13q0 44 -26 81.5t-72 37.5z" glyph-name="eogonek" horiz-adv-x="465" unicode="ę"/>
<glyph d="M369 609h-148v-256h156q31 0 42 67q3 13 18 13q4 0 16 -3q-5 -48 -5 -99q0 -46 5 -97q-8 -2 -15 -2q-16 0 -19 13q-11 67 -42 67h-156v-236q0 -20 26 -27.5t90 -7.5h55q54 0 84.5 27.5t58.5 82.5q3 7 15 7q8 0 21 -9q-10 -20 -19 -60.5t-17.5 -67t-20.5 -26.5 q-8 0 -55.5 2.5t-66.5 2.5h-219q-58 0 -125 -5q-2 10 -2 16q0 14 10 16q40 7 55.5 15.5t15.5 27.5v509q0 19 -14 27t-57 16q-10 2 -10 17q0 6 2 16q71 -5 124 -5h197q36 0 78 3t44 3q15 0 20 -26t10 -64.5t17 -58.5q-8 -6 -18 -6q-13 0 -17 9q-25 56 -51 77.5t-83 21.5z M283 734l-92 89q-4 4 -4 10q0 12 16 20q73 -43 121 -66q39 20 113 66q17 -9 17 -19q0 -6 -5 -11l-108 -113q-22 0 -32.5 4.5t-25.5 19.5z" glyph-name="Ecaron" horiz-adv-x="605" unicode="Ě"/>
<glyph d="M397 93q7 7 15 7q10 0 19 -17q-67 -95 -193 -95q-85 0 -142.5 55.5t-57.5 158.5q0 97 67.5 164.5t143.5 67.5q90 0 134 -52t44 -143q0 -6 -6 -6l-290 -13q0 -79 42.5 -129.5t112.5 -50.5q31 0 61 14.5t50 38.5zM235 398q-49 0 -77.5 -39t-28.5 -102l189 9q15 0 15 13 q0 44 -26 81.5t-72 37.5zM214 516l-85 122q-4 8 -4 12q0 11 16 18q65 -59 115 -94q32 25 103 94q17 -8 17 -19q0 -3 -4 -11l-100 -146q-25 0 -36 4.5t-22 19.5z" glyph-name="ecaron" horiz-adv-x="465" unicode="ě"/>
<glyph d="M585 5q-102 -17 -202 -17q-165 0 -251.5 93.5t-86.5 243.5q0 61 21 120t61 108t105.5 79t146.5 30q106 0 226 -30q3 -70 22 -146q-6 -4 -18 -4q-16 0 -20 13q-18 67 -60.5 96t-123.5 29q-124 0 -189.5 -76t-65.5 -199q0 -138 76 -226.5t190 -88.5q61 0 108 14v153 q0 26 -15.5 37t-54.5 16q-14 1 -14 19q0 8 2 16q65 -5 125 -5q63 0 118 5q2 -10 2 -16q0 -16 -12 -18q-32 -4 -44.5 -13.5t-12.5 -29.5v-178q0 -10 -6 -16t-27 -9zM423 829l92 -89q4 -4 4 -10q0 -12 -16 -20q-73 43 -121 66q-39 -20 -113 -66q-17 8 -17 19q0 6 5 11l108 113 q22 0 32.5 -4.5t25.5 -19.5z" glyph-name="Gcircumflex" horiz-adv-x="712" unicode="Ĝ"/>
<glyph d="M94 21q-43 25 -43 72q0 50 66 82q-61 36 -61 116q0 57 50 100t115 43q81 0 132 -42l99 43q21 -14 21 -40q0 -22 -15 -22l-36 1q-19 0 -46 -6q24 -31 24 -76q0 -62 -51.5 -101.5t-127.5 -39.5q-46 0 -76 11q-46 -21 -46 -47q0 -41 124 -41q99 0 160 -32.5t61 -102.5 q0 -81 -62 -130t-162 -49q-200 0 -200 143q0 40 22 70.5t52 47.5zM118 9q-24 -23 -27 -58q-1 -10 -1 -33q2 -47 42 -81t110 -34q65 0 98.5 29.5t33.5 76.5q0 87 -162 87q-58 0 -94 13zM231 186q37 0 59 24.5t22 65.5q0 51 -22.5 86.5t-73.5 35.5q-35 0 -55.5 -23t-20.5 -63 q0 -52 21.5 -89t69.5 -37zM270 644l82 -122q4 -8 4 -12q0 -11 -16 -18q-76 68 -112 94q-16 -12 -31.5 -25.5t-38 -35.5t-34.5 -33q-17 8 -17 19q0 3 4 11l101 146q25 0 36 -4.5t22 -19.5z" glyph-name="gcircumflex" horiz-adv-x="484" unicode="ĝ"/>
<glyph d="M585 5q-102 -17 -202 -17q-165 0 -251.5 93.5t-86.5 243.5q0 61 21 120t61 108t105.5 79t146.5 30q106 0 226 -30q3 -70 22 -146q-6 -4 -18 -4q-16 0 -20 13q-18 67 -60.5 96t-123.5 29q-124 0 -189.5 -76t-65.5 -199q0 -138 76 -226.5t190 -88.5q61 0 108 14v153 q0 26 -15.5 37t-54.5 16q-14 1 -14 19q0 8 2 16q65 -5 125 -5q63 0 118 5q2 -10 2 -16q0 -16 -12 -18q-32 -4 -44.5 -13.5t-12.5 -29.5v-178q0 -10 -6 -16t-27 -9zM274 853q42 -76 124 -76q31 0 62 19t52 57q22 -4 22 -16q0 -3 -2 -7q-16 -54 -56 -87t-83 -33 q-47 0 -84.5 29t-53.5 85q-2 8 -2 12q0 13 21 17z" glyph-name="Gbreve" horiz-adv-x="712" unicode="Ğ"/>
<glyph d="M94 21q-43 25 -43 72q0 50 66 82q-61 36 -61 116q0 57 50 100t115 43q81 0 132 -42l99 43q21 -14 21 -40q0 -22 -15 -22l-36 1q-19 0 -46 -6q24 -31 24 -76q0 -62 -51.5 -101.5t-127.5 -39.5q-46 0 -76 11q-46 -21 -46 -47q0 -41 124 -41q99 0 160 -32.5t61 -102.5 q0 -81 -62 -130t-162 -49q-200 0 -200 143q0 40 22 70.5t52 47.5zM118 9q-24 -23 -27 -58q-1 -10 -1 -33q2 -47 42 -81t110 -34q65 0 98.5 29.5t33.5 76.5q0 87 -162 87q-58 0 -94 13zM231 186q37 0 59 24.5t22 65.5q0 51 -22.5 86.5t-73.5 35.5q-35 0 -55.5 -23t-20.5 -63 q0 -52 21.5 -89t69.5 -37zM245 574q64 0 110 81q22 -4 22 -16q0 -4 -2 -10q-17 -53 -54.5 -86.5t-80.5 -33.5q-47 0 -84.5 32t-51.5 91v4l-1 2q0 13 22 17q44 -81 120 -81z" glyph-name="gbreve" horiz-adv-x="484" unicode="ğ"/>
<glyph d="M585 5q-102 -17 -202 -17q-165 0 -251.5 93.5t-86.5 243.5q0 61 21 120t61 108t105.5 79t146.5 30q106 0 226 -30q3 -70 22 -146q-6 -4 -18 -4q-16 0 -20 13q-18 67 -60.5 96t-123.5 29q-124 0 -189.5 -76t-65.5 -199q0 -138 76 -226.5t190 -88.5q61 0 108 14v153 q0 26 -15.5 37t-54.5 16q-14 1 -14 19q0 8 2 16q65 -5 125 -5q63 0 118 5q2 -10 2 -16q0 -16 -12 -18q-32 -4 -44.5 -13.5t-12.5 -29.5v-178q0 -10 -6 -16t-27 -9zM330 775q0 24 17 41.5t41 17.5t40 -17.5t16 -41.5q0 -25 -16 -41.5t-40 -16.5q-25 0 -41.5 16.5t-16.5 41.5z " glyph-name="Gdotaccent" horiz-adv-x="712" unicode="Ġ"/>
<glyph d="M94 21q-43 25 -43 72q0 50 66 82q-61 36 -61 116q0 57 50 100t115 43q81 0 132 -42l99 43q21 -14 21 -40q0 -22 -15 -22l-36 1q-19 0 -46 -6q24 -31 24 -76q0 -62 -51.5 -101.5t-127.5 -39.5q-46 0 -76 11q-46 -21 -46 -47q0 -41 124 -41q99 0 160 -32.5t61 -102.5 q0 -81 -62 -130t-162 -49q-200 0 -200 143q0 40 22 70.5t52 47.5zM118 9q-24 -23 -27 -58q-1 -10 -1 -33q2 -47 42 -81t110 -34q65 0 98.5 29.5t33.5 76.5q0 87 -162 87q-58 0 -94 13zM231 186q37 0 59 24.5t22 65.5q0 51 -22.5 86.5t-73.5 35.5q-35 0 -55.5 -23t-20.5 -63 q0 -52 21.5 -89t69.5 -37zM181 601q0 24 17 41.5t41 17.5t40 -17.5t16 -41.5q0 -25 -16 -41.5t-40 -16.5q-25 0 -41.5 16.5t-16.5 41.5z" glyph-name="gdotaccent" horiz-adv-x="484" unicode="ġ"/>
<glyph d="M585 5q-102 -17 -202 -17q-165 0 -251.5 93.5t-86.5 243.5q0 61 21 120t61 108t105.5 79t146.5 30q106 0 226 -30q3 -70 22 -146q-6 -4 -18 -4q-16 0 -20 13q-18 67 -60.5 96t-123.5 29q-124 0 -189.5 -76t-65.5 -199q0 -138 76 -226.5t190 -88.5q61 0 108 14v153 q0 26 -15.5 37t-54.5 16q-14 1 -14 19q0 8 2 16q65 -5 125 -5q63 0 118 5q2 -10 2 -16q0 -16 -12 -18q-32 -4 -44.5 -13.5t-12.5 -29.5v-178q0 -10 -6 -16t-27 -9zM336 -251q-10 8 -10 18q0 7 4 11q36 37 36 64q0 26 -36 43q-13 8 -13 21q0 25 39 48q26 -10 46 -34t20 -54 q0 -62 -86 -117z" glyph-name="Gcommaaccent" horiz-adv-x="712" unicode="Ģ"/>
<glyph d="M94 21q-43 25 -43 72q0 50 66 82q-61 36 -61 116q0 57 50 100t115 43q81 0 132 -42l99 43q21 -14 21 -40q0 -22 -15 -22l-36 1q-19 0 -46 -6q24 -31 24 -76q0 -62 -51.5 -101.5t-127.5 -39.5q-46 0 -76 11q-46 -21 -46 -47q0 -41 124 -41q99 0 160 -32.5t61 -102.5 q0 -81 -62 -130t-162 -49q-200 0 -200 143q0 40 22 70.5t52 47.5zM118 9q-24 -23 -27 -58q-1 -10 -1 -33q2 -47 42 -81t110 -34q65 0 98.5 29.5t33.5 76.5q0 87 -162 87q-58 0 -94 13zM231 186q37 0 59 24.5t22 65.5q0 51 -22.5 86.5t-73.5 35.5q-35 0 -55.5 -23t-20.5 -63 q0 -52 21.5 -89t69.5 -37zM260 695q12 -11 12 -19q0 -4 -5 -11q-34 -37 -34 -64q0 -24 33 -43q11 -6 11 -20q0 -26 -36 -48q-25 11 -43.5 34.5t-18.5 53.5q0 61 81 117z" glyph-name="gcommaaccent" horiz-adv-x="484" unicode="ģ"/>
<glyph d="M625 578v-508q0 -19 12.5 -27t52.5 -16q10 -2 10 -14q0 -8 -2 -18q-55 5 -120 5q-54 0 -121 -5q-2 10 -2 18q0 12 10 14q38 7 51.5 15.5t13.5 27.5v242h-314v-242q0 -19 12.5 -27t52.5 -16q11 -2 11 -14q0 -8 -2 -18q-57 5 -121 5q-53 0 -121 -5q-2 10 -2 18q0 12 10 14 q39 7 52.5 15.5t13.5 27.5v508q0 20 -12 28.5t-52 15.5q-10 1 -10 16q0 7 2 17q55 -5 118 -5q53 0 120 5q2 -10 2 -17q0 -14 -10 -16q-38 -6 -51 -15t-13 -29v-224h314v224q0 18 -13 28t-50 16q-11 1 -11 16q0 7 2 17q55 -5 119 -5q52 0 120 5q2 -10 2 -17q0 -14 -10 -16 q-38 -6 -51 -15t-13 -29zM418 829l92 -89q4 -4 4 -10q0 -12 -16 -20q-73 43 -121 66q-39 -20 -113 -66q-17 8 -17 19q0 6 5 11l108 113q22 0 32.5 -4.5t25.5 -19.5z" glyph-name="Hcircumflex" horiz-adv-x="747" unicode="Ĥ"/>
<glyph d="M187 593v-258l17 17q17 18 36.5 35t51.5 32t64 15q54 0 87.5 -32t33.5 -101v-244q0 -24 59 -34q8 -2 8 -12q0 -6 -2 -16q-57 5 -105 5t-105 -5q-2 10 -2 16q0 10 9 12q55 10 55 34v196q0 55 -16 85t-59 30q-53 0 -92.5 -35t-39.5 -94v-182q0 -24 55 -34q9 -2 9 -12 q0 -6 -2 -16q-58 5 -104 5q-51 0 -106 -5q-2 10 -2 16q0 10 8 12q59 10 59 35v538q0 32 -12 43t-48 15q-13 2 -13 14q0 6 2 14q36 0 78 5q16 2 39 7.5t28 5.5q15 0 15 -15q0 -9 -3 -39.5t-3 -52.5zM173 829l92 -89q4 -4 4 -10q0 -12 -16 -20q-73 43 -121 66 q-39 -20 -113 -66q-17 8 -17 19q0 6 5 11l108 113q22 0 32.5 -4.5t25.5 -19.5z" glyph-name="hcircumflex" horiz-adv-x="570" unicode="ĥ"/>
<glyph d="M625 461v-391q0 -19 12.5 -27t52.5 -16q11 -2 11 -14q0 -8 -2 -18q-55 5 -120 5q-54 0 -122 -5q-2 10 -2 18q0 12 10 14q39 7 52.5 15.5t13.5 27.5v235h-314v-235q0 -19 12.5 -27t52.5 -16q10 -2 10 -14q0 -8 -2 -18q-55 5 -120 5q-54 0 -121 -5q-2 10 -2 18q0 12 10 14 q38 7 51.5 15.5t13.5 27.5v391h-75q-2 16 -2 18q0 13 4 17t13 4h60v78q0 20 -12 28.5t-51 15.5q-11 1 -11 16q0 7 2 17q55 -5 119 -5q52 0 120 5q2 -10 2 -17q0 -14 -10 -16q-38 -6 -51 -15t-13 -29v-78h314v78q0 20 -12 28.5t-51 15.5q-11 1 -11 16q0 7 2 17q55 -5 119 -5 q52 0 119 5q2 -10 2 -17q0 -14 -10 -16q-38 -6 -51 -15t-13 -29v-78h77q1 -7 1 -18q0 -13 -3.5 -17t-12.5 -4h-62zM217 346h314v115h-314v-115z" glyph-name="Hbar" horiz-adv-x="748" unicode="Ħ"/>
<glyph d="M188 593v-37h158q5 -15 5 -23q0 -18 -18 -18h-145v-180l16 17q17 17 37 34.5t52 32.5t64 15q54 0 87.5 -32t33.5 -101v-244q0 -24 58 -34q9 -2 9 -12q0 -6 -2 -16q-57 5 -105 5q-50 0 -105 -5q-2 10 -2 16q0 10 9 12q55 10 55 34v196q0 56 -16 85.5t-59 29.5 q-54 0 -93 -35t-39 -94v-182q0 -24 55 -34q9 -2 9 -12q0 -6 -2 -16q-58 5 -105 5q-51 0 -106 -5q-2 10 -2 16q0 10 9 12q58 10 58 35v457h-67q-5 11 -5 23q0 18 18 18h54v40q0 32 -11.5 43t-47.5 15q-13 2 -13 14q0 6 2 14q39 0 72 4q16 2 42 8t31 6q15 0 15 -15 q0 -9 -3 -39.5t-3 -52.5z" glyph-name="hbar" horiz-adv-x="571" unicode="ħ"/>
<glyph d="M216 579v-509q0 -19 13 -27t53 -16q10 -2 10 -16q0 -6 -2 -16q-68 5 -121 5q-56 0 -121 -5q-2 10 -2 16q0 14 10 16q39 7 52.5 15.5t13.5 27.5v509q0 20 -13.5 28.5t-52.5 14.5q-10 1 -10 17q0 6 2 16q67 -5 121 -5q53 0 121 5q2 -10 2 -16q0 -15 -10 -17 q-39 -6 -52.5 -15t-13.5 -28zM32 738q51 73 98 73q21 0 57 -18q25 -12 46 -12q41 0 67 27q15 -8 15 -19q0 -4 -3 -10q-49 -69 -94 -69q-28 0 -62 16q-32 16 -47 16q-35 0 -64 -32q-16 8 -16 19q0 5 3 9z" glyph-name="Itilde" unicode="Ĩ"/>
<glyph d="M142 0q-67 0 -107 -5l-1 7q-1 7 -1 9q0 10 9 12q58 10 58 35v272q0 31 -11 43.5t-45 15.5q-13 2 -13 14q0 5 2 13q42 0 75 5q12 2 27 5.5t25 5.5t15 2q14 0 14 -15q0 -6 -3 -33.5t-3 -51.5v-276q0 -15 14.5 -22.5t44.5 -12.5q8 -2 8 -12q0 -14 -2 -16q-40 5 -106 5z M-7 559q50 70 97 70q23 0 52 -16q28 -14 48 -14q37 0 64 30q16 -7 16 -19q0 -8 -3 -9q-49 -70 -93 -70q-26 0 -60 17q-29 15 -46 15q-32 0 -61 -32q-17 9 -17 19q0 4 3 9z" glyph-name="itilde" horiz-adv-x="273" unicode="ĩ"/>
<glyph d="M216 579v-509q0 -19 13 -27t53 -16q10 -2 10 -16q0 -6 -2 -16q-68 5 -121 5q-56 0 -121 -5q-2 10 -2 16q0 14 10 16q39 7 52.5 15.5t13.5 27.5v509q0 20 -13.5 28.5t-52.5 14.5q-10 1 -10 17q0 6 2 16q67 -5 121 -5q53 0 121 5q2 -10 2 -16q0 -15 -10 -17 q-39 -6 -52.5 -15t-13.5 -28zM304 793q5 -23 5 -31q0 -23 -23 -23h-251q-4 19 -4 32t5.5 17.5t16.5 4.5h251z" glyph-name="Imacron" unicode="Ī"/>
<glyph d="M142 0q-67 0 -107 -5l-1 7q-1 7 -1 9q0 10 9 12q58 10 58 35v272q0 31 -11 43.5t-45 15.5q-13 2 -13 14q0 5 2 13q42 0 75 5q12 2 27 5.5t25 5.5t15 2q14 0 14 -15q0 -6 -3 -33.5t-3 -51.5v-276q0 -15 14.5 -22.5t44.5 -12.5q8 -2 8 -12q0 -14 -2 -16q-40 5 -106 5z M240 552h-251q-5 22 -5 31q0 22 23 22h251q4 -17 4 -31t-5.5 -18t-16.5 -4z" glyph-name="imacron" horiz-adv-x="273" unicode="ī"/>
<glyph d="M216 579v-509q0 -19 13 -27t53 -16q10 -2 10 -16q0 -6 -2 -16q-68 5 -121 5q-56 0 -121 -5q-2 10 -2 16q0 14 10 16q39 7 52.5 15.5t13.5 27.5v509q0 20 -13.5 28.5t-52.5 14.5q-10 1 -10 17q0 6 2 16q67 -5 121 -5q53 0 121 5q2 -10 2 -16q0 -15 -10 -17 q-39 -6 -52.5 -15t-13.5 -28zM54 853q42 -76 124 -76q31 0 62 19t52 57q22 -4 22 -16q0 -3 -2 -7q-16 -54 -56 -87t-83 -33q-47 0 -84.5 29t-53.5 85q-2 8 -2 12q0 13 21 17z" glyph-name="Ibreve" unicode="Ĭ"/>
<glyph d="M142 0q-67 0 -107 -5l-1 7q-1 7 -1 9q0 10 9 12q58 10 58 35v272q0 31 -11 43.5t-45 15.5q-13 2 -13 14q0 5 2 13q42 0 75 5q12 2 27 5.5t25 5.5t15 2q14 0 14 -15q0 -6 -3 -33.5t-3 -51.5v-276q0 -15 14.5 -22.5t44.5 -12.5q8 -2 8 -12q0 -14 -2 -16q-40 5 -106 5z M134 574q64 0 110 81q22 -4 22 -16q0 -4 -2 -10q-17 -53 -54.5 -86.5t-80.5 -33.5q-47 0 -84.5 32t-51.5 91q0 1 -1 4v2q0 13 22 17q44 -81 120 -81z" glyph-name="ibreve" horiz-adv-x="273" unicode="ĭ"/>
<glyph d="M216 579v-509q0 -19 13 -27t53 -16q10 -2 10 -16q0 -6 -2 -16q-54 4 -80 5q-78 -68 -78 -134q0 -47 41 -47q13 0 26 4.5t17 4.5q11 0 12 -21q-46 -33 -92 -33q-33 0 -53 17.5t-20 53.5q0 27 19 58.5t35.5 48.5t48.5 48q-55 0 -118 -5q-2 10 -2 16q0 14 10 16 q39 7 52.5 15.5t13.5 27.5v509q0 20 -13.5 28.5t-52.5 14.5q-10 1 -10 17q0 6 2 16q67 -5 121 -5q53 0 121 5q2 -10 2 -16q0 -15 -10 -17q-39 -6 -52.5 -15t-13.5 -28z" glyph-name="Iogonek" unicode="Į"/>
<glyph d="M142 0q-67 0 -107 -5l-1 7q-1 7 -1 9q0 10 9 12q58 10 58 35v272q0 31 -11 43.5t-45 15.5q-13 2 -13 14q0 5 2 13q42 0 75 5q12 2 27 5.5t25 5.5t15 2q14 0 14 -15q0 -6 -3 -33.5t-3 -51.5v-276q0 -15 14.5 -22.5t44.5 -12.5q8 -2 8 -12q0 -14 -2 -16q-15 2 -61 4 q-77 -69 -77 -133q0 -47 41 -47q13 0 26 4.5t17 4.5q11 0 12 -21q-46 -33 -92 -33q-33 0 -53 17.5t-20 53.5q0 27 19 58.5t34.5 48.5t47.5 48zM84 601q0 24 17 41.5t41 17.5t40 -17.5t16 -41.5q0 -25 -16 -41.5t-40 -16.5q-25 0 -41.5 16.5t-16.5 41.5z" glyph-name="iogonek" horiz-adv-x="273" unicode="į"/>
<glyph d="M216 579v-509q0 -19 13 -27t53 -16q10 -2 10 -16q0 -6 -2 -16q-68 5 -121 5q-56 0 -121 -5q-2 10 -2 16q0 14 10 16q39 7 52.5 15.5t13.5 27.5v509q0 20 -13.5 28.5t-52.5 14.5q-10 1 -10 17q0 6 2 16q67 -5 121 -5q53 0 121 5q2 -10 2 -16q0 -15 -10 -17 q-39 -6 -52.5 -15t-13.5 -28zM119 775q0 24 17 41.5t41 17.5t40 -17.5t16 -41.5q0 -25 -16 -41.5t-40 -16.5q-25 0 -41.5 16.5t-16.5 41.5z" glyph-name="Idotaccent" unicode="İ"/>
<glyph d="M142 0q-67 0 -107 -5l-1 7q-1 7 -1 9q0 10 9 12q58 10 58 35v272q0 31 -11 43.5t-45 15.5q-13 2 -13 14q0 5 2 13q42 0 75 5q12 2 27 5.5t25 5.5t15 2q14 0 14 -15q0 -6 -3 -33.5t-3 -51.5v-276q0 -15 14.5 -22.5t44.5 -12.5q8 -2 8 -12q0 -14 -2 -16q-40 5 -106 5z" glyph-name="dotlessi" horiz-adv-x="273" unicode="ı"/>
<glyph d="M216 579v-509q0 -19 13 -27t53 -16q10 -2 10 -16q0 -6 -2 -16q-68 5 -121 5q-56 0 -121 -5q-2 10 -2 16q0 14 10 16q39 7 52.5 15.5t13.5 27.5v509q0 20 -13.5 28.5t-52.5 14.5q-10 1 -10 17q0 6 2 16q67 -5 121 -5q53 0 121 5q2 -10 2 -16q0 -15 -10 -17 q-39 -6 -52.5 -15t-13.5 -28zM471 46v533q0 19 -14.5 28t-54.5 15q-10 2 -10 17q0 6 2 16q72 -5 124 -5q55 0 120 5q2 -10 2 -16q0 -16 -11 -17q-37 -6 -50.5 -15t-13.5 -28v-433q0 -145 -33.5 -214.5t-153.5 -151.5q-13 10 -13 21q0 7 5 12q55 52 78 107t23 126z" glyph-name="IJ" horiz-adv-x="687" unicode="Ĳ"/>
<glyph d="M142 0q-67 0 -107 -5l-1 7q-1 7 -1 9q0 10 9 12q58 10 58 35v272q0 31 -11 43.5t-45 15.5q-13 2 -13 14q0 5 2 13q42 0 75 5q12 2 27 5.5t25 5.5t15 2q14 0 14 -15q0 -6 -3 -33.5t-3 -51.5v-276q0 -15 14.5 -22.5t44.5 -12.5q8 -2 8 -12q0 -14 -2 -16q-40 5 -106 5z M84 601q0 24 17 41.5t41 17.5t40 -17.5t16 -41.5q0 -25 -16 -41.5t-40 -16.5q-25 0 -41.5 16.5t-16.5 41.5zM372 0v330q0 33 -11.5 44t-49.5 15q-14 0 -14 14q0 5 2 13q46 0 81 5q12 2 27 5.5t24.5 5.5t14.5 2q15 0 15 -15q0 -6 -3 -33.5t-3 -51.5v-234q0 -50 -1.5 -79 t-7.5 -61t-16.5 -52t-31.5 -45.5t-48.5 -48.5t-70.5 -54q-12 10 -12 21q0 5 6 11q57 56 78 98.5t21 109.5zM355 601q0 24 17 41.5t42 17.5q24 0 40 -17.5t16 -41.5q0 -25 -16 -41.5t-40 -16.5q-26 0 -42.5 16.5t-16.5 41.5z" glyph-name="ij" horiz-adv-x="542" unicode="ĳ"/>
<glyph d="M132 46v533q0 19 -14.5 28t-54.5 15q-10 2 -10 17q0 6 2 16q72 -5 124 -5q55 0 120 5q2 -10 2 -16q0 -16 -11 -17q-37 -6 -50.5 -15t-13.5 -28v-433q0 -145 -33.5 -214.5t-153.5 -151.5q-13 10 -13 21q0 7 5 12q55 52 78 107t23 126zM215 829l92 -89q4 -4 4 -10 q0 -12 -16 -20q-73 43 -121 66q-39 -20 -113 -66q-17 8 -17 19q0 6 5 11l108 113q22 0 32.5 -4.5t25.5 -19.5z" glyph-name="Jcircumflex" horiz-adv-x="348" unicode="Ĵ"/>
<glyph d="M99 0v330q0 33 -11.5 44t-49.5 15q-14 0 -14 14q0 5 2 13q46 0 81 5q12 2 27 5.5t24.5 5.5t14.5 2q15 0 15 -15q0 -6 -3 -33.5t-3 -51.5v-234q0 -50 -1.5 -79t-7.5 -61t-16.5 -52t-31.5 -45.5t-48.5 -48.5t-70.5 -54q-12 10 -12 21q0 5 6 11q57 56 78 98.5t21 109.5z M164 644l82 -122q4 -8 4 -12q0 -11 -16 -18q-76 68 -112 94q-16 -12 -31.5 -25.5t-38 -35.5t-34.5 -33q-17 8 -17 19q0 3 4 11l101 146q25 0 36 -4.5t22 -19.5z" glyph-name="jcircumflex" horiz-adv-x="269" unicode="ĵ"/>
<glyph d="M449 73l-233 250v-253q0 -19 12 -27.5t47 -15.5q11 -2 11 -15q0 -7 -2 -17q-70 5 -115 5q-54 0 -121 -5q-2 10 -2 16q0 14 10 16q40 8 53 16t13 27v509q0 20 -13.5 28.5t-52.5 14.5q-10 1 -10 17q0 6 2 16q65 -5 120 -5q52 0 122 5q2 -10 2 -16q0 -15 -10 -17 q-39 -6 -52.5 -15t-13.5 -28v-242l232 230q15 15 15 29q0 18 -42 25q-10 1 -10 18q0 6 2 16q63 -5 111 -5q46 0 91 5q2 -10 2 -16q0 -16 -11 -19q-48 -8 -78 -37l-225 -222l273 -294q28 -31 75 -38q12 -1 12 -17q0 -7 -2 -17q-68 5 -132 5q-49 0 -124 -5q-2 10 -2 16 q0 15 11 16q45 3 45 26q0 10 -10 20zM296 -251q-10 8 -10 18q0 7 4 11q36 37 36 64q0 26 -36 43q-13 8 -13 21q0 25 39 48q26 -10 46 -34t20 -54q0 -62 -86 -117z" glyph-name="Kcommaaccent" horiz-adv-x="662" unicode="Ķ"/>
<glyph d="M187 218v-160q0 -24 55 -35q9 -2 9 -12q0 -6 -2 -16q-58 5 -103 5q-52 0 -107 -5q-2 10 -2 16q0 10 8 12q59 11 59 35v538q0 32 -12 43.5t-48 14.5q-13 2 -13 14q0 6 2 14q36 0 78 5q16 2 39 7.5t28 5.5q15 0 15 -15q0 -9 -3 -39.5t-3 -52.5v-358l150 133q9 5 9 15 q0 8 -24 12.5t-24 17.5q0 4 2 12l33 -1q33 -2 57 -2t54 1.5t31 1.5l1 -5q2 -4 2 -7q0 -16 -14 -16q-40 -3 -58 -18l-140 -126l162 -188q28 -35 75 -39q10 0 10 -12q0 -4 -3 -19q-68 3 -140 3l-182 220h-1zM275 -251q-10 8 -10 18q0 7 4 11q36 37 36 64q0 26 -36 43 q-13 8 -13 21q0 25 39 48q26 -10 46 -34t20 -54q0 -62 -86 -117z" glyph-name="kcommaaccent" horiz-adv-x="506" unicode="ķ"/>
<glyph d="M187 218v-160q0 -24 55 -35q9 -2 9 -12q0 -6 -2 -16q-58 5 -103 5q-52 0 -107 -5q-2 10 -2 16q0 10 8 12q59 11 59 35v538q0 32 -12 43.5t-48 14.5q-13 2 -13 14q0 6 2 14q36 0 78 5q16 2 39 7.5t28 5.5q15 0 15 -15q0 -9 -3 -39.5t-3 -52.5v-358l150 133q9 5 9 15 q0 8 -24 12.5t-24 17.5q0 4 2 12l33 -1q33 -2 57 -2t54 1.5t31 1.5l1 -5q2 -4 2 -7q0 -16 -14 -16q-40 -3 -58 -18l-140 -126l162 -188q28 -35 75 -39q10 0 10 -12q0 -4 -3 -19q-68 3 -140 3l-182 220h-1z" glyph-name="kgreenlandic" horiz-adv-x="506" unicode="ĸ"/>
<glyph d="M221 572v-500q0 -31 56 -31h109q55 0 84 26.5t49 83.5q3 8 12 8q6 0 22 -8q-17 -76 -25 -139q-1 -17 -18 -17q-11 0 -42.5 2.5t-44.5 2.5h-250q-55 0 -125 -5q-2 10 -2 16q0 14 10 16q42 8 56.5 16t14.5 26v510q0 20 -14 28.5t-54 14.5q-10 1 -10 16q0 7 2 17 q75 -5 123 -5q73 0 140 5q2 -10 2 -16q0 -17 -11 -18q-46 -6 -65 -16t-19 -33zM108 742l139 109q22 -8 34.5 -24t12.5 -32q0 -23 -22 -29q-70 -18 -162 -56q-10 10 -10 19q0 7 8 13z" glyph-name="Lacute" horiz-adv-x="558" unicode="Ĺ"/>
<glyph d="M253 -5q-58 5 -107 5q-54 0 -109 -5q-2 10 -2 16q0 10 9 12q60 10 60 35v538q0 32 -12 43.5t-48 14.5q-13 2 -13 14q0 6 2 14q36 0 78 5q16 2 39 7.5t28 5.5q15 0 15 -15q0 -9 -3 -39.5t-3 -52.5v-535q0 -25 60 -35q8 -2 8 -12q0 -6 -2 -16zM57 742l139 109 q22 -8 34.5 -24t12.5 -32q0 -23 -22 -29q-70 -18 -162 -56q-10 10 -10 19q0 7 8 13z" glyph-name="lacute" horiz-adv-x="281" unicode="ĺ"/>
<glyph d="M221 572v-500q0 -31 56 -31h109q55 0 84 26.5t49 83.5q3 8 12 8q6 0 22 -8q-17 -76 -25 -139q-1 -17 -18 -17q-11 0 -42.5 2.5t-44.5 2.5h-250q-55 0 -125 -5q-2 10 -2 16q0 14 10 16q42 8 56.5 16t14.5 26v510q0 20 -14 28.5t-54 14.5q-10 1 -10 16q0 7 2 17 q75 -5 123 -5q73 0 140 5q2 -10 2 -16q0 -17 -11 -18q-46 -6 -65 -16t-19 -33zM273 -251q-10 8 -10 18q0 7 4 11q36 37 36 64q0 26 -36 43q-13 8 -13 21q0 25 39 48q26 -10 46 -34t20 -54q0 -62 -86 -117z" glyph-name="Lcommaaccent" horiz-adv-x="558" unicode="Ļ"/>
<glyph d="M253 -5q-58 5 -107 5q-54 0 -109 -5q-2 10 -2 16q0 10 9 12q60 10 60 35v538q0 32 -12 43.5t-48 14.5q-13 2 -13 14q0 6 2 14q36 0 78 5q16 2 39 7.5t28 5.5q15 0 15 -15q0 -9 -3 -39.5t-3 -52.5v-535q0 -25 60 -35q8 -2 8 -12q0 -6 -2 -16zM107 -251q-10 8 -10 18 q0 7 4 11q36 37 36 64q0 26 -36 43q-13 8 -13 21q0 25 39 48q26 -10 46 -34t20 -54q0 -62 -86 -117z" glyph-name="lcommaaccent" horiz-adv-x="281" unicode="ļ"/>
<glyph d="M221 572v-500q0 -31 56 -31h109q55 0 84 26.5t49 83.5q3 8 12 8q6 0 22 -8q-17 -76 -25 -139q-1 -17 -18 -17q-11 0 -42.5 2.5t-44.5 2.5h-250q-55 0 -125 -5q-2 10 -2 16q0 14 10 16q42 8 56.5 16t14.5 26v510q0 20 -14 28.5t-54 14.5q-10 1 -10 16q0 7 2 17 q75 -5 123 -5q73 0 140 5q2 -10 2 -16q0 -17 -11 -18q-46 -6 -65 -16t-19 -33zM393 469l-9 186q25 16 47 15t33 -15q7 -12 3 -28q-17 -58 -41 -176q-24 -3 -29 5q-4 4 -4 13z" glyph-name="Lcaron" horiz-adv-x="558" unicode="Ľ"/>
<glyph d="M253 -5q-58 5 -107 5q-54 0 -109 -5q-2 10 -2 16q0 10 9 12q60 10 60 35v538q0 32 -12 43.5t-48 14.5q-13 2 -13 14q0 6 2 14q36 0 78 5q16 2 39 7.5t28 5.5q15 0 15 -15q0 -9 -3 -39.5t-3 -52.5v-535q0 -25 60 -35q8 -2 8 -12q0 -6 -2 -16zM277 509l-9 186q25 16 47 15 t33 -15q7 -12 3 -28q-17 -58 -41 -176q-24 -3 -29 5q-4 4 -4 13z" glyph-name="lcaron" horiz-adv-x="333" unicode="ľ"/>
<glyph d="M221 572v-500q0 -31 56 -31h109q55 0 84 26.5t49 83.5q3 8 12 8q6 0 22 -8q-17 -76 -25 -139q-1 -17 -18 -17q-11 0 -42.5 2.5t-44.5 2.5h-250q-55 0 -125 -5q-2 10 -2 16q0 14 10 16q42 8 56.5 16t14.5 26v510q0 20 -14 28.5t-54 14.5q-10 1 -10 16q0 7 2 17 q75 -5 123 -5q73 0 140 5q2 -10 2 -16q0 -17 -11 -18q-46 -6 -65 -16t-19 -33zM361 312q0 24 17 41.5t41 17.5t40 -17.5t16 -41.5q0 -25 -16 -41.5t-40 -16.5q-25 0 -41.5 16.5t-16.5 41.5z" glyph-name="Ldot" horiz-adv-x="558" unicode="Ŀ"/>
<glyph d="M253 -5q-58 5 -107 5q-54 0 -109 -5q-2 10 -2 16q0 10 9 12q60 10 60 35v538q0 32 -12 43.5t-48 14.5q-13 2 -13 14q0 6 2 14q36 0 78 5q16 2 39 7.5t28 5.5q15 0 15 -15q0 -9 -3 -39.5t-3 -52.5v-535q0 -25 60 -35q8 -2 8 -12q0 -6 -2 -16zM287 332q0 24 17 41.5 t41 17.5t40 -17.5t16 -41.5q0 -25 -16 -41.5t-40 -16.5q-25 0 -41.5 16.5t-16.5 41.5z" glyph-name="ldot" horiz-adv-x="402" unicode="ŀ"/>
<glyph d="M222 72q0 -31 55 -31h109q56 0 84.5 26t49.5 84q1 8 12 8q9 0 21 -8q-15 -69 -23 -139q-2 -17 -19 -17q-11 0 -43 2.5t-44 2.5h-251q-56 0 -124 -5q-2 10 -2 16q0 14 10 16q42 8 56.5 16t14.5 26v214l-88 -36q-15 24 -15 34q0 9 11 14l92 37v247q0 20 -13.5 28.5 t-55.5 14.5q-10 1 -10 16q0 7 2 17q77 -5 124 -5q72 0 139 5q2 -10 2 -16q0 -17 -10 -18q-46 -6 -65 -16t-19 -33v-205l158 66q12 -21 12 -33q0 -10 -9 -14l-161 -68v-246z" glyph-name="Lslash" horiz-adv-x="559" unicode="Ł"/>
<glyph d="M260 -5q-58 5 -108 5q-53 0 -108 -5q-2 10 -2 16q0 10 8 12q60 10 60 35v244l-75 -42q-18 13 -18 28q0 8 10 14l83 47v247q0 32 -12 43.5t-47 14.5q-13 2 -13 14q0 6 2 14q36 0 78 5q15 2 38.5 7.5t28.5 5.5q14 0 14 -15q0 -9 -3 -42t-3 -56v-199l89 51q18 -14 18 -29 q0 -6 -10 -13l-97 -56v-283q0 -25 60 -35q9 -2 9 -12q0 -6 -2 -16z" glyph-name="lslash" horiz-adv-x="315" unicode="ł"/>
<glyph d="M204 638l359 -479v418q0 21 -15.5 30.5t-54.5 14.5q-11 1 -11 17q0 6 2 16q55 -5 100 -5q43 0 93 5q2 -10 2 -16q0 -16 -10 -17q-33 -4 -46 -13.5t-13 -29.5v-589q-6 -2 -15 -2q-13 0 -27 18l-406 535v-471q0 -19 14 -27.5t54 -15.5q10 -2 10 -16q0 -6 -2 -16 q-55 5 -98 5q-48 0 -96 -5q-2 10 -2 16q0 14 11 16q36 7 48.5 15.5t12.5 27.5v514q0 16 -12 24.5t-47 13.5q-11 2 -11 17l2 16q67 -5 104 -5q29 0 38.5 -2t15.5 -10zM307 742l139 109q22 -8 34.5 -24t12.5 -32q0 -23 -22 -29q-70 -18 -162 -56q-10 10 -10 19q0 7 8 13z" glyph-name="Nacute" horiz-adv-x="721" unicode="Ń"/>
<glyph d="M474 300v-243q0 -24 58 -34q9 -2 9 -12q0 -6 -2 -16q-58 5 -105 5q-49 0 -106 -5q-2 10 -2 16q0 10 9 12q55 10 55 34v196q0 56 -16 85.5t-59 29.5q-53 0 -92.5 -35t-39.5 -94v-182q0 -24 55 -34q9 -2 9 -12q0 -6 -2 -16q-58 5 -104 5q-51 0 -106 -5q-2 10 -2 16 q0 10 9 12q58 10 58 35v272q0 31 -11 43.5t-45 15.5q-13 2 -13 14q0 5 2 13q42 0 75 5q12 2 27 5.5t25 5.5t15 2q14 0 14 -15q0 -6 -3 -33.5t-3 -51.5q90 100 169 100q60 0 91 -35t31 -99zM234 524l96 148q28 0 46.5 -15.5t18.5 -33.5q0 -16 -14 -24q-58 -38 -135 -106 q-17 9 -17 19q0 5 5 12z" glyph-name="nacute" horiz-adv-x="565" unicode="ń"/>
<glyph d="M204 638l359 -479v418q0 21 -15.5 30.5t-54.5 14.5q-11 1 -11 17q0 6 2 16q55 -5 100 -5q43 0 93 5q2 -10 2 -16q0 -16 -10 -17q-33 -4 -46 -13.5t-13 -29.5v-589q-6 -2 -15 -2q-13 0 -27 18l-406 535v-471q0 -19 14 -27.5t54 -15.5q10 -2 10 -16q0 -6 -2 -16 q-55 5 -98 5q-48 0 -96 -5q-2 10 -2 16q0 14 11 16q36 7 48.5 15.5t12.5 27.5v514q0 16 -12 24.5t-47 13.5q-11 2 -11 17l2 16q67 -5 104 -5q29 0 38.5 -2t15.5 -10zM342 -251q-10 8 -10 18q0 7 4 11q36 37 36 64q0 26 -36 43q-13 8 -13 21q0 25 39 48q26 -10 46 -34t20 -54 q0 -62 -86 -117z" glyph-name="Ncommaaccent" horiz-adv-x="721" unicode="Ņ"/>
<glyph d="M474 300v-243q0 -24 58 -34q9 -2 9 -12q0 -6 -2 -16q-58 5 -105 5q-49 0 -106 -5q-2 10 -2 16q0 10 9 12q55 10 55 34v196q0 56 -16 85.5t-59 29.5q-53 0 -92.5 -35t-39.5 -94v-182q0 -24 55 -34q9 -2 9 -12q0 -6 -2 -16q-58 5 -104 5q-51 0 -106 -5q-2 10 -2 16 q0 10 9 12q58 10 58 35v272q0 31 -11 43.5t-45 15.5q-13 2 -13 14q0 5 2 13q42 0 75 5q12 2 27 5.5t25 5.5t15 2q14 0 14 -15q0 -6 -3 -33.5t-3 -51.5q90 100 169 100q60 0 91 -35t31 -99zM249 -251q-10 8 -10 18q0 7 4 11q36 37 36 64q0 26 -36 43q-13 8 -13 21q0 25 39 48 q26 -10 46 -34t20 -54q0 -62 -86 -117z" glyph-name="ncommaaccent" horiz-adv-x="565" unicode="ņ"/>
<glyph d="M204 638l359 -479v418q0 21 -15.5 30.5t-54.5 14.5q-11 1 -11 17q0 6 2 16q55 -5 100 -5q43 0 93 5q2 -10 2 -16q0 -16 -10 -17q-33 -4 -46 -13.5t-13 -29.5v-589q-6 -2 -15 -2q-13 0 -27 18l-406 535v-471q0 -19 14 -27.5t54 -15.5q10 -2 10 -16q0 -6 -2 -16 q-55 5 -98 5q-48 0 -96 -5q-2 10 -2 16q0 14 11 16q36 7 48.5 15.5t12.5 27.5v514q0 16 -12 24.5t-47 13.5q-11 2 -11 17l2 16q67 -5 104 -5q29 0 38.5 -2t15.5 -10zM321 734l-92 89q-4 4 -4 10q0 12 16 20q73 -43 121 -66q39 20 113 66q17 -9 17 -19q0 -6 -5 -11l-108 -113 q-22 0 -32.5 4.5t-25.5 19.5z" glyph-name="Ncaron" horiz-adv-x="721" unicode="Ň"/>
<glyph d="M474 300v-243q0 -24 58 -34q9 -2 9 -12q0 -6 -2 -16q-58 5 -105 5q-49 0 -106 -5q-2 10 -2 16q0 10 9 12q55 10 55 34v196q0 56 -16 85.5t-59 29.5q-53 0 -92.5 -35t-39.5 -94v-182q0 -24 55 -34q9 -2 9 -12q0 -6 -2 -16q-58 5 -104 5q-51 0 -106 -5q-2 10 -2 16 q0 10 9 12q58 10 58 35v272q0 31 -11 43.5t-45 15.5q-13 2 -13 14q0 5 2 13q42 0 75 5q12 2 27 5.5t25 5.5t15 2q14 0 14 -15q0 -6 -3 -33.5t-3 -51.5q90 100 169 100q60 0 91 -35t31 -99zM253 516l-85 122q-4 8 -4 12q0 11 16 18q65 -59 115 -94q32 25 103 94q17 -8 17 -19 q0 -3 -4 -11l-100 -146q-25 0 -36 4.5t-22 19.5z" glyph-name="ncaron" horiz-adv-x="565" unicode="ň"/>
<glyph d="M474 300v-243q0 -24 58 -34q9 -2 9 -12q0 -6 -2 -16q-58 5 -105 5q-49 0 -106 -5q-2 10 -2 16q0 10 9 12q55 10 55 34v196q0 56 -16 85.5t-59 29.5q-53 0 -92.5 -35t-39.5 -94v-182q0 -24 55 -34q9 -2 9 -12q0 -6 -2 -16q-58 5 -104 5q-51 0 -106 -5q-2 10 -2 16 q0 10 9 12q58 10 58 35v272q0 31 -11 43.5t-45 15.5q-13 2 -13 14q0 5 2 13q42 0 75 5q12 2 27 5.5t25 5.5t15 2q14 0 14 -15q0 -6 -3 -33.5t-3 -51.5q90 100 169 100q60 0 91 -35t31 -99zM-18 453q-13 8 -13 19q0 6 6 11q47 43 47 77q0 33 -45 52q-15 4 -15 21q0 30 41 49 q32 -10 55.5 -35.5t23.5 -59.5q0 -68 -100 -134z" glyph-name="napostrophe" horiz-adv-x="565" unicode="ŉ"/>
<glyph d="M566 7l-405 536v-473q0 -19 14 -27.5t54 -15.5q11 -2 11 -16q0 -6 -2 -16q-55 5 -98 5q-48 0 -96 -5q-2 10 -2 16q0 14 10 16q37 7 49.5 15.5t12.5 27.5v514q0 16 -12.5 24.5t-47.5 13.5q-10 1 -10 17l2 16q66 -5 103 -5q29 0 38.5 -2t15.5 -10l359 -482v421 q0 21 -15.5 30.5t-54.5 14.5q-11 1 -11 17q0 6 2 16q55 -5 101 -5q42 0 92 5q2 -10 2 -16q0 -16 -10 -17q-33 -4 -46 -13.5t-13 -29.5v-589q0 -92 -36 -149.5t-115 -57.5q-31 0 -31 18q0 29 17 48q7 10 20 10q1 0 10 -1.5t17 -1.5q46 0 60 36t15 115z" glyph-name="Eng" horiz-adv-x="720" unicode="Ŋ"/>
<glyph d="M475 300v-195q0 -85 -15 -136q-22 -71 -67 -116.5t-108 -45.5q-31 0 -31 18q0 29 17 48q7 10 20 10q1 0 10 -1.5t17 -1.5q44 0 59 30.5t15 98.5v244q0 56 -16 85.5t-59 29.5q-54 0 -93 -35t-39 -94v-182q0 -24 55 -34q8 -2 8 -12q0 -6 -2 -16q-58 5 -104 5q-51 0 -106 -5 q-2 10 -2 16q0 10 9 12q58 10 58 35v272q0 31 -11 43.5t-44 15.5q-13 2 -13 14q0 5 2 13q40 0 75 5q12 2 27 5.5t24.5 5.5t14.5 2q15 0 15 -15q0 -6 -3 -33.5t-3 -51.5q46 51 85 75.5t84 24.5q59 0 90 -35t31 -99z" glyph-name="eng" horiz-adv-x="555" unicode="ŋ"/>
<glyph d="M45 325q0 137 93 237t220 100q166 0 255 -97t89 -240q0 -154 -96 -245.5t-240 -91.5q-143 0 -232 93t-89 244zM389 36q94 0 153 68t59 172q0 150 -63 244t-183 94q-87 0 -147 -62.5t-60 -169.5q0 -153 64 -249.5t177 -96.5zM512 793q5 -23 5 -31q0 -23 -23 -23h-251 q-4 19 -4 32t5.5 17.5t16.5 4.5h251z" glyph-name="Omacron" horiz-adv-x="749" unicode="Ō"/>
<glyph d="M36 211q0 93 64.5 158t158.5 65q98 0 160.5 -62t62.5 -161q0 -94 -64.5 -158.5t-158.5 -64.5q-98 0 -160.5 62t-62.5 161zM130 244q0 -53 13.5 -101t46 -83t78.5 -35q56 0 88 39.5t32 103.5q0 54 -12.5 103.5t-46 87.5t-81.5 38q-55 0 -86.5 -38t-31.5 -115zM380 552 h-251q-5 22 -5 31q0 22 23 22h251q4 -17 4 -31t-5.5 -18t-16.5 -4z" glyph-name="omacron" horiz-adv-x="517" unicode="ō"/>
<glyph d="M45 325q0 137 93 237t220 100q166 0 255 -97t89 -240q0 -154 -96 -245.5t-240 -91.5q-143 0 -232 93t-89 244zM389 36q94 0 153 68t59 172q0 150 -63 244t-183 94q-87 0 -147 -62.5t-60 -169.5q0 -153 64 -249.5t177 -96.5zM263 853q42 -76 124 -76q31 0 62 19t52 57 q22 -4 22 -16q0 -3 -2 -7q-16 -54 -56 -87t-83 -33q-47 0 -84.5 29t-53.5 85q-2 8 -2 12q0 13 21 17z" glyph-name="Obreve" horiz-adv-x="749" unicode="Ŏ"/>
<glyph d="M36 211q0 93 64.5 158t158.5 65q98 0 160.5 -62t62.5 -161q0 -94 -64.5 -158.5t-158.5 -64.5q-98 0 -160.5 62t-62.5 161zM130 244q0 -53 13.5 -101t46 -83t78.5 -35q56 0 88 39.5t32 103.5q0 54 -12.5 103.5t-46 87.5t-81.5 38q-55 0 -86.5 -38t-31.5 -115zM271 574 q64 0 110 81q22 -4 22 -16q0 -4 -2 -10q-17 -53 -54.5 -86.5t-80.5 -33.5q-47 0 -84.5 32t-51.5 91v4l-1 2q0 13 22 17q44 -81 120 -81z" glyph-name="obreve" horiz-adv-x="517" unicode="ŏ"/>
<glyph d="M45 325q0 137 93 237t220 100q166 0 255 -97t89 -240q0 -154 -96 -245.5t-240 -91.5q-143 0 -232 93t-89 244zM389 36q94 0 153 68t59 172q0 150 -63 244t-183 94q-87 0 -147 -62.5t-60 -169.5q0 -153 64 -249.5t177 -96.5zM272 728l62 146q4 1 11 1q25 0 41.5 -13.5 t16.5 -30.5q0 -13 -11 -22q-32 -28 -51 -48t-52 -61q-19 8 -19 20q0 4 2 8zM420 728l63 146q4 1 11 1q25 0 41.5 -13.5t16.5 -30.5q0 -13 -11 -22q-53 -46 -103 -109q-20 8 -20 20q0 4 2 8z" glyph-name="Ohungarumlaut" horiz-adv-x="749" unicode="Ő"/>
<glyph d="M36 211q0 93 64.5 158t158.5 65q98 0 160.5 -62t62.5 -161q0 -94 -64.5 -158.5t-158.5 -64.5q-98 0 -160.5 62t-62.5 161zM130 244q0 -53 13.5 -101t46 -83t78.5 -35q56 0 88 39.5t32 103.5q0 54 -12.5 103.5t-46 87.5t-81.5 38q-55 0 -86.5 -38t-31.5 -115zM166 502 l39 167q15 6 28 6q21 0 35.5 -12t14.5 -27q0 -10 -7 -17q-42 -56 -88 -142q-23 2 -23 18q0 1 0.5 3.5t0.5 3.5zM306 502l41 167q13 6 27 6q22 0 36.5 -11.5t14.5 -27.5q0 -10 -7 -17q-44 -58 -90 -142q-23 3 -23 18q0 1 0.5 3.5t0.5 3.5z" glyph-name="ohungarumlaut" horiz-adv-x="517" unicode="ő"/>
<glyph d="M726 609h-148v-256h156q31 0 42 67q3 13 18 13q4 0 16 -3q-5 -48 -5 -99q0 -46 5 -97q-8 -2 -15 -2q-16 0 -19 13q-11 67 -42 67h-156v-236q0 -20 26 -27.5t90 -7.5h55q54 0 84.5 27.5t58.5 82.5q3 7 15 7q7 0 21 -9q-10 -20 -19 -60.5t-17.5 -67t-20.5 -26.5 q-8 0 -55.5 2.5t-66.5 2.5h-239q-24 0 -59 -5q-53 -7 -92 -7q-139 0 -226.5 92.5t-87.5 244.5q0 136 92.5 236.5t214.5 100.5q44 0 110 -12h264q36 0 78 3t44 3q15 0 20 -26t10 -64.5t17 -58.5q-7 -6 -18 -6q-13 0 -17 9q-25 56 -51 77.5t-83 21.5zM385 36q97 0 97 35v480 q0 34 -40.5 49t-89.5 15q-87 0 -146 -62t-59 -171q0 -154 62.5 -250t175.5 -96z" glyph-name="OE" horiz-adv-x="962" unicode="Œ"/>
<glyph d="M36 211q0 90 63.5 156.5t149.5 66.5q122 0 185 -79q31 37 72.5 58t81.5 21q90 0 134 -52t44 -142q0 -6 -6 -6l-290 -13q0 -79 42.5 -130.5t112.5 -51.5q31 0 61.5 15.5t49.5 39.5q6 8 15 8q11 0 19 -17q-67 -97 -194 -97q-98 0 -153 70q-67 -70 -169 -70q-98 0 -158 60.5 t-60 162.5zM130 242q0 -53 13.5 -100.5t46 -82t78.5 -34.5q52 0 84.5 35t34.5 89q1 25 -2 62q-8 79 -42 132.5t-95 53.5q-55 0 -86.5 -38.5t-31.5 -116.5zM574 397q-49 0 -78 -38.5t-29 -101.5l189 9q15 0 15 13q0 44 -25.5 81t-71.5 37z" glyph-name="oe" horiz-adv-x="804" unicode="œ"/>
<glyph d="M455 61l-160 231h-74v-220q0 -21 19 -29.5t64 -13.5q12 -1 12 -17q0 -7 -2 -17q-60 5 -141 5q-57 0 -124 -5q-2 10 -2 16q0 14 11 16q39 6 54 15t15 28v509q0 19 -15 28.5t-56 14.5q-10 1 -10 17q0 6 2 16q67 -5 123 -5h135q105 0 161.5 -47t56.5 -129q0 -48 -33 -96 t-95 -71l167 -232q25 -36 85 -51q9 -2 9 -14q0 -8 -2 -18q-75 5 -117 5q-40 0 -83 64zM221 333h53q73 0 109.5 31t36.5 102q0 143 -149 143h-50v-276zM230 742l139 109q22 -8 34.5 -24t12.5 -32q0 -23 -22 -29q-70 -18 -162 -56q-10 10 -10 19q0 7 8 13z" glyph-name="Racute" horiz-adv-x="649" unicode="Ŕ"/>
<glyph d="M321 433q27 0 42 -13t15 -32q0 -13 -12.5 -22.5t-57.5 -30.5q-23 27 -49 27q-33 0 -54.5 -35t-21.5 -83v-172q0 -37 89 -49q10 -2 10 -12q0 -6 -2 -16q-75 5 -134 5q-54 0 -111 -5q-2 10 -2 16q0 10 9 12q58 9 58 35v254q0 42 -11 57t-47 19q-13 2 -13 13q0 6 2 14 q42 0 75 5q12 2 26 5.5t23.5 5.5t13.5 2q14 0 14 -15v-67q38 40 69.5 61t68.5 21zM143 524l96 148q28 0 46.5 -15.5t18.5 -33.5q0 -16 -14 -24q-58 -38 -135 -106q-17 9 -17 19q0 5 5 12z" glyph-name="racute" horiz-adv-x="379" unicode="ŕ"/>
<glyph d="M455 61l-160 231h-74v-220q0 -21 19 -29.5t64 -13.5q12 -1 12 -17q0 -7 -2 -17q-60 5 -141 5q-57 0 -124 -5q-2 10 -2 16q0 14 11 16q39 6 54 15t15 28v509q0 19 -15 28.5t-56 14.5q-10 1 -10 17q0 6 2 16q67 -5 123 -5h135q105 0 161.5 -47t56.5 -129q0 -48 -33 -96 t-95 -71l167 -232q25 -36 85 -51q9 -2 9 -14q0 -8 -2 -18q-75 5 -117 5q-40 0 -83 64zM221 333h53q73 0 109.5 31t36.5 102q0 143 -149 143h-50v-276zM331 -251q-10 8 -10 18q0 7 4 11q36 37 36 64q0 26 -36 43q-13 8 -13 21q0 25 39 48q26 -10 46 -34t20 -54 q0 -62 -86 -117z" glyph-name="Rcommaaccent" horiz-adv-x="649" unicode="Ŗ"/>
<glyph d="M321 433q27 0 42 -13t15 -32q0 -13 -12.5 -22.5t-57.5 -30.5q-23 27 -49 27q-33 0 -54.5 -35t-21.5 -83v-172q0 -37 89 -49q10 -2 10 -12q0 -6 -2 -16q-75 5 -134 5q-54 0 -111 -5q-2 10 -2 16q0 10 9 12q58 9 58 35v254q0 42 -11 57t-47 19q-13 2 -13 13q0 6 2 14 q42 0 75 5q12 2 26 5.5t23.5 5.5t13.5 2q14 0 14 -15v-67q38 40 69.5 61t68.5 21zM122 -251q-10 8 -10 18q0 7 4 11q36 37 36 64q0 26 -36 43q-13 8 -13 21q0 25 39 48q26 -10 46 -34t20 -54q0 -62 -86 -117z" glyph-name="rcommaaccent" horiz-adv-x="379" unicode="ŗ"/>
<glyph d="M455 61l-160 231h-74v-220q0 -21 19 -29.5t64 -13.5q12 -1 12 -17q0 -7 -2 -17q-60 5 -141 5q-57 0 -124 -5q-2 10 -2 16q0 14 11 16q39 6 54 15t15 28v509q0 19 -15 28.5t-56 14.5q-10 1 -10 17q0 6 2 16q67 -5 123 -5h135q105 0 161.5 -47t56.5 -129q0 -48 -33 -96 t-95 -71l167 -232q25 -36 85 -51q9 -2 9 -14q0 -8 -2 -18q-75 5 -117 5q-40 0 -83 64zM221 333h53q73 0 109.5 31t36.5 102q0 143 -149 143h-50v-276zM253 734l-92 89q-4 4 -4 10q0 12 16 20q73 -43 121 -66q39 20 113 66q17 -9 17 -19q0 -6 -5 -11l-108 -113 q-22 0 -32.5 4.5t-25.5 19.5z" glyph-name="Rcaron" horiz-adv-x="649" unicode="Ř"/>
<glyph d="M321 433q27 0 42 -13t15 -32q0 -13 -12.5 -22.5t-57.5 -30.5q-23 27 -49 27q-33 0 -54.5 -35t-21.5 -83v-172q0 -37 89 -49q10 -2 10 -12q0 -6 -2 -16q-75 5 -134 5q-54 0 -111 -5q-2 10 -2 16q0 10 9 12q58 9 58 35v254q0 42 -11 57t-47 19q-13 2 -13 13q0 6 2 14 q42 0 75 5q12 2 26 5.5t23.5 5.5t13.5 2q14 0 14 -15v-67q38 40 69.5 61t68.5 21zM173 516l-85 122q-4 8 -4 12q0 11 16 18q65 -59 115 -94q32 25 103 94q17 -8 17 -19q0 -3 -4 -11l-100 -146q-25 0 -36 4.5t-22 19.5z" glyph-name="rcaron" horiz-adv-x="379" unicode="ř"/>
<glyph d="M473 493q-10 -2 -15 -2q-20 0 -28 16q-26 57 -63 83t-97 26q-50 0 -84 -26t-34 -70q0 -45 36.5 -75t119.5 -63q97 -39 142 -86t45 -113q0 -88 -54 -141.5t-167 -53.5q-121 0 -198 47q-5 76 -23 159q7 3 17 3q21 0 30 -23q26 -74 65.5 -107t109.5 -33q61 0 94.5 32.5 t33.5 80.5q0 49 -33 79.5t-104 56.5q-97 35 -143.5 78.5t-46.5 121.5q0 76 53.5 127t141.5 51q87 0 187 -39q4 -72 15 -129zM230 742l139 109q22 -8 34.5 -24t12.5 -32q0 -23 -22 -29q-70 -18 -162 -56q-10 10 -10 19q0 7 8 13z" glyph-name="Sacute" horiz-adv-x="552" unicode="Ś"/>
<glyph d="M329 310l-23 1q-14 0 -16 11q-13 76 -96 76q-30 0 -52 -17.5t-22 -44.5q0 -26 20.5 -43.5t74.5 -34.5q67 -21 100 -50.5t33 -87.5q0 -56 -40.5 -94t-117.5 -38q-85 0 -143 33q-5 57 -5 112h10q24 0 25 -15q4 -43 33.5 -68t78.5 -25q40 0 62.5 18.5t22.5 50.5 q0 31 -22.5 49t-72.5 33q-64 19 -95 49t-31 83t39 89.5t101 36.5q77 0 131 -33q5 -33 5 -91zM162 524l96 148q28 0 46.5 -15.5t18.5 -33.5q0 -16 -14 -24q-58 -38 -135 -106q-17 9 -17 19q0 5 5 12z" glyph-name="sacute" horiz-adv-x="387" unicode="ś"/>
<glyph d="M473 493q-10 -2 -15 -2q-20 0 -28 16q-26 57 -63 83t-97 26q-50 0 -84 -26t-34 -70q0 -45 36.5 -75t119.5 -63q97 -39 142 -86t45 -113q0 -88 -54 -141.5t-167 -53.5q-121 0 -198 47q-5 76 -23 159q7 3 17 3q21 0 30 -23q26 -74 65.5 -107t109.5 -33q61 0 94.5 32.5 t33.5 80.5q0 49 -33 79.5t-104 56.5q-97 35 -143.5 78.5t-46.5 121.5q0 76 53.5 127t141.5 51q87 0 187 -39q4 -72 15 -129zM325 829l92 -89q4 -4 4 -10q0 -12 -16 -20q-73 43 -121 66q-39 -20 -113 -66q-17 8 -17 19q0 6 5 11l108 113q22 0 32.5 -4.5t25.5 -19.5z" glyph-name="Scircumflex" horiz-adv-x="552" unicode="Ŝ"/>
<glyph d="M329 310l-23 1q-14 0 -16 11q-13 76 -96 76q-30 0 -52 -17.5t-22 -44.5q0 -26 20.5 -43.5t74.5 -34.5q67 -21 100 -50.5t33 -87.5q0 -56 -40.5 -94t-117.5 -38q-85 0 -143 33q-5 57 -5 112h10q24 0 25 -15q4 -43 33.5 -68t78.5 -25q40 0 62.5 18.5t22.5 50.5 q0 31 -22.5 49t-72.5 33q-64 19 -95 49t-31 83t39 89.5t101 36.5q77 0 131 -33q5 -33 5 -91zM239 644l82 -122q4 -8 4 -12q0 -11 -16 -18q-76 68 -112 94q-16 -12 -31.5 -25.5t-38 -35.5t-34.5 -33q-17 8 -17 19q0 3 4 11l101 146q25 0 36 -4.5t22 -19.5z" glyph-name="scircumflex" horiz-adv-x="387" unicode="ŝ"/>
<glyph d="M473 493q-10 -2 -15 -2q-20 0 -28 16q-26 57 -63 83t-97 26q-50 0 -84 -26t-34 -70q0 -45 36.5 -75t119.5 -63q97 -39 142 -86t45 -113q0 -82 -48.5 -135t-147.5 -59q-14 -24 -14 -34q0 -14 23 -35q28 -28 28 -57q0 -32 -28.5 -58.5t-81.5 -42.5q-6 10 -6 18q0 9 7 12 q42 22 42 56q0 19 -22 39q-22 22 -22 35q0 14 6 25.5t30 40.5q-115 3 -185 47q-5 76 -23 159q7 3 17 3q21 0 30 -23q26 -74 65.5 -107t109.5 -33q61 0 94.5 32.5t33.5 80.5q0 49 -33 79.5t-104 56.5q-97 35 -143.5 78.5t-46.5 121.5q0 76 53.5 127t141.5 51q87 0 187 -39 q4 -72 15 -129z" glyph-name="Scedilla" horiz-adv-x="552" unicode="Ş"/>
<glyph d="M329 310l-23 1q-14 0 -16 11q-13 76 -96 76q-30 0 -52 -17.5t-22 -44.5q0 -26 20.5 -43.5t74.5 -34.5q67 -21 100 -50.5t33 -87.5q0 -50 -32 -85.5t-93 -43.5q-15 -23 -15 -36q0 -14 23 -35q28 -28 28 -57q0 -32 -28.5 -58.5t-81.5 -42.5q-6 10 -6 18q0 9 7 12 q42 22 42 56q0 19 -22 39q-22 22 -22 35q0 14 6 25.5t30 40.5q-83 2 -137 33q-5 57 -5 112h10q24 0 25 -15q4 -43 33.5 -68t78.5 -25q40 0 62.5 18.5t22.5 50.5q0 31 -22.5 49t-72.5 33q-64 19 -95 49t-31 83t39 89.5t101 36.5q77 0 131 -33q5 -33 5 -91z" glyph-name="scedilla" horiz-adv-x="387" unicode="ş"/>
<glyph d="M473 493q-10 -2 -15 -2q-20 0 -28 16q-26 57 -63 83t-97 26q-50 0 -84 -26t-34 -70q0 -45 36.5 -75t119.5 -63q97 -39 142 -86t45 -113q0 -88 -54 -141.5t-167 -53.5q-121 0 -198 47q-5 76 -23 159q7 3 17 3q21 0 30 -23q26 -74 65.5 -107t109.5 -33q61 0 94.5 32.5 t33.5 80.5q0 49 -33 79.5t-104 56.5q-97 35 -143.5 78.5t-46.5 121.5q0 76 53.5 127t141.5 51q87 0 187 -39q4 -72 15 -129zM255 734l-92 89q-4 4 -4 10q0 12 16 20q73 -43 121 -66q39 20 113 66q17 -9 17 -19q0 -6 -5 -11l-108 -113q-22 0 -32.5 4.5t-25.5 19.5z" glyph-name="Scaron" horiz-adv-x="552" unicode="Š"/>
<glyph d="M329 310l-23 1q-14 0 -16 11q-13 76 -96 76q-30 0 -52 -17.5t-22 -44.5q0 -26 20.5 -43.5t74.5 -34.5q67 -21 100 -50.5t33 -87.5q0 -56 -40.5 -94t-117.5 -38q-85 0 -143 33q-5 57 -5 112h10q24 0 25 -15q4 -43 33.5 -68t78.5 -25q40 0 62.5 18.5t22.5 50.5 q0 31 -22.5 49t-72.5 33q-64 19 -95 49t-31 83t39 89.5t101 36.5q77 0 131 -33q5 -33 5 -91zM164 516l-85 122q-4 8 -4 12q0 11 16 18q65 -59 115 -94q32 25 103 94q17 -8 17 -19q0 -3 -4 -11l-100 -146q-25 0 -36 4.5t-22 19.5z" glyph-name="scaron" horiz-adv-x="387" unicode="š"/>
<glyph d="M313 0q-64 0 -129 -5q-2 10 -2 17q0 14 10 16q47 6 66 16t19 31v534h-103q-57 0 -83.5 -21.5t-51.5 -77.5q-4 -9 -15 -9t-19 6q7 25 13 52t8.5 42.5t5.5 29t8 19.5t12 6q8 0 47 -3t58 -3h334q18 0 57 3t48 3q12 0 17 -15.5t12 -57t18 -76.5q-12 -6 -20 -6q-12 0 -16 9 q-25 56 -51 77.5t-82 21.5h-103v-534q0 -22 18.5 -32t64.5 -15q11 0 11 -16q0 -7 -2 -17q-60 5 -116 5q-21 -34 -21 -45q0 -14 23 -35q28 -28 28 -57q0 -32 -28.5 -58.5t-81.5 -42.5q-6 10 -6 18q0 9 7 12q42 22 42 56q0 19 -22 39q-22 22 -22 35q0 15 7.5 27.5t39.5 50.5z " glyph-name="uni0162" horiz-adv-x="647" unicode="Ţ"/>
<glyph d="M270 59q8 7 14 7q9 0 16 -13q-49 -55 -105 -64q-14 -22 -14 -34q0 -14 23 -35q28 -28 28 -57q0 -32 -28.5 -58.5t-81.5 -42.5q-6 10 -6 18q0 9 7 12q42 22 42 56q0 19 -22 39q-22 22 -22 35q0 14 6 25.5t31 41.5q-75 10 -75 115v276h-60v11q0 19 13 19q46 0 72 50 q4 8 9 19t8 18t7.5 14.5t8.5 11t8 3.5h18v-104h117q0 -42 -21 -42h-96v-248q0 -60 10.5 -79t33.5 -19q26 0 59 25z" glyph-name="uni0163" horiz-adv-x="307" unicode="ţ"/>
<glyph d="M474 609h-103v-534q0 -22 18.5 -32t64.5 -15q11 0 11 -16q0 -7 -2 -17q-70 5 -139 5q-70 0 -140 -5q-2 10 -2 17q0 14 10 16q47 6 66 16t19 31v534h-103q-57 0 -83.5 -21.5t-51.5 -77.5q-4 -9 -15 -9t-19 6q7 25 13 52t8.5 42.5t5.5 29t8 19.5t12 6q8 0 47 -3t58 -3h334 q18 0 57 3t48 3q12 0 17 -15.5t12 -57t18 -76.5q-12 -6 -20 -6q-12 0 -16 9q-25 56 -51 77.5t-82 21.5zM283 734l-92 89q-4 4 -4 10q0 12 16 20q73 -43 121 -66q39 20 113 66q17 -9 17 -19q0 -6 -5 -11l-108 -113q-22 0 -32.5 4.5t-25.5 19.5z" glyph-name="Tcaron" horiz-adv-x="647" unicode="Ť"/>
<glyph d="M270 59q8 7 14 7q9 0 16 -13q-58 -65 -120 -65q-46 0 -71.5 24.5t-25.5 91.5v276h-60v11q0 19 13 19q46 0 72 50q4 8 9 19t8 18t7.5 14.5t8.5 11t8 3.5h18v-104h117q0 -42 -21 -42h-96v-248q0 -60 10.5 -79t33.5 -19q26 0 59 25zM252 509l-9 186q25 16 47 15t33 -15 q7 -12 3 -28q-17 -58 -41 -176q-24 -3 -29 5q-4 4 -4 13z" glyph-name="tcaron" horiz-adv-x="328" unicode="ť"/>
<glyph d="M474 609h-103v-217h143q1 -8 1 -20q0 -25 -16 -25h-128v-272q0 -22 18.5 -32t64.5 -15q11 0 11 -16q0 -7 -2 -17q-68 5 -139 5q-69 0 -139 -5q-2 10 -2 17q0 15 10 16q47 6 65.5 15.5t18.5 31.5v272h-143q-2 16 -2 20q0 25 17 25h128v217h-103q-57 0 -83.5 -21.5 t-51.5 -77.5q-4 -9 -15 -9t-19 6q7 25 13 52t8.5 42.5t5.5 29t8 19.5t12 6q8 0 47.5 -3t57.5 -3h334q18 0 57 3t48 3q12 0 17.5 -15.5t12 -57t17.5 -76.5q-10 -6 -19 -6q-12 0 -16 9q-25 56 -51.5 77.5t-82.5 21.5z" glyph-name="Tbar" horiz-adv-x="648" unicode="Ŧ"/>
<glyph d="M272 59q8 7 14 7q8 0 15 -13q-58 -65 -120 -65q-46 0 -71 24.5t-25 91.5v131h-58q-2 8 -2 20q0 19 15 19h45v106h-60v11q0 19 13 19q47 0 71 50q4 7 9 18.5t8.5 18.5t7.5 14.5t8 11t9 3.5h17v-104h117q0 -42 -21 -42h-96v-106h101q-2 -39 -17 -39h-84v-103q0 -60 11 -79 t34 -19q24 0 59 25z" glyph-name="tbar" horiz-adv-x="308" unicode="ŧ"/>
<glyph d="M649 579v-336q0 -122 -60.5 -188.5t-201.5 -66.5q-67 0 -116 14.5t-78 37t-46 57t-22.5 67.5t-5.5 75v340q0 20 -14 29t-53 14q-10 1 -10 17q0 6 2 16q67 -5 122 -5q59 0 126 5q2 -10 2 -16q0 -16 -10 -17q-39 -5 -55 -14t-16 -29v-318q0 -107 43 -161t139 -54 q111 0 158.5 50.5t47.5 167.5v315q0 20 -15 29t-54 14q-11 1 -11 17q0 6 2 16q63 -5 104 -5q44 0 97 5q2 -10 2 -16q0 -15 -11 -17q-37 -4 -51.5 -13.5t-14.5 -29.5zM271 738q51 73 98 73q21 0 57 -18q25 -12 46 -12q41 0 67 27q15 -8 15 -19q0 -4 -3 -10q-49 -69 -94 -69 q-28 0 -62 16q-32 16 -47 16q-35 0 -64 -32q-16 8 -16 19q0 5 3 9z" glyph-name="Utilde" horiz-adv-x="761" unicode="Ũ"/>
<glyph d="M90 122v208q0 34 -9.5 45t-43.5 14q-13 2 -13 13q0 6 2 14q41 0 71 6q15 2 36.5 7t26.5 5q14 0 14 -15v-250q0 -56 16 -85.5t59 -29.5q54 0 93 35t39 95v146q0 32 -10 44t-44 15q-13 2 -13 13q0 6 2 14q40 0 72 6q15 2 36 7t26 5q14 0 14 -15v-325q0 -33 10 -44.5 t44 -14.5q13 -2 13 -13q0 -6 -2 -14q-30 0 -80 -9t-54 -9q-14 0 -14 15v83q-1 -1 -12 -13t-25.5 -25.5t-34.5 -28t-45.5 -24t-51.5 -9.5q-60 0 -91 35t-31 99zM140 559q50 70 97 70q23 0 52 -16q28 -14 48 -14q37 0 64 30q16 -7 16 -19q0 -8 -3 -9q-49 -70 -93 -70 q-26 0 -60 17q-29 15 -46 15q-32 0 -61 -32q-17 9 -17 19q0 4 3 9z" glyph-name="utilde" horiz-adv-x="559" unicode="ũ"/>
<glyph d="M649 579v-336q0 -122 -60.5 -188.5t-201.5 -66.5q-67 0 -116 14.5t-78 37t-46 57t-22.5 67.5t-5.5 75v340q0 20 -14 29t-53 14q-10 1 -10 17q0 6 2 16q67 -5 122 -5q59 0 126 5q2 -10 2 -16q0 -16 -10 -17q-39 -5 -55 -14t-16 -29v-318q0 -107 43 -161t139 -54 q111 0 158.5 50.5t47.5 167.5v315q0 20 -15 29t-54 14q-11 1 -11 17q0 6 2 16q63 -5 104 -5q44 0 97 5q2 -10 2 -16q0 -15 -11 -17q-37 -4 -51.5 -13.5t-14.5 -29.5zM542 793q5 -23 5 -31q0 -23 -23 -23h-251q-4 19 -4 32t5.5 17.5t16.5 4.5h251z" glyph-name="Umacron" horiz-adv-x="761" unicode="Ū"/>
<glyph d="M90 122v208q0 34 -9.5 45t-43.5 14q-13 2 -13 13q0 6 2 14q41 0 71 6q15 2 36.5 7t26.5 5q14 0 14 -15v-250q0 -56 16 -85.5t59 -29.5q54 0 93 35t39 95v146q0 32 -10 44t-44 15q-13 2 -13 13q0 6 2 14q40 0 72 6q15 2 36 7t26 5q14 0 14 -15v-325q0 -33 10 -44.5 t44 -14.5q13 -2 13 -13q0 -6 -2 -14q-30 0 -80 -9t-54 -9q-14 0 -14 15v83q-1 -1 -12 -13t-25.5 -25.5t-34.5 -28t-45.5 -24t-51.5 -9.5q-60 0 -91 35t-31 99zM390 552h-251q-5 22 -5 31q0 22 23 22h251q4 -17 4 -31t-5.5 -18t-16.5 -4z" glyph-name="umacron" horiz-adv-x="559" unicode="ū"/>
<glyph d="M649 579v-336q0 -122 -60.5 -188.5t-201.5 -66.5q-67 0 -116 14.5t-78 37t-46 57t-22.5 67.5t-5.5 75v340q0 20 -14 29t-53 14q-10 1 -10 17q0 6 2 16q67 -5 122 -5q59 0 126 5q2 -10 2 -16q0 -16 -10 -17q-39 -5 -55 -14t-16 -29v-318q0 -107 43 -161t139 -54 q111 0 158.5 50.5t47.5 167.5v315q0 20 -15 29t-54 14q-11 1 -11 17q0 6 2 16q63 -5 104 -5q44 0 97 5q2 -10 2 -16q0 -15 -11 -17q-37 -4 -51.5 -13.5t-14.5 -29.5zM289 853q42 -76 124 -76q31 0 62 19t52 57q22 -4 22 -16q0 -3 -2 -7q-16 -54 -56 -87t-83 -33 q-47 0 -84.5 29t-53.5 85q-2 8 -2 12q0 13 21 17z" glyph-name="Ubreve" horiz-adv-x="761" unicode="Ŭ"/>
<glyph d="M90 122v208q0 34 -9.5 45t-43.5 14q-13 2 -13 13q0 6 2 14q41 0 71 6q15 2 36.5 7t26.5 5q14 0 14 -15v-250q0 -56 16 -85.5t59 -29.5q54 0 93 35t39 95v146q0 32 -10 44t-44 15q-13 2 -13 13q0 6 2 14q40 0 72 6q15 2 36 7t26 5q14 0 14 -15v-325q0 -33 10 -44.5 t44 -14.5q13 -2 13 -13q0 -6 -2 -14q-30 0 -80 -9t-54 -9q-14 0 -14 15v83q-1 -1 -12 -13t-25.5 -25.5t-34.5 -28t-45.5 -24t-51.5 -9.5q-60 0 -91 35t-31 99zM270 574q64 0 110 81q22 -4 22 -16q0 -4 -2 -10q-17 -53 -54.5 -86.5t-80.5 -33.5q-47 0 -84.5 32t-51.5 91 q0 1 -1 4v2q0 13 22 17q44 -81 120 -81z" glyph-name="ubreve" horiz-adv-x="559" unicode="ŭ"/>
<glyph d="M649 579v-336q0 -122 -60.5 -188.5t-201.5 -66.5q-67 0 -116 14.5t-78 37t-46 57t-22.5 67.5t-5.5 75v340q0 20 -14 29t-53 14q-10 1 -10 17q0 6 2 16q67 -5 122 -5q59 0 126 5q2 -10 2 -16q0 -16 -10 -17q-39 -5 -55 -14t-16 -29v-318q0 -107 43 -161t139 -54 q111 0 158.5 50.5t47.5 167.5v315q0 20 -15 29t-54 14q-11 1 -11 17q0 6 2 16q63 -5 104 -5q44 0 97 5q2 -10 2 -16q0 -15 -11 -17q-37 -4 -51.5 -13.5t-14.5 -29.5zM315 794q0 39 27.5 63.5t66.5 24.5q35 0 62.5 -24.5t27.5 -63.5t-27.5 -63.5t-63.5 -24.5q-38 0 -65.5 24 t-27.5 64zM402 847q-15 0 -26.5 -12.5t-11.5 -34.5q0 -23 13 -40t32 -17t30 12.5t11 33.5q0 25 -12.5 41.5t-35.5 16.5z" glyph-name="Uring" horiz-adv-x="761" unicode="Ů"/>
<glyph d="M90 122v208q0 34 -9.5 45t-43.5 14q-13 2 -13 13q0 6 2 14q41 0 71 6q15 2 36.5 7t26.5 5q14 0 14 -15v-250q0 -56 16 -85.5t59 -29.5q54 0 93 35t39 95v146q0 32 -10 44t-44 15q-13 2 -13 13q0 6 2 14q40 0 72 6q15 2 36 7t26 5q14 0 14 -15v-325q0 -33 10 -44.5 t44 -14.5q13 -2 13 -13q0 -6 -2 -14q-30 0 -80 -9t-54 -9q-14 0 -14 15v83q-1 -1 -12 -13t-25.5 -25.5t-34.5 -28t-45.5 -24t-51.5 -9.5q-60 0 -91 35t-31 99zM170 578q0 39 27.5 63t66.5 24q36 0 63.5 -24t27.5 -63t-27.5 -63.5t-64.5 -24.5q-38 0 -65.5 24t-27.5 64z M257 631q-15 0 -27 -13t-12 -35q0 -24 13.5 -41.5t32.5 -17.5t31 13t12 35q0 24 -13 41.5t-37 17.5z" glyph-name="uring" horiz-adv-x="559" unicode="ů"/>
<glyph d="M649 579v-336q0 -122 -60.5 -188.5t-201.5 -66.5q-67 0 -116 14.5t-78 37t-46 57t-22.5 67.5t-5.5 75v340q0 20 -14 29t-53 14q-10 1 -10 17q0 6 2 16q67 -5 122 -5q59 0 126 5q2 -10 2 -16q0 -16 -10 -17q-39 -5 -55 -14t-16 -29v-318q0 -107 43 -161t139 -54 q111 0 158.5 50.5t47.5 167.5v315q0 20 -15 29t-54 14q-11 1 -11 17q0 6 2 16q63 -5 104 -5q44 0 97 5q2 -10 2 -16q0 -15 -11 -17q-37 -4 -51.5 -13.5t-14.5 -29.5zM297 728l62 146q4 1 11 1q25 0 41.5 -13.5t16.5 -30.5q0 -13 -11 -22q-32 -28 -51 -48t-52 -61 q-19 8 -19 20q0 4 2 8zM445 728l63 146q4 1 11 1q25 0 41.5 -13.5t16.5 -30.5q0 -13 -11 -22q-53 -46 -103 -109q-20 8 -20 20q0 4 2 8z" glyph-name="Uhungarumlaut" horiz-adv-x="761" unicode="Ű"/>
<glyph d="M90 122v208q0 34 -9.5 45t-43.5 14q-13 2 -13 13q0 6 2 14q41 0 71 6q15 2 36.5 7t26.5 5q14 0 14 -15v-250q0 -56 16 -85.5t59 -29.5q54 0 93 35t39 95v146q0 32 -10 44t-44 15q-13 2 -13 13q0 6 2 14q40 0 72 6q15 2 36 7t26 5q14 0 14 -15v-325q0 -33 10 -44.5 t44 -14.5q13 -2 13 -13q0 -6 -2 -14q-30 0 -80 -9t-54 -9q-14 0 -14 15v83q-1 -1 -12 -13t-25.5 -25.5t-34.5 -28t-45.5 -24t-51.5 -9.5q-60 0 -91 35t-31 99zM168 502l39 167q15 6 28 6q21 0 35.5 -12t14.5 -27q0 -10 -7 -17q-42 -56 -88 -142q-23 2 -23 18q0 1 0.5 3.5 t0.5 3.5zM308 502l41 167q13 6 27 6q22 0 36.5 -11.5t14.5 -27.5q0 -10 -7 -17q-44 -58 -90 -142q-23 3 -23 18q0 1 0.5 3.5t0.5 3.5z" glyph-name="uhungarumlaut" horiz-adv-x="559" unicode="ű"/>
<glyph d="M653 579v-336q0 -92 -32 -150t-103 -89q-49 -22 -74.5 -61.5t-25.5 -76.5q0 -47 41 -47q13 0 26 4.5t17 4.5q11 0 12 -21q-46 -33 -92 -33q-33 0 -53 17.5t-20 53.5t25 70.5t68 75.5q-24 -3 -51 -3q-67 0 -116 14.5t-78 37t-46 57t-22.5 67.5t-5.5 75v340q0 20 -14 29 t-53 14q-10 1 -10 17q0 6 2 16q67 -5 122 -5q59 0 126 5q2 -10 2 -16q0 -16 -10 -17q-39 -5 -55 -14t-16 -29v-318q0 -107 43 -161t139 -54q111 0 158.5 50.5t47.5 167.5v315q0 20 -15 29t-54 14q-11 1 -11 17q0 6 2 16q63 -5 104 -5q44 0 97 5q2 -10 2 -16q0 -15 -11 -17 q-37 -4 -51.5 -13.5t-14.5 -29.5z" glyph-name="Uogonek" horiz-adv-x="769" unicode="Ų"/>
<glyph d="M90 122v208q0 34 -9.5 45t-43.5 14q-13 2 -13 13q0 6 2 14q41 0 71 6q15 2 36.5 7t26.5 5q14 0 14 -15v-250q0 -56 16 -85.5t59 -29.5q54 0 93 35t39 95v146q0 32 -10 44t-44 15q-13 2 -13 13q0 6 2 14q40 0 72 6q15 2 36 7t26 5q14 0 14 -15v-325q0 -33 10 -44.5 t44 -14.5q13 -2 13 -13q0 -6 -2 -14q-17 0 -37 -3q-82 -72 -82 -139q0 -47 41 -47q13 0 26 4.5t17 4.5q11 0 12 -21q-46 -33 -92 -33q-33 0 -53 17.5t-20 53.5q0 26 18 57t35 49.5t47 46.5q-44 -8 -46 -8q-14 0 -14 15v83q-1 -1 -12 -13t-25.5 -25.5t-34.5 -28t-45.5 -24 t-51.5 -9.5q-60 0 -91 35t-31 99z" glyph-name="uogonek" horiz-adv-x="559" unicode="ų"/>
<glyph d="M341 164l172 496q6 2 10 2q10 0 14 -13l169 -485l142 406q4 16 4 20q0 25 -61 32q-11 1 -11 17q0 8 2 16q57 -5 105 -5q60 0 95 5q0 -2 1 -8t1 -8q0 -16 -12 -18q-31 -4 -46 -12t-22 -26l-211 -593q-6 -2 -11 -2q-12 0 -18 18l-167 471l-170 -487q-4 -2 -10 -2 q-12 0 -18 18l-215 582q-5 14 -18.5 21t-49.5 12q-11 3 -11 19q0 5 2 15q62 -5 123 -5q59 0 127 5q2 -10 2 -16q0 -15 -11 -17q-61 -6 -61 -33q0 -6 3 -12zM563 829l92 -89q4 -4 4 -10q0 -12 -16 -20q-73 43 -121 66q-39 -20 -113 -66q-17 8 -17 19q0 6 5 11l108 113 q22 0 32.5 -4.5t25.5 -19.5z" glyph-name="Wcircumflex" horiz-adv-x="988" unicode="Ŵ"/>
<glyph d="M394 432l132 -323q9 24 29 74t31 78.5t20.5 61t9.5 49.5q0 12 -27 21t-27 19q0 7 3 13q42 -3 84 -3q36 0 69 3q3 -6 3 -13q0 -13 -13 -14q-24 -5 -33 -13t-20 -37l-139 -358q-8 -2 -16 -2t-12.5 5.5t-13.5 27.5l-112 272l-118 -303q-10 -2 -17 -2q-10 0 -16 10t-16 36 l-129 314q-12 29 -21 37t-31 12q-13 3 -13 15q0 7 3 13q39 -3 90 -3h34q13 0 26 0.5t29 1.5t25 1q3 -6 3 -13q0 -12 -13 -13q-46 -7 -46 -22q0 -13 24 -74l77 -193l120 313q4 11 12 11q3 0 9 -2zM430 644l82 -122q4 -8 4 -12q0 -11 -16 -18q-76 68 -112 94 q-16 -12 -31.5 -25.5t-38 -35.5t-34.5 -33q-17 8 -17 19q0 3 4 11l101 146q25 0 36 -4.5t22 -19.5z" glyph-name="wcircumflex" horiz-adv-x="722" unicode="ŵ"/>
<glyph d="M248 73v215l-167 300q-18 27 -66 34q-10 1 -10 18l2 15q48 -5 122 -5q72 0 120 5q2 -12 2 -16q0 -15 -10 -17q-52 -7 -52 -25q0 -8 7 -19l124 -224l117 208q10 18 10 28q0 22 -56 32q-11 1 -11 17l2 16q48 -5 106 -5q44 0 99 5q2 -12 2 -16q0 -14 -11 -17 q-35 -4 -49.5 -12t-24.5 -26l-162 -287v-224q0 -21 15.5 -30t56.5 -15q11 -2 11 -16l-2 -16q-83 5 -129 5l-127 -5q-2 12 -2 16q0 14 10 16q43 8 58 16.5t15 28.5zM352 829l92 -89q4 -4 4 -10q0 -12 -16 -20q-73 43 -121 66q-39 -20 -113 -66q-17 8 -17 19q0 6 5 11l108 113 q22 0 32.5 -4.5t25.5 -19.5z" glyph-name="Ycircumflex" horiz-adv-x="594" unicode="Ŷ"/>
<glyph d="M184 303l88 -194q12 29 42 98.5t45 108.5t15 56q0 12 -25.5 21t-25.5 19q0 1 3 13q39 -3 83 -3q42 0 72 3q3 -6 3 -13q0 -11 -13 -14q-29 -7 -37.5 -14t-20.5 -36l-205 -484q-20 -48 -60 -76t-86 -28q-15 0 -15 15q0 24 11 47t25 23q5 0 14.5 -1.5t14.5 -1.5 q26 0 39.5 10t23.5 34l51 119l-154 343q-13 28 -22.5 36t-35.5 13q-13 3 -13 15q0 7 3 13q39 -3 87 -3h29q45 0 87 3q3 -6 3 -13q0 -12 -13 -13q-39 -6 -39 -21q0 -20 26 -75zM304 644l82 -122q4 -8 4 -12q0 -11 -16 -18q-76 68 -112 94q-16 -12 -31.5 -25.5t-38 -35.5 t-34.5 -33q-17 8 -17 19q0 3 4 11l101 146q25 0 36 -4.5t22 -19.5z" glyph-name="ycircumflex" horiz-adv-x="486" unicode="ŷ"/>
<glyph d="M248 73v215l-167 300q-18 27 -66 34q-10 1 -10 18l2 15q48 -5 122 -5q72 0 120 5q2 -12 2 -16q0 -15 -10 -17q-52 -7 -52 -25q0 -8 7 -19l124 -224l117 208q10 18 10 28q0 22 -56 32q-11 1 -11 17l2 16q48 -5 106 -5q44 0 99 5q2 -12 2 -16q0 -14 -11 -17 q-35 -4 -49.5 -12t-24.5 -26l-162 -287v-224q0 -21 15.5 -30t56.5 -15q11 -2 11 -16l-2 -16q-83 5 -129 5l-127 -5q-2 12 -2 16q0 14 10 16q43 8 58 16.5t15 28.5zM218 710q-24 0 -40.5 16.5t-16.5 40.5t16.5 41t40.5 17q23 0 39 -17t16 -41t-16 -40.5t-39 -16.5zM420 710 q-23 0 -40 16.5t-17 40.5t17 41t40 17t39 -17t16 -41t-16 -40.5t-39 -16.5z" glyph-name="Ydieresis" horiz-adv-x="594" unicode="Ÿ"/>
<glyph d="M551 630l-374 -589h229q61 0 86 25t47 90q4 15 18 15q11 0 20 -6q-17 -83 -21 -150q-1 -21 -22 -21q-10 0 -46.5 3t-59.5 3h-387q0 10 4 17l380 592h-223q-69 0 -92 -19t-36 -84q-3 -15 -20 -15q-10 0 -20 6q12 74 16 138q1 20 21 20q10 0 43 -2.5t56 -2.5h385 q0 -13 -4 -20zM237 742l139 109q22 -8 34.5 -24t12.5 -32q0 -23 -22 -29q-70 -18 -162 -56q-10 10 -10 19q0 7 8 13z" glyph-name="Zacute" horiz-adv-x="608" unicode="Ź"/>
<glyph d="M274 385h-130q-34 0 -48.5 -14.5t-21.5 -58.5q-2 -9 -14 -9q-6 0 -11 3q2 23 5 90q2 26 18 26h311q2 -4 2 -7t-7 -14l-230 -364h151q26 0 41.5 18.5t27.5 58.5q3 10 15 10q3 0 12 -3l-10 -113q-1 -12 -15 -12q-11 0 -37 2q-42 2 -67 2h-231q-1 1 -1 6q0 4 7 15zM165 524 l96 148q28 0 46.5 -15.5t18.5 -33.5q0 -16 -14 -24q-58 -38 -135 -106q-17 9 -17 19q0 5 5 12z" glyph-name="zacute" horiz-adv-x="426" unicode="ź"/>
<glyph d="M551 630l-374 -589h229q61 0 86 25t47 90q4 15 18 15q11 0 20 -6q-17 -83 -21 -150q-1 -21 -22 -21q-10 0 -46.5 3t-59.5 3h-387q0 10 4 17l380 592h-223q-69 0 -92 -19t-36 -84q-3 -15 -20 -15q-10 0 -20 6q12 74 16 138q1 20 21 20q10 0 43 -2.5t56 -2.5h385 q0 -13 -4 -20zM253 775q0 24 17 41.5t41 17.5t40 -17.5t16 -41.5q0 -25 -16 -41.5t-40 -16.5q-25 0 -41.5 16.5t-16.5 41.5z" glyph-name="Zdotaccent" horiz-adv-x="608" unicode="Ż"/>
<glyph d="M274 385h-130q-34 0 -48.5 -14.5t-21.5 -58.5q-2 -9 -14 -9q-6 0 -11 3q2 23 5 90q2 26 18 26h311q2 -4 2 -7t-7 -14l-230 -364h151q26 0 41.5 18.5t27.5 58.5q3 10 15 10q3 0 12 -3l-10 -113q-1 -12 -15 -12q-11 0 -37 2q-42 2 -67 2h-231q-1 1 -1 6q0 4 7 15zM163 601 q0 24 17 41.5t41 17.5t40 -17.5t16 -41.5q0 -25 -16 -41.5t-40 -16.5q-25 0 -41.5 16.5t-16.5 41.5z" glyph-name="zdotaccent" horiz-adv-x="426" unicode="ż"/>
<glyph d="M551 630l-374 -589h229q61 0 86 25t47 90q4 15 18 15q11 0 20 -6q-17 -83 -21 -150q-1 -21 -22 -21q-10 0 -46.5 3t-59.5 3h-387q0 10 4 17l380 592h-223q-69 0 -92 -19t-36 -84q-3 -15 -20 -15q-10 0 -20 6q12 74 16 138q1 20 21 20q10 0 43 -2.5t56 -2.5h385 q0 -13 -4 -20zM262 734l-92 89q-4 4 -4 10q0 12 16 20q73 -43 121 -66q39 20 113 66q17 -9 17 -19q0 -6 -5 -11l-108 -113q-22 0 -32.5 4.5t-25.5 19.5z" glyph-name="Zcaron" horiz-adv-x="608" unicode="Ž"/>
<glyph d="M274 385h-130q-34 0 -48.5 -14.5t-21.5 -58.5q-2 -9 -14 -9q-6 0 -11 3q2 23 5 90q2 26 18 26h311q2 -4 2 -7t-7 -14l-230 -364h151q26 0 41.5 18.5t27.5 58.5q3 10 15 10q3 0 12 -3l-10 -113q-1 -12 -15 -12q-11 0 -37 2q-42 2 -67 2h-231q-1 1 -1 6q0 4 7 15zM183 516 l-85 122q-4 8 -4 12q0 11 16 18q65 -59 115 -94q32 25 103 94q17 -8 17 -19q0 -3 -4 -11l-100 -146q-25 0 -36 4.5t-22 19.5z" glyph-name="zcaron" horiz-adv-x="426" unicode="ž"/>
<glyph d="M97 58v434q0 101 51 154.5t115 53.5q63 0 104 -23.5t41 -52.5q0 -11 -25 -20t-37 -9q-14 0 -21 12q-9 18 -16.5 28t-22 19t-34.5 9q-71 0 -71 -114v-475q0 -24 21.5 -34t76.5 -16q11 -2 11 -13q0 -2 -1 -9l-1 -7q-45 5 -138 5q-65 0 -110 -5l-1 7q-1 7 -1 9q0 10 9 12 q50 9 50 35z" glyph-name="longs" horiz-adv-x="309" unicode="ſ"/>
<glyph d="M284 344h130q2 -14 2 -18q0 -24 -17 -24h-123l-13 -75q-23 -144 -68.5 -222t-111.5 -118q-26 -15 -58 -15q-44 0 -44 23q0 20 8 45t22 25q8 0 12 -4q26 -22 51 -22q32 0 53 49.5t40 164.5l25 149h-108q-1 7 -1 19q0 23 16 23h99l14 86q14 87 76 145.5t134 58.5 q44 0 44 -24q0 -16 -8 -37.5t-22 -21.5q-8 0 -12 4q-30 23 -51 23t-33 -10t-24.5 -49.5t-23.5 -118.5z" glyph-name="florin" horiz-adv-x="477" unicode="ƒ"/>
<glyph d="M473 493q-10 -2 -15 -2q-20 0 -28 16q-26 57 -63 83t-97 26q-50 0 -84 -26t-34 -70q0 -45 36.5 -75t119.5 -63q97 -39 142 -86t45 -113q0 -88 -54 -141.5t-167 -53.5q-121 0 -198 47q-5 76 -23 159q7 3 17 3q21 0 30 -23q26 -74 65.5 -107t109.5 -33q61 0 94.5 32.5 t33.5 80.5q0 49 -33 79.5t-104 56.5q-97 35 -143.5 78.5t-46.5 121.5q0 76 53.5 127t141.5 51q87 0 187 -39q4 -72 15 -129zM247 -251q-10 8 -10 18q0 7 4 11q36 37 36 64q0 26 -36 43q-13 8 -13 21q0 25 39 48q26 -10 46 -34t20 -54q0 -62 -86 -117z" glyph-name="Scommaaccent" horiz-adv-x="552" unicode="Ș"/>
<glyph d="M329 310l-23 1q-14 0 -16 11q-13 76 -96 76q-30 0 -52 -17.5t-22 -44.5q0 -26 20.5 -43.5t74.5 -34.5q67 -21 100 -50.5t33 -87.5q0 -56 -40.5 -94t-117.5 -38q-85 0 -143 33q-5 57 -5 112h10q24 0 25 -15q4 -43 33.5 -68t78.5 -25q40 0 62.5 18.5t22.5 50.5 q0 31 -22.5 49t-72.5 33q-64 19 -95 49t-31 83t39 89.5t101 36.5q77 0 131 -33q5 -33 5 -91zM150 -251q-10 8 -10 18q0 7 4 11q36 37 36 64q0 26 -36 43q-13 8 -13 21q0 25 39 48q26 -10 46 -34t20 -54q0 -62 -86 -117z" glyph-name="scommaaccent" horiz-adv-x="387" unicode="ș"/>
<glyph d="M474 609h-103v-534q0 -22 18.5 -32t64.5 -15q11 0 11 -16q0 -7 -2 -17q-70 5 -139 5q-70 0 -140 -5q-2 10 -2 17q0 14 10 16q47 6 66 16t19 31v534h-103q-57 0 -83.5 -21.5t-51.5 -77.5q-4 -9 -15 -9t-19 6q7 25 13 52t8.5 42.5t5.5 29t8 19.5t12 6q8 0 47 -3t58 -3h334 q18 0 57 3t48 3q12 0 17 -15.5t12 -57t18 -76.5q-12 -6 -20 -6q-12 0 -16 9q-25 56 -51 77.5t-82 21.5zM284 -251q-10 8 -10 18q0 7 4 11q36 37 36 64q0 26 -36 43q-13 8 -13 21q0 25 39 48q26 -10 46 -34t20 -54q0 -62 -86 -117z" glyph-name="uni021A" horiz-adv-x="647" unicode="Ț"/>
<glyph d="M270 59q8 7 14 7q9 0 16 -13q-58 -65 -120 -65q-46 0 -71.5 24.5t-25.5 91.5v276h-60v11q0 19 13 19q46 0 72 50q4 8 9 19t8 18t7.5 14.5t8.5 11t8 3.5h18v-104h117q0 -42 -21 -42h-96v-248q0 -60 10.5 -79t33.5 -19q26 0 59 25zM123 -251q-10 8 -10 18q0 7 4 11 q36 37 36 64q0 26 -36 43q-13 8 -13 21q0 25 39 48q26 -10 46 -34t20 -54q0 -62 -86 -117z" glyph-name="uni021B" horiz-adv-x="307" unicode="ț"/>
<glyph d="M99 0v330q0 33 -11.5 44t-49.5 15q-14 0 -14 14q0 5 2 13q46 0 81 5q12 2 27 5.5t24.5 5.5t14.5 2q15 0 15 -15q0 -6 -3 -33.5t-3 -51.5v-234q0 -50 -1.5 -79t-7.5 -61t-16.5 -52t-31.5 -45.5t-48.5 -48.5t-70.5 -54q-12 10 -12 21q0 5 6 11q57 56 78 98.5t21 109.5z" glyph-name="dotlessj" horiz-adv-x="269" unicode="ȷ"/>
<glyph d="M68 453q-13 8 -13 19q0 6 6 11q47 43 47 77q0 33 -45 52q-15 4 -15 21q0 30 41 49q32 -10 55.5 -35.5t23.5 -59.5q0 -68 -100 -134z" glyph-name="apostrophe" horiz-adv-x="226" unicode="ʼ"/>
<glyph d="M274 644l82 -122q4 -8 4 -12q0 -11 -16 -18q-76 68 -112 94q-16 -12 -31.5 -25.5t-38 -35.5t-34.5 -33q-17 8 -17 19q0 3 4 11l101 146q25 0 36 -4.5t22 -19.5z" glyph-name="circumflex" horiz-adv-x="500" unicode="ˆ"/>
<glyph d="M201 516l-85 122q-4 8 -4 12q0 11 16 18q65 -59 115 -94q32 25 103 94q17 -8 17 -19q0 -3 -4 -11l-100 -146q-25 0 -36 4.5t-22 19.5z" glyph-name="caron" horiz-adv-x="503" unicode="ˇ"/>
<glyph d="M364 552h-251q-5 22 -5 31q0 22 23 22h251q4 -17 4 -31t-5.5 -18t-16.5 -4z" glyph-name="uni02C9" horiz-adv-x="500" unicode="ˉ"/>
<glyph d="M240 574q64 0 110 81q22 -4 22 -16q0 -4 -2 -10q-17 -53 -54.5 -86.5t-80.5 -33.5q-47 0 -84.5 32t-51.5 91q0 1 -1 4v2q0 13 22 17q44 -81 120 -81z" glyph-name="breve" horiz-adv-x="503" unicode="˘"/>
<glyph d="M187 601q0 24 17 41.5t41 17.5t40 -17.5t16 -41.5q0 -25 -16 -41.5t-40 -16.5q-25 0 -41.5 16.5t-16.5 41.5z" glyph-name="dotaccent" horiz-adv-x="500" unicode="˙"/>
<glyph d="M150 578q0 39 27.5 63t66.5 24q36 0 63.5 -24t27.5 -63t-27.5 -63.5t-64.5 -24.5q-38 0 -65.5 24t-27.5 64zM237 631q-15 0 -27 -13t-12 -35q0 -24 13.5 -41.5t32.5 -17.5t31 13t12 35q0 24 -13 41.5t-37 17.5z" glyph-name="ring" horiz-adv-x="500" unicode="˚"/>
<glyph d="M232 1l47 2q-82 -71 -82 -137q0 -47 41 -47q12 0 26 4.5t17 4.5q11 0 12 -21q-46 -33 -92 -33q-33 0 -53 17.5t-20 53.5q0 27 19.5 59t36 49t48.5 48z" glyph-name="ogonek" horiz-adv-x="503" unicode="˛"/>
<glyph d="M110 559q50 70 97 70q23 0 52 -16q28 -14 48 -14q37 0 64 30q16 -7 16 -19q0 -8 -3 -9q-49 -70 -93 -70q-26 0 -60 17q-29 15 -46 15q-32 0 -61 -32q-17 9 -17 19q0 4 3 9z" glyph-name="tilde" horiz-adv-x="500" unicode="˜"/>
<glyph d="M125 502l39 167q15 6 28 6q21 0 35.5 -12t14.5 -27q0 -10 -7 -17q-42 -56 -88 -142q-23 2 -23 18q0 1 0.5 3.5t0.5 3.5zM265 502l41 167q14 6 27 6q22 0 36.5 -11.5t14.5 -27.5q0 -10 -7 -17q-44 -58 -90 -142q-23 3 -23 18q0 1 0.5 3.5t0.5 3.5z" glyph-name="hungarumlaut" horiz-adv-x="503" unicode="˝"/>
<glyph d="M574 0h-566l255 634h89zM87 48h370l-168 511z" glyph-name="uni0394" horiz-adv-x="592" unicode="Δ"/>
<glyph d="M680 368q0 -59 -19 -109t-51.5 -84.5t-65.5 -57t-71 -39.5v-37h76q52 0 82.5 27.5t58.5 82.5q3 7 15 7q7 0 21 -9q-10 -20 -19 -60.5t-17.5 -67t-20.5 -26.5q-8 0 -54.5 2.5t-65.5 2.5h-124v101q79 42 117 101.5t38 151.5q0 96 -49.5 164.5t-142.5 68.5q-90 0 -138 -68 t-48 -165q0 -188 149 -253v-101h-134q-20 0 -66.5 -2.5t-53.5 -2.5q-12 0 -20.5 26.5t-17.5 67t-19 60.5q13 9 21 9q12 0 15 -7q27 -55 57.5 -82.5t83.5 -27.5h85v33q-79 21 -141.5 93t-62.5 175q0 54 18 104.5t52.5 93t93 68.5t132.5 26q140 0 213 -75t73 -191z" glyph-name="uni03A9" horiz-adv-x="766" unicode="Ω"/>
<glyph d="M90 122v200q0 63 -11 81q-7 12 -1 25q17 1 45 5t37 4q14 0 14 -15v-253q0 -56 16 -85.5t59 -29.5q52 0 87 34.5t35 95.5v136v8q0 32 -2 46t-10 29q-7 12 -1 25q17 1 45 5t37 4q14 0 14 -15v-325q0 -13 0.5 -19.5t5 -13t13.5 -6.5q12 0 26 7t19 7q9 0 15 -21 q-83 -63 -123 -63q-39 0 -39 55v45q-1 -1 -15 -18.5t-30.5 -34.5t-45 -32t-57.5 -15t-53.5 9.5t-33.5 25.5q0 -51 8.5 -87t26 -55.5t33 -28.5t38.5 -16q14 -4 9 -31q-12 -52 -38 -55q-20 -2 -43 21q-48 52 -64 141t-16 210z" glyph-name="uni03BC" horiz-adv-x="559" unicode="μ"/>
<glyph d="M416 349q-11 -59 -11 -150q0 -53 21.5 -80.5t73.5 -22.5q9 1 15 -3t5 -16q-3 -25 -24 -65q-8 -17 -32 -17q-56 0 -84.5 47.5t-28.5 110.5q0 51 15 196h-129q-1 -58 -9.5 -136.5t-21.5 -114.5q-19 -50 -51 -79t-61 -29q-22 0 -26.5 29t3.5 49q3 14 18 16q55 3 73 43 q25 53 27 223h-35q-30 0 -40.5 -6t-21.5 -31q-4 -9 -13 -9q-5 0 -21 7q8 21 15.5 58.5t9.5 43.5q6 21 21 21q6 0 33 -3.5t45 -3.5h230q87 0 112 15q19 -13 10 -26t-33 -56q-6 -11 -21 -11h-64z" glyph-name="pi" horiz-adv-x="549" unicode="π"/>
<glyph d="M341 164l172 496q6 2 10 2q10 0 14 -13l169 -485l142 406q4 16 4 20q0 25 -61 32q-11 1 -11 17q0 8 2 16q57 -5 105 -5q60 0 95 5q0 -2 1 -8t1 -8q0 -16 -12 -18q-31 -4 -46 -12t-22 -26l-211 -593q-6 -2 -11 -2q-12 0 -18 18l-167 471l-170 -487q-4 -2 -10 -2 q-12 0 -18 18l-215 582q-5 14 -18.5 21t-49.5 12q-11 3 -11 19q0 5 2 15q62 -5 123 -5q59 0 127 5q2 -10 2 -16q0 -15 -11 -17q-61 -6 -61 -33q0 -6 3 -12zM458 851l138 -109q9 -5 9 -13q0 -9 -11 -19q-92 38 -161 56q-23 6 -23 29q0 16 13 32t35 24z" glyph-name="Wgrave" horiz-adv-x="988" unicode="Ẁ"/>
<glyph d="M394 432l132 -323q9 24 29 74t31 78.5t20.5 61t9.5 49.5q0 12 -27 21t-27 19q0 7 3 13q42 -3 84 -3q36 0 69 3q3 -6 3 -13q0 -13 -13 -14q-24 -5 -33 -13t-20 -37l-139 -358q-8 -2 -16 -2t-12.5 5.5t-13.5 27.5l-112 272l-118 -303q-10 -2 -17 -2q-10 0 -16 10t-16 36 l-129 314q-12 29 -21 37t-31 12q-13 3 -13 15q0 7 3 13q39 -3 90 -3h34q13 0 26 0.5t29 1.5t25 1q3 -6 3 -13q0 -12 -13 -13q-46 -7 -46 -22q0 -13 24 -74l77 -193l120 313q4 11 12 11q3 0 9 -2zM355 672l96 -148q4 -8 4 -12q0 -11 -16 -19q-76 67 -135 106q-14 8 -14 24 q0 19 18.5 34t46.5 15z" glyph-name="wgrave" horiz-adv-x="722" unicode="ẁ"/>
<glyph d="M341 164l172 496q6 2 10 2q10 0 14 -13l169 -485l142 406q4 16 4 20q0 25 -61 32q-11 1 -11 17q0 8 2 16q57 -5 105 -5q60 0 95 5q0 -2 1 -8t1 -8q0 -16 -12 -18q-31 -4 -46 -12t-22 -26l-211 -593q-6 -2 -11 -2q-12 0 -18 18l-167 471l-170 -487q-4 -2 -10 -2 q-12 0 -18 18l-215 582q-5 14 -18.5 21t-49.5 12q-11 3 -11 19q0 5 2 15q62 -5 123 -5q59 0 127 5q2 -10 2 -16q0 -15 -11 -17q-61 -6 -61 -33q0 -6 3 -12zM462 742l139 109q22 -8 34.5 -24t12.5 -32q0 -23 -22 -29q-70 -18 -162 -56q-10 10 -10 19q0 7 8 13z" glyph-name="Wacute" horiz-adv-x="988" unicode="Ẃ"/>
<glyph d="M394 432l132 -323q9 24 29 74t31 78.5t20.5 61t9.5 49.5q0 12 -27 21t-27 19q0 7 3 13q42 -3 84 -3q36 0 69 3q3 -6 3 -13q0 -13 -13 -14q-24 -5 -33 -13t-20 -37l-139 -358q-8 -2 -16 -2t-12.5 5.5t-13.5 27.5l-112 272l-118 -303q-10 -2 -17 -2q-10 0 -16 10t-16 36 l-129 314q-12 29 -21 37t-31 12q-13 3 -13 15q0 7 3 13q39 -3 90 -3h34q13 0 26 0.5t29 1.5t25 1q3 -6 3 -13q0 -12 -13 -13q-46 -7 -46 -22q0 -13 24 -74l77 -193l120 313q4 11 12 11q3 0 9 -2zM337 524l96 148q28 0 46.5 -15.5t18.5 -33.5q0 -16 -14 -24 q-58 -38 -135 -106q-17 9 -17 19q0 5 5 12z" glyph-name="wacute" horiz-adv-x="722" unicode="ẃ"/>
<glyph d="M341 164l172 496q6 2 10 2q10 0 14 -13l169 -485l142 406q4 16 4 20q0 25 -61 32q-11 1 -11 17q0 8 2 16q57 -5 105 -5q60 0 95 5q0 -2 1 -8t1 -8q0 -16 -12 -18q-31 -4 -46 -12t-22 -26l-211 -593q-6 -2 -11 -2q-12 0 -18 18l-167 471l-170 -487q-4 -2 -10 -2 q-12 0 -18 18l-215 582q-5 14 -18.5 21t-49.5 12q-11 3 -11 19q0 5 2 15q62 -5 123 -5q59 0 127 5q2 -10 2 -16q0 -15 -11 -17q-61 -6 -61 -33q0 -6 3 -12zM426 710q-24 0 -40.5 16.5t-16.5 40.5t16.5 41t40.5 17q23 0 39 -17t16 -41t-16 -40.5t-39 -16.5zM628 710 q-23 0 -40 16.5t-17 40.5t17 41t40 17t39 -17t16 -41t-16 -40.5t-39 -16.5z" glyph-name="Wdieresis" horiz-adv-x="988" unicode="Ẅ"/>
<glyph d="M394 432l132 -323q9 24 29 74t31 78.5t20.5 61t9.5 49.5q0 12 -27 21t-27 19q0 7 3 13q42 -3 84 -3q36 0 69 3q3 -6 3 -13q0 -13 -13 -14q-24 -5 -33 -13t-20 -37l-139 -358q-8 -2 -16 -2t-12.5 5.5t-13.5 27.5l-112 272l-118 -303q-10 -2 -17 -2q-10 0 -16 10t-16 36 l-129 314q-12 29 -21 37t-31 12q-13 3 -13 15q0 7 3 13q39 -3 90 -3h34q13 0 26 0.5t29 1.5t25 1q3 -6 3 -13q0 -12 -13 -13q-46 -7 -46 -22q0 -13 24 -74l77 -193l120 313q4 11 12 11q3 0 9 -2zM343 583q0 -23 -15.5 -39t-37.5 -16q-23 0 -39 16t-16 39t16 39.5t39 16.5 q22 0 37.5 -16.5t15.5 -39.5zM541 583q0 -23 -15.5 -39t-38.5 -16t-39 16t-16 39t16.5 39.5t38.5 16.5t38 -16.5t16 -39.5z" glyph-name="wdieresis" horiz-adv-x="722" unicode="ẅ"/>
<glyph d="M248 73v215l-167 300q-18 27 -66 34q-10 1 -10 18l2 15q48 -5 122 -5q72 0 120 5q2 -12 2 -16q0 -15 -10 -17q-52 -7 -52 -25q0 -8 7 -19l124 -224l117 208q10 18 10 28q0 22 -56 32q-11 1 -11 17l2 16q48 -5 106 -5q44 0 99 5q2 -12 2 -16q0 -14 -11 -17 q-35 -4 -49.5 -12t-24.5 -26l-162 -287v-224q0 -21 15.5 -30t56.5 -15q11 -2 11 -16l-2 -16q-83 5 -129 5l-127 -5q-2 12 -2 16q0 14 10 16q43 8 58 16.5t15 28.5zM260 851l138 -109q9 -5 9 -13q0 -9 -11 -19q-92 38 -161 56q-23 6 -23 29q0 16 13 32t35 24z" glyph-name="Ygrave" horiz-adv-x="594" unicode="Ỳ"/>
<glyph d="M184 303l88 -194q12 29 42 98.5t45 108.5t15 56q0 12 -25.5 21t-25.5 19q0 1 3 13q39 -3 83 -3q42 0 72 3q3 -6 3 -13q0 -11 -13 -14q-29 -7 -37.5 -14t-20.5 -36l-205 -484q-20 -48 -60 -76t-86 -28q-15 0 -15 15q0 24 11 47t25 23q5 0 14.5 -1.5t14.5 -1.5 q26 0 39.5 10t23.5 34l51 119l-154 343q-13 28 -22.5 36t-35.5 13q-13 3 -13 15q0 7 3 13q39 -3 87 -3h29q45 0 87 3q3 -6 3 -13q0 -12 -13 -13q-39 -6 -39 -21q0 -20 26 -75zM236 672l96 -148q4 -8 4 -12q0 -11 -16 -19q-76 67 -135 106q-14 8 -14 24q0 19 18.5 34t46.5 15 z" glyph-name="ygrave" horiz-adv-x="486" unicode="ỳ"/>
<glyph d="M36 262h442q2 -16 2 -22q0 -30 -17 -30h-442q-1 9 -1 23q0 29 16 29z" glyph-name="endash" horiz-adv-x="500" unicode="–"/>
<glyph d="M21 211q-1 9 -1 23q0 26 16 26h942q2 -8 2 -22q0 -27 -17 -27h-942z" glyph-name="emdash" horiz-adv-x="1000" unicode="—"/>
<glyph d="M157 691q14 -11 14 -20q0 -6 -7 -13q-49 -50 -49 -84q0 -33 49 -54q14 -6 14 -22q0 -30 -39 -55q-36 10 -61 36.5t-25 62.5q0 71 104 149z" glyph-name="quoteleft" horiz-adv-x="224" unicode="‘"/>
<glyph d="M65 444q-14 9 -14 21q0 6 6 12q51 46 51 82t-48 56q-16 6 -16 23q0 32 44 53q35 -10 59.5 -38t24.5 -64q0 -74 -107 -145z" glyph-name="quoteright" horiz-adv-x="226" unicode="’"/>
<glyph d="M68 -130q-14 10 -14 21q0 6 7 12q48 44 48 80q0 35 -48 54q-15 5 -15 22q0 31 44 53q34 -10 59 -37t25 -62q0 -73 -106 -143z" glyph-name="quotesinglbase" horiz-adv-x="221" unicode="‚"/>
<glyph d="M154 691q14 -10 14 -20q0 -7 -7 -12q-48 -49 -48 -84q0 -32 48 -54q14 -5 14 -21q0 -30 -39 -55q-36 11 -60.5 37t-24.5 61q0 72 103 148zM313 691q14 -10 14 -20q0 -7 -6 -12q-49 -49 -49 -84q0 -32 48 -54q15 -5 15 -21q0 -29 -40 -55q-36 11 -60.5 37t-24.5 61 q0 71 103 148z" glyph-name="quotedblleft" horiz-adv-x="377" unicode="“"/>
<glyph d="M66 447q-14 8 -14 20q0 5 7 12q50 45 50 81q0 37 -48 56q-15 6 -15 22q0 32 43 53q35 -11 59.5 -37.5t24.5 -62.5q0 -75 -107 -144zM231 447q-15 9 -15 20q0 5 7 12q51 45 51 81t-48 56q-16 6 -16 22q0 32 44 53q34 -11 59 -38t25 -62q0 -74 -107 -144z" glyph-name="quotedblright" horiz-adv-x="388" unicode="”"/>
<glyph d="M68 -131q-14 11 -14 21q0 8 7 12q48 45 48 80q0 36 -48 55q-15 5 -15 22q0 31 44 52q34 -9 59 -36t25 -63q0 -72 -106 -143zM237 -131q-15 12 -15 21q0 7 7 12q49 46 49 80q0 36 -48 55q-16 4 -16 22q0 32 45 52q34 -9 59.5 -36t25.5 -63q0 -70 -107 -143z" glyph-name="quotedblbase" horiz-adv-x="391" unicode="„"/>
<glyph d="M235 429q0 -19 4.5 -39.5t9.5 -33t14 -34t12 -28.5q-14 -70 -24.5 -195.5t-10.5 -226.5q-10 -2 -14 -2q-23 0 -23 19q-1 229 -29 405q3 10 14 36.5t16.5 48.5t6.5 49q-68 -15 -141 -45l-19 11l-6 31q-2 16 -2 22q0 27 35 27t134 -27l3 2q-20 92 -60 163l11 19l30 7 q24 7 37 7q35 0 35 -43q0 -40 -34 -153l1 -4q63 11 147 46l19 -11l7 -31q3 -12 3 -20q0 -30 -39 -30q-41 0 -137 30z" glyph-name="dagger" horiz-adv-x="455" unicode="†"/>
<glyph d="M178 259q35 104 38 169q-67 -14 -141 -45l-19 11l-6 31q-3 12 -3 22q0 28 35 28q29 0 135 -28l2 2q-21 97 -60 163l11 19l31 7q26 7 36 7q36 0 36 -43q0 -42 -35 -153l2 -4q63 11 147 46l19 -11l7 -31q3 -12 3 -20q0 -30 -40 -30q-38 0 -137 30q1 -69 41 -170 q-36 -111 -38 -170q62 13 142 46l18 -11l6 -31q3 -13 3 -22q0 -28 -35 -28q-34 0 -135 27l-2 -1q20 -91 60 -164l-11 -18l-31 -8q-21 -6 -36 -6q-36 0 -36 42q0 36 34 153l-1 5q-56 -9 -147 -46l-18 11l-8 31q-3 10 -3 19q0 31 40 31q34 0 137 -30q0 63 -41 170z" glyph-name="daggerdbl" horiz-adv-x="459" unicode="‡"/>
<glyph d="M126 247q0 50 36 86.5t88 36.5q49 0 83.5 -37t34.5 -86q0 -54 -34 -89.5t-84 -35.5q-53 0 -88.5 35.5t-35.5 89.5z" glyph-name="bullet" horiz-adv-x="494" unicode="•"/>
<glyph d="M64 53q0 26 19 45.5t46 19.5q26 0 44 -19.5t18 -45.5q0 -28 -18 -47t-44 -19q-28 0 -46.5 19t-18.5 47zM327 53q0 26 19 45.5t46 19.5q26 0 44 -19.5t18 -45.5q0 -28 -18 -47t-44 -19q-28 0 -46.5 19t-18.5 47zM588 53q0 26 19 45.5t46 19.5q26 0 44 -19.5t18 -45.5 q0 -28 -18 -47t-44 -19q-28 0 -46.5 19t-18.5 47z" glyph-name="ellipsis" horiz-adv-x="779" unicode="…"/>
<glyph d="M601 143q0 71 33.5 112.5t88.5 41.5t89 -41.5t34 -112.5q0 -70 -34 -111.5t-89 -41.5t-88.5 41.5t-33.5 111.5zM671 150q0 -58 14 -94t38 -36q23 0 38 31.5t15 87.5q0 61 -14 94t-39 33q-23 0 -37.5 -29t-14.5 -87zM315 143q0 71 33.5 112.5t88.5 41.5t89 -41.5 t34 -112.5q0 -70 -34 -111.5t-89 -41.5t-88.5 41.5t-33.5 111.5zM385 150q0 -58 14 -94t38 -36q23 0 38 31.5t15 87.5q0 61 -14 94t-39 33q-23 0 -37.5 -29t-14.5 -87zM473 651q37 -14 37 -30q0 -5 -3 -9l-408 -624q-37 16 -37 30q0 3 3 9zM10 496q0 71 33.5 112.5 t88.5 41.5t89 -41.5t34 -112.5q0 -70 -34 -111.5t-89 -41.5t-88.5 41.5t-33.5 111.5zM80 503q0 -58 14 -94t38 -36q23 0 38 31.5t15 87.5q0 61 -14 94t-39 33q-23 0 -37.5 -29t-14.5 -87z" glyph-name="perthousand" horiz-adv-x="886" unicode="‰"/>
<glyph d="M32 226l154 149q6 4 10 4q10 0 21 -16q-54 -70 -101 -145q38 -64 102 -152q-10 -17 -24 -17q-5 0 -8 3l-160 156q-1 1 -1 6t7 12z" glyph-name="guilsinglleft" horiz-adv-x="264" unicode="‹"/>
<glyph d="M231 202l-154 -148q-4 -4 -10 -4q-10 0 -21 16q66 90 101 146q-34 58 -102 151q11 16 24 16q5 0 8 -3l160 -154q1 -3 1 -7q0 -6 -7 -13z" glyph-name="guilsinglright" horiz-adv-x="264" unicode="›"/>
<glyph d="M264 651q37 -14 37 -30l-3 -9l-409 -624q-36 15 -36 30q0 6 3 9z" glyph-name="fraction" horiz-adv-x="170" unicode="⁄"/>
<glyph d="M22 550q0 87 40.5 139t106.5 52t106.5 -52t40.5 -139t-40.5 -138.5t-106.5 -51.5t-106.5 51.5t-40.5 138.5zM107 559q0 -78 17 -123t45 -45q63 0 63 153q0 81 -17 123t-46 42q-62 0 -62 -150z" glyph-name="zerosuperior" unicode="⁰"/>
<glyph d="M190 502v144l-113 -144h113zM311 365q-50 2 -96 2q-32 0 -80 -2q-2 4 -2 11q0 9 7 9q30 5 40 10.5t10 16.5v41h-162q-3 8 -3 20q-1 7 6 19l181 233q7 7 11 7h41v-230h49v-49h-49v-42q0 -11 9 -16t33 -10q6 0 6 -9t-1 -11z" glyph-name="foursuperior" unicode="⁴"/>
<glyph d="M221 490q0 82 -77 82q-29 0 -71 -12l20 172h181l-2 -32q0 -22 -17 -22h-131l-13 -75q33 14 67 14q54 0 87 -28.5t33 -78.5q0 -64 -55 -107t-119 -43q-50 0 -78 19q-9 6 -9 13q0 10 36 37q6 5 15 -2q33 -30 62 -30t50 24t21 69z" glyph-name="fivesuperior" unicode="⁵"/>
<glyph d="M121 528q-7 -11 -7 -46q0 -93 56 -93q58 0 58 85q0 78 -56 78q-40 0 -51 -24zM121 569q32 21 76 21q48 0 79 -26t31 -77t-38 -89t-99 -38q-75 0 -107 39t-32 96q0 70 60.5 138.5t167.5 113.5q7 -11 7 -17q0 -5 -6 -9q-60 -40 -90 -71.5t-49 -80.5z" glyph-name="sixsuperior" unicode="⁶"/>
<glyph d="M253 678h-134q-24 0 -37 -32q-4 -7 -11 -7q-10 0 -18 3q16 51 20 86q2 7 11 7t31 -1.5t36 -1.5h153v-19q-61 -110 -80 -170.5t-26 -159.5q-1 -23 -64 -23q-23 0 -23 13q0 45 37.5 127t104.5 178z" glyph-name="sevensuperior" unicode="⁷"/>
<glyph d="M191 591q28 28 28 64q0 25 -15.5 41t-35.5 16t-33 -11.5t-13 -34.5q0 -42 69 -75zM218 574q44 -29 66.5 -55t22.5 -55q0 -49 -42.5 -76.5t-98.5 -27.5q-133 0 -133 92q0 66 89 102q-74 41 -74 95q0 37 29.5 64.5t90.5 27.5q60 0 89.5 -22t29.5 -57q0 -55 -69 -88z M148 537q-19 -13 -29.5 -34t-10.5 -39q0 -74 65 -74q24 0 39.5 15.5t15.5 40.5q0 21 -18 42t-62 49z" glyph-name="eightsuperior" horiz-adv-x="338" unicode="⁸"/>
<glyph d="M217 571q7 12 7 46q0 46 -15.5 69.5t-40.5 23.5q-59 0 -59 -85q0 -77 58 -77q39 0 50 23zM217 531q-35 -22 -76 -22q-49 0 -79.5 26.5t-30.5 81.5q0 46 38.5 84.5t98.5 38.5q75 0 107 -39t32 -97q0 -75 -53 -145t-158 -106q-7 11 -7 16q0 3 6 9q58 42 82.5 72t39.5 81z " glyph-name="ninesuperior" unicode="⁹"/>
<glyph d="M143 514h-106q-2 18 -2 23q0 29 17 29h91v99q14 3 23 3q29 0 29 -18v-84h106q2 -18 2 -23q0 -29 -17 -29h-91v-95q-9 -1 -23 -1q-29 0 -29 16v80z" glyph-name="plussuperior" unicode="⁺"/>
<glyph d="M37 514q-1 9 -1 23q0 29 16 29h249q2 -18 2 -23q0 -29 -17 -29h-249z" glyph-name="minussuperior" unicode="⁻"/>
<glyph d="M37 449q-1 9 -1 23q0 29 16 29h249q2 -18 2 -23q0 -29 -17 -29h-249zM37 565q-1 9 -1 23q0 29 16 29h249q2 -18 2 -23q0 -29 -17 -29h-249z" glyph-name="equalsuperior" unicode="⁼"/>
<glyph d="M215 333l4 -8q0 -8 -22 -21q-118 85 -118 229q0 138 120 239q20 -11 20 -22q0 -3 -4 -7q-64 -76 -64 -189q0 -143 64 -221z" glyph-name="parenleftsuperior" horiz-adv-x="261" unicode="⁽"/>
<glyph d="M46 743l-4 8q0 8 22 21q118 -85 118 -229q0 -138 -120 -239q-20 11 -20 22q0 3 4 7q64 76 64 189q0 143 -64 221z" glyph-name="parenrightsuperior" horiz-adv-x="261" unicode="⁾"/>
<glyph d="M22 18q0 87 40.5 139t106.5 52t106.5 -52t40.5 -139t-40.5 -138.5t-106.5 -51.5t-106.5 51.5t-40.5 138.5zM107 27q0 -78 17 -123t45 -45q63 0 63 153q0 81 -17 123t-46 42q-62 0 -62 -150z" glyph-name="zeroinferior" unicode="₀"/>
<glyph d="M88 -168q-1 2 -1 11t6 9q29 5 38 10.5t9 16.5v237q0 21 -8 28.5t-36 7.5q-11 0 -11 13q0 8 2 14q21 2 71 12q8 3 21 7.5t21 7t13 2.5q10 0 10 -10q0 -6 -2 -29t-2 -35v-256q0 -12 7 -17t32 -9q6 0 6 -9t-1 -11q-50 2 -83 2q-44 0 -92 -2z" glyph-name="oneinferior" unicode="₁"/>
<glyph d="M69 128q-4 -4 -10 -4q-7 0 -19 15q59 69 128 69q50 0 80 -25t30 -65t-35.5 -93t-126.5 -134h112q23 0 39 32q2 8 10 8t18 -4q-4 -9 -8.5 -26t-9 -36.5t-6.5 -26.5q-2 -6 -10 -6q-7 0 -30.5 1t-38.5 1h-152v23q153 154 153 242q0 28 -14.5 42.5t-38.5 14.5q-33 0 -71 -28z " glyph-name="twoinferior" unicode="₂"/>
<glyph d="M150 -132q33 0 52 22t19 59q0 68 -70 68q-18 0 -48 -8v24q57 23 78 45t21 46q0 42 -45 42q-31 0 -73 -29q-8 -4 -9 -4q-11 0 -18 15q59 60 126 60q35 0 62 -16.5t27 -51.5q0 -55 -72 -85q45 -5 73 -26.5t28 -59.5q0 -56 -57 -98.5t-122 -42.5q-48 0 -75 18q-10 6 -10 13 q0 5 33 35q11 11 21 3q32 -29 59 -29z" glyph-name="threeinferior" unicode="₃"/>
<glyph d="M190 -30v144l-113 -144h113zM311 -167q-50 2 -96 2q-32 0 -80 -2q-2 4 -2 11q0 9 7 9q30 5 40 10.5t10 16.5v41h-162q-3 8 -3 20q-1 7 6 19l181 233q7 7 11 7h41v-230h49v-49h-49v-42q0 -11 9 -16t33 -10q6 0 6 -9t-1 -11z" glyph-name="fourinferior" unicode="₄"/>
<glyph d="M221 -42q0 82 -77 82q-29 0 -71 -12l20 172h181l-2 -32q0 -22 -17 -22h-131l-13 -75q33 14 67 14q54 0 87 -28.5t33 -78.5q0 -64 -55 -107t-119 -43q-50 0 -78 19q-9 6 -9 13q0 10 36 37q6 5 15 -2q33 -30 62 -30t50 24t21 69z" glyph-name="fiveinferior" unicode="₅"/>
<glyph d="M121 -4q-7 -11 -7 -46q0 -93 56 -93q58 0 58 85q0 78 -56 78q-40 0 -51 -24zM121 37q32 21 76 21q48 0 79 -26t31 -77t-38 -89t-99 -38q-75 0 -107 39t-32 96q0 70 60.5 138.5t167.5 113.5q7 -11 7 -17q0 -5 -6 -9q-60 -40 -90 -71.5t-49 -80.5z" glyph-name="sixinferior" unicode="₆"/>
<glyph d="M253 146h-134q-24 0 -37 -32q-4 -7 -11 -7q-10 0 -18 3q16 51 20 86q2 7 11 7t31 -1.5t36 -1.5h153v-19q-61 -110 -80 -170.5t-26 -159.5q-1 -23 -64 -23q-23 0 -23 13q0 45 37.5 127t104.5 178z" glyph-name="seveninferior" unicode="₇"/>
<glyph d="M191 59q28 28 28 64q0 25 -15.5 41t-35.5 16t-33 -11.5t-13 -34.5q0 -42 69 -75zM218 42q44 -29 66.5 -55t22.5 -55q0 -49 -42.5 -76.5t-98.5 -27.5q-133 0 -133 92q0 66 89 102q-74 41 -74 95q0 37 29.5 64.5t90.5 27.5q60 0 89.5 -22t29.5 -57q0 -55 -69 -88zM148 5 q-19 -13 -29.5 -34t-10.5 -39q0 -74 65 -74q24 0 39.5 15.5t15.5 40.5q0 21 -18 42t-62 49z" glyph-name="eightinferior" horiz-adv-x="338" unicode="₈"/>
<glyph d="M217 39q7 12 7 46q0 46 -15.5 69.5t-40.5 23.5q-59 0 -59 -85q0 -77 58 -77q39 0 50 23zM217 -1q-35 -22 -76 -22q-49 0 -79.5 26.5t-30.5 81.5q0 46 38.5 84.5t98.5 38.5q75 0 107 -39t32 -97q0 -75 -53 -145t-158 -106q-7 11 -7 16q0 3 6 9q58 42 82.5 72t39.5 81z" glyph-name="nineinferior" unicode="₉"/>
<glyph d="M215 -183l4 -8q0 -8 -22 -21q-118 85 -118 229q0 138 120 239q20 -11 20 -22q0 -3 -4 -7q-64 -76 -64 -189q0 -143 64 -221z" glyph-name="parenleftinferior" horiz-adv-x="261" unicode="₍"/>
<glyph d="M46 227l-4 8q0 8 22 21q118 -85 118 -229q0 -138 -120 -239q-20 11 -20 22q0 3 4 7q64 76 64 189q0 143 -64 221z" glyph-name="parenrightinferior" horiz-adv-x="261" unicode="₎"/>
<glyph d="M77 310q0 22 1 33h-54q-2 14 -2 19q0 25 17 25h45q18 105 79 178.5t165 73.5q52 0 151 -26q0 -55 17 -124q-4 -4 -16 -4q-18 0 -21 11q-20 57 -48 79.5t-73 22.5q-68 0 -107.5 -61.5t-51.5 -149.5h221q2 -14 2 -22q0 -22 -18 -22h-210v-14q0 -38 2 -52h202q2 -14 2 -22 q0 -23 -17 -23h-181q15 -84 55 -143t107 -59q48 0 76.5 24t52.5 80q6 14 24 14q13 0 18 -5q-21 -64 -37 -139q-77 -16 -150 -16q-100 0 -163.5 68.5t-81.5 175.5h-78q-1 7 -1 19q0 26 16 26h58q-1 11 -1 33z" glyph-name="Euro" horiz-adv-x="530" unicode="€"/>
<glyph d="M247 391h-139v11q0 8 8 8q36 2 36 29v176h-33q-29 0 -38.5 -7.5t-21.5 -35.5q-1 -4 -7 -4q-11 0 -14 3l13 65q1 7 9 7q5 0 20 -1t28 -1h139q13 0 28 1t20 1q8 0 9 -7l13 -65q-3 -3 -14 -3q-6 0 -7 4q-12 28 -21.5 35.5t-38.5 7.5h-33v-176q0 -27 36 -29q8 0 8 -8v-11z M543 459l88 174q5 8 11 8h77v-11q0 -8 -7 -8q-16 -2 -21 -5.5t-5 -11.5q0 -7 1 -25.5t3 -57.5t5 -92q2 -20 29 -22q6 -2 6 -8v-9h-119v8q0 8 6 9q19 3 24 7.5t5 13.5l-9 153l-96 -189q-5 -7 -8 -7t-4 1l-119 214l-10 -170q0 -9 5.5 -13.5t26.5 -7.5q6 0 6 -8v-11h-100v11 q0 8 6 8q17 3 22.5 7.5t6.5 13.5q5 104 10 168q0 10 -17 17.5t-17 12.5v12h89q7 0 10 -8z" glyph-name="trademark" horiz-adv-x="768" unicode="™"/>
<glyph d="M680 368q0 -59 -19 -109t-51.5 -84.5t-65.5 -57t-71 -39.5v-37h76q52 0 82.5 27.5t58.5 82.5q3 7 15 7q7 0 21 -9q-10 -20 -19 -60.5t-17.5 -67t-20.5 -26.5q-8 0 -54.5 2.5t-65.5 2.5h-124v101q79 42 117 101.5t38 151.5q0 96 -49.5 164.5t-142.5 68.5q-90 0 -138 -68 t-48 -165q0 -188 149 -253v-101h-134q-20 0 -66.5 -2.5t-53.5 -2.5q-12 0 -20.5 26.5t-17.5 67t-19 60.5q13 9 21 9q12 0 15 -7q27 -55 57.5 -82.5t83.5 -27.5h85v33q-79 21 -141.5 93t-62.5 175q0 54 18 104.5t52.5 93t93 68.5t132.5 26q140 0 213 -75t73 -191z" glyph-name="Omega" horiz-adv-x="766" unicode="Ω"/>
<glyph d="M68 257q-1 2 -1 11t6 9q29 5 38 10.5t9 16.5v237q0 21 -8 28.5t-36 7.5q-11 0 -11 13q0 8 2 14q21 2 71 12q8 3 21 7.5t21 7t13 2.5q10 0 10 -10q0 -7 -2 -29t-2 -35v-256q0 -12 7 -16.5t32 -9.5q6 0 6 -9t-1 -11q-50 2 -83 2q-44 0 -92 -2zM577 651q37 -14 37 -30l-3 -9 l-409 -624q-36 15 -36 30q0 6 3 9zM593 34q33 0 52 22t19 59q0 68 -70 68q-18 0 -48 -8v24q57 23 78 45t21 46q0 42 -49 42q-27 0 -69 -29q-8 -4 -9 -4q-10 0 -18 15q59 60 126 60q35 0 62 -16.5t27 -51.5q0 -55 -72 -85q45 -5 73 -26.5t28 -59.5q0 -56 -57 -98.5 t-122 -42.5q-48 0 -75 18q-10 6 -10 13q0 5 33 35q11 11 21 3q32 -29 59 -29z" glyph-name="onethird" horiz-adv-x="802" unicode="⅓"/>
<glyph d="M69 553q-4 -4 -10 -4q-7 0 -19 15q59 69 128 69q50 0 80 -25t30 -65t-35.5 -93t-126.5 -134h112q23 0 39 32q2 8 10 8t18 -4q-4 -9 -8.5 -26t-9 -36.5t-6.5 -26.5q-2 -6 -10 -6q-7 0 -30.5 1t-38.5 1h-152v23q153 154 153 242q0 28 -14.5 42.5t-38.5 14.5q-33 0 -71 -28z M598 651q37 -14 37 -30l-3 -9l-409 -624q-36 15 -36 30q0 6 3 9zM613 34q33 0 52 22t19 59q0 68 -70 68q-18 0 -48 -8v24q57 23 78 45t21 46q0 42 -49 42q-27 0 -69 -29q-8 -4 -9 -4q-10 0 -18 15q59 60 126 60q35 0 62 -16.5t27 -51.5q0 -55 -72 -85q45 -5 73 -26.5 t28 -59.5q0 -56 -57 -98.5t-122 -42.5q-48 0 -75 18q-10 6 -10 13q0 5 33 35q11 11 21 3q32 -29 59 -29z" glyph-name="twothirds" horiz-adv-x="802" unicode="⅔"/>
<glyph d="M68 257q-1 2 -1 11t6 9q29 5 38 10.5t9 16.5v237q0 21 -8 28.5t-36 7.5q-11 0 -11 13q0 8 2 14q21 2 71 12q8 3 21 7.5t21 7t13 2.5q10 0 10 -10q0 -7 -2 -29t-2 -35v-256q0 -12 7 -16.5t32 -9.5q6 0 6 -9t-1 -11q-50 2 -83 2q-44 0 -92 -2zM567 651q37 -14 37 -30l-3 -9 l-409 -624q-36 15 -36 30q0 6 3 9zM635 225q28 28 28 64q0 25 -15 40.5t-36 15.5q-46 0 -46 -45q0 -42 69 -75zM662 208q44 -29 66.5 -55t22.5 -55q0 -49 -42.5 -76.5t-98.5 -27.5q-133 0 -133 92q0 66 89 102q-74 41 -74 95q0 37 29.5 64t90.5 27q60 0 89.5 -21.5 t29.5 -56.5q0 -55 -69 -88zM592 171q-19 -13 -29.5 -34t-10.5 -39q0 -74 65 -74q24 0 39.5 15.5t15.5 40.5q0 21 -18 42t-62 49z" glyph-name="oneeighth" horiz-adv-x="802" unicode="⅛"/>
<glyph d="M140 293q33 0 52 22t19 59q0 68 -70 68q-18 0 -48 -8v24q57 23 78 45t21 46q0 42 -49 42q-27 0 -69 -29q-8 -4 -9 -4q-11 0 -18 15q59 60 126 60q35 0 62 -16.5t27 -51.5q0 -55 -72 -85q45 -5 73 -26.5t28 -59.5q0 -56 -57 -98.5t-122 -42.5q-48 0 -75 18q-10 6 -10 13 q0 5 33 35q11 11 21 3q32 -29 59 -29zM575 651q37 -14 37 -30l-3 -9l-409 -624q-36 15 -36 30q0 6 3 9zM645 225q28 28 28 64q0 25 -15 40.5t-36 15.5q-46 0 -46 -45q0 -42 69 -75zM672 208q44 -29 66.5 -55t22.5 -55q0 -49 -42.5 -76.5t-98.5 -27.5q-133 0 -133 92 q0 66 89 102q-74 41 -74 95q0 37 29.5 64t90.5 27q60 0 89.5 -21.5t29.5 -56.5q0 -55 -69 -88zM602 171q-19 -13 -29.5 -34t-10.5 -39q0 -74 65 -74q24 0 39.5 15.5t15.5 40.5q0 21 -18 42t-62 49z" glyph-name="threeeighths" horiz-adv-x="802" unicode="⅜"/>
<glyph d="M221 382q0 75 -78 75q-29 0 -71 -12l21 179h181l-2 -32q0 -22 -17 -22h-131l-14 -82q33 14 67 14q55 0 88 -25.5t33 -74.5q0 -64 -55 -106.5t-119 -42.5q-50 0 -78 19q-9 6 -9 13q0 10 36 37q6 5 15 -2q33 -30 62 -30t50 23.5t21 68.5zM581 651q37 -14 37 -30l-3 -9 l-409 -624q-36 15 -36 30q0 6 3 9zM655 225q28 28 28 64q0 25 -15 40.5t-36 15.5q-46 0 -46 -45q0 -42 69 -75zM682 208q44 -29 66.5 -55t22.5 -55q0 -49 -42.5 -76.5t-98.5 -27.5q-133 0 -133 92q0 66 89 102q-74 41 -74 95q0 37 29.5 64t90.5 27q60 0 89.5 -21.5 t29.5 -56.5q0 -55 -69 -88zM612 171q-19 -13 -29.5 -34t-10.5 -39q0 -74 65 -74q24 0 39.5 15.5t15.5 40.5q0 21 -18 42t-62 49z" glyph-name="fiveeighths" horiz-adv-x="802" unicode="⅝"/>
<glyph d="M253 570h-134q-24 0 -37 -32q-4 -7 -11 -7q-10 0 -18 3q16 51 20 86q2 7 11 7t31 -1.5t36 -1.5h153v-19q-61 -110 -80 -170t-26 -159q-1 -23 -64 -23q-23 0 -23 13q0 45 37.5 126.5t104.5 177.5zM554 651q37 -14 37 -30l-3 -9l-409 -624q-36 15 -36 30q0 6 3 9zM655 225 q28 28 28 64q0 25 -15 40.5t-36 15.5q-46 0 -46 -45q0 -42 69 -75zM682 208q44 -29 66.5 -55t22.5 -55q0 -49 -42.5 -76.5t-98.5 -27.5q-133 0 -133 92q0 66 89 102q-74 41 -74 95q0 37 29.5 64t90.5 27q60 0 89.5 -21.5t29.5 -56.5q0 -55 -69 -88zM612 171 q-19 -13 -29.5 -34t-10.5 -39q0 -74 65 -74q24 0 39.5 15.5t15.5 40.5q0 21 -18 42t-62 49z" glyph-name="seveneighths" horiz-adv-x="802" unicode="⅞"/>
<glyph d="M364 409q-11 148 -167 255q-8 6 -7 13q4 13 14 23q35 -18 55 -29t50 -33.5t60 -52.5q49 -49 74 -115.5t25 -134.5q0 -85 -27 -161.5t-89.5 -131.5t-149.5 -55q-81 0 -125 49t-44 122q0 112 71.5 187t171.5 75q47 0 88 -11zM271 378q-67 0 -102.5 -63t-35.5 -146 q0 -63 24 -99.5t65 -36.5q66 0 106 73.5t40 192.5q0 20 -2 48q-39 31 -95 31z" glyph-name="partialdiff" horiz-adv-x="506" unicode="∂"/>
<glyph d="M574 0h-566l255 634h89zM87 48h370l-168 511z" glyph-name="Delta" horiz-adv-x="592" unicode="∆"/>
<glyph d="M598 578v-642q0 -19 12.5 -27t52.5 -16q10 -2 10 -14q0 -8 -2 -18q-55 5 -120 5q-54 0 -121 -5q-2 10 -2 18q0 12 10 14q38 7 51.5 15.5t13.5 27.5v672h-298v-672q0 -19 12.5 -27t52.5 -16q11 -2 11 -14q0 -8 -2 -18q-57 5 -121 5q-53 0 -121 -5q-2 10 -2 18q0 12 10 14 q39 7 52.5 15.5t13.5 27.5v642q0 20 -12 28.5t-52 15.5q-10 1 -10 16q0 7 2 17q55 -5 118 -5h393q52 0 120 5q2 -10 2 -17q0 -14 -10 -16q-38 -6 -51 -15t-13 -29z" glyph-name="product" horiz-adv-x="702" unicode="∏"/>
<glyph d="M392 -134h-363l-10 27l254 358l-248 361l12 38h346q31 0 68.5 3t39.5 3q15 0 20 -26t10 -64.5t17 -58.5q-8 -6 -18 -6q-13 0 -17 9q-25 56 -51 77.5t-83 21.5h-223l219 -330l-266 -371h297q51 0 81 27t58 82q3 7 15 7q8 0 21 -9q-10 -20 -19 -60.5t-17.5 -67t-20.5 -26.5 q-8 0 -55.5 2.5t-66.5 2.5z" glyph-name="summation" horiz-adv-x="585" unicode="∑"/>
<glyph d="M38 188q-1 9 -1 23q0 29 16 29h402q2 -18 2 -23q0 -29 -17 -29h-402z" glyph-name="minus" horiz-adv-x="494" unicode="−"/>
<glyph d="M264 651q37 -14 37 -30l-3 -9l-409 -624q-36 15 -36 30q0 6 3 9z" glyph-name="uni2215" horiz-adv-x="170" unicode="∕"/>
<glyph d="M42 315q0 28 21 49.5t50 21.5t48.5 -21.5t19.5 -49.5q0 -31 -19.5 -51.5t-48.5 -20.5q-30 0 -50.5 20.5t-20.5 51.5z" glyph-name="uni2219" horiz-adv-x="224" unicode="∙"/>
<glyph d="M533 744l-168 -744h-70l-174 367l-71 -33l-16 40l142 69l152 -334l148 645z" glyph-name="radical" horiz-adv-x="547" unicode="√"/>
<glyph d="M594 244q0 -56 -38.5 -91t-89.5 -35q-39 0 -73.5 18.5t-82.5 64.5q-85 -83 -146 -83q-54 0 -84 32.5t-30 86.5q0 63 40 97t91 34q34 0 67.5 -18t83.5 -65q84 77 153 77q50 0 79.5 -29.5t29.5 -88.5zM544 254q0 31 -18 49t-44 18q-28 0 -55.5 -16.5t-66.5 -50.5 q36 -39 60.5 -55t52.5 -16q30 0 50.5 19.5t20.5 51.5zM168 167q26 0 50 16t60 51q-28 26 -43 38.5t-34.5 23t-36.5 10.5q-27 0 -43.5 -19.5t-16.5 -49.5t17 -50t47 -20z" glyph-name="infinity" horiz-adv-x="644" unicode="∞"/>
<glyph d="M174 546q0 -68 30 -246.5t30 -281.5q0 -100 -49 -161t-117 -61q-54 0 -90.5 22.5t-36.5 42.5q0 11 25 25.5t35 14.5q13 0 18 -12q9 -20 14.5 -29.5t19 -18t33.5 -8.5q33 0 51.5 33.5t18.5 85.5q0 89 -31 260.5t-31 270.5q0 98 50 157.5t117 59.5q54 0 90.5 -22.5 t36.5 -42.5q0 -11 -25 -25.5t-35 -14.5q-13 0 -18 12q-9 20 -14.5 29.5t-19 18t-33.5 8.5q-35 0 -52 -32t-17 -85z" glyph-name="integral" horiz-adv-x="309" unicode="∫"/>
<glyph d="M363 321q39 0 88 62q27 -14 27 -33q0 -8 -4 -13q-53 -69 -110 -69q-23 0 -104.5 33.5t-100.5 33.5t-38.5 -12t-50.5 -49q-27 16 -27 34q0 8 4 12q58 69 111 69q21 0 101.5 -34t103.5 -34zM363 142q39 0 88 62q27 -14 27 -33q0 -9 -4 -13q-52 -69 -110 -69 q-23 0 -104.5 33.5t-100.5 33.5t-38.5 -12t-50.5 -49q-27 16 -27 33q0 9 4 13q58 69 111 69q21 0 101.5 -34t103.5 -34z" glyph-name="approxequal" horiz-adv-x="522" unicode="≈"/>
<glyph d="M220 107l-53 -107q-39 12 -39 26q0 5 2 8l36 73h-128q-1 9 -1 22q0 29 16 29h134l68 135h-217q-1 9 -1 22q0 29 16 29h221l47 92q39 -12 39 -27q0 -3 -2 -7l-29 -58h126q2 -18 2 -22q0 -29 -17 -29h-130l-70 -135h215q2 -18 2 -22q0 -29 -17 -29h-220z" glyph-name="notequal" horiz-adv-x="494" unicode="≠"/>
<glyph d="M52 330l358 200q19 -27 19 -42q0 -9 -8 -14l-300 -157l314 -170q-14 -43 -30 -43q-4 0 -7 1l-349 193q-3 14 -3 20q0 10 6 12zM48 0q-2 16 -2 22q0 30 17 30h382q2 -9 2 -23q0 -29 -17 -29h-382z" glyph-name="lessequal" horiz-adv-x="494" unicode="≤"/>
<glyph d="M82 530l359 -200q6 -3 6 -12q0 -8 -4 -20l-349 -193q-2 -1 -6 -1q-15 0 -31 43l315 169l-301 158q-7 5 -7 14q0 16 18 42zM444 0h-382q-16 0 -16 29q0 14 1 23h382q17 0 17 -30q0 -6 -2 -22z" glyph-name="greaterequal" horiz-adv-x="494" unicode="≥"/>
<glyph d="M150 203v231l185 -114z" glyph-name="triangle" horiz-adv-x="425" unicode="△"/>
<glyph d="M440 310l-202 -322l-203 322l203 322zM369 309l-133 214l-131 -212l136 -223z" glyph-name="lozenge" horiz-adv-x="475" unicode="◊"/>
<glyph d="M100 324q0 85 60 145t145 60t145 -60t60 -145t-60 -145t-145 -60t-145 60t-60 145z" glyph-name="circle" horiz-adv-x="610" unicode="○"/>
<glyph d="M78 257q-1 2 -1 11t6 9q29 5 38 10.5t9 16.5v237q0 21 -8 28.5t-36 7.5q-11 0 -11 13q0 8 2 14q21 2 71 12q8 3 21 7.5t21 7t13 2.5q10 0 10 -10q0 -7 -2 -29t-2 -35v-256q0 -12 7 -16.5t32 -9.5q6 0 6 -9t-1 -11q-50 2 -83 2q-44 0 -92 -2zM582 651q37 -14 37 -30l-3 -9 l-409 -624q-36 15 -36 30q0 6 3 9zM674 123q0 75 -78 75q-29 0 -71 -12l21 179h181l-2 -32q0 -22 -17 -22h-131l-14 -82q33 14 67 14q55 0 88 -25.5t33 -74.5q0 -64 -55 -106.5t-119 -42.5q-50 0 -78 19q-9 6 -9 13q0 10 36 37q6 5 15 -2q33 -30 62 -30t50 23.5t21 68.5z " glyph-name="onefifth" horiz-adv-x="802" unicode=""/>
<glyph d="M69 553q-4 -4 -10 -4q-7 0 -19 15q59 69 128 69q50 0 80 -25t30 -65t-35.5 -93t-126.5 -134h112q23 0 39 32q2 8 10 8t18 -4q-4 -9 -8.5 -26t-9 -36.5t-6.5 -26.5q-2 -6 -10 -6q-7 0 -30.5 1t-38.5 1h-152v23q153 154 153 242q0 28 -14.5 42.5t-38.5 14.5q-33 0 -71 -28z M605 651q37 -14 37 -30l-3 -9l-409 -624q-36 15 -36 30q0 6 3 9zM684 123q0 75 -78 75q-29 0 -71 -12l21 179h181l-2 -32q0 -22 -17 -22h-131l-14 -82q33 14 67 14q55 0 88 -25.5t33 -74.5q0 -64 -55 -106.5t-119 -42.5q-50 0 -78 19q-9 6 -9 13q0 10 36 37q6 5 15 -2 q33 -30 62 -30t50 23.5t21 68.5z" glyph-name="twofifths" horiz-adv-x="802" unicode=""/>
<glyph d="M150 293q33 0 52 22t19 59q0 68 -70 68q-18 0 -48 -8v24q57 23 78 45t21 46q0 42 -49 42q-27 0 -69 -29q-8 -4 -9 -4q-11 0 -18 15q59 60 126 60q35 0 62 -16.5t27 -51.5q0 -55 -72 -85q45 -5 73 -26.5t28 -59.5q0 -56 -57 -98.5t-122 -42.5q-48 0 -75 18q-10 6 -10 13 q0 5 33 35q11 11 21 3q32 -29 59 -29zM585 651q37 -14 37 -30l-3 -9l-409 -624q-36 15 -36 30q0 6 3 9zM684 123q0 75 -78 75q-29 0 -71 -12l21 179h181l-2 -32q0 -22 -17 -22h-131l-14 -82q33 14 67 14q55 0 88 -25.5t33 -74.5q0 -64 -55 -106.5t-119 -42.5q-50 0 -78 19 q-9 6 -9 13q0 10 36 37q6 5 15 -2q33 -30 62 -30t50 23.5t21 68.5z" glyph-name="threefifths" horiz-adv-x="802" unicode=""/>
<glyph d="M190 394v144l-113 -144h113zM311 257q-50 2 -96 2q-32 0 -80 -2q-2 4 -2 11q0 9 7 9q30 5 40 10.5t10 16.5v41h-162q-3 8 -3 20q-1 7 6 19l181 233q7 7 11 7h41v-230h49v-49h-49v-42q0 -11 9 -16t33 -10q6 0 6 -9t-1 -11zM615 651q37 -14 37 -30l-3 -9l-409 -624 q-36 15 -36 30q0 6 3 9zM684 123q0 75 -78 75q-29 0 -71 -12l21 179h181l-2 -32q0 -22 -17 -22h-131l-14 -82q33 14 67 14q55 0 88 -25.5t33 -74.5q0 -64 -55 -106.5t-119 -42.5q-50 0 -78 19q-9 6 -9 13q0 10 36 37q6 5 15 -2q33 -30 62 -30t50 23.5t21 68.5z" glyph-name="fourfifths" horiz-adv-x="802" unicode=""/>
<glyph d="M68 257q-1 2 -1 11t6 9q29 5 38 10.5t9 16.5v237q0 21 -8 28.5t-36 7.5q-11 0 -11 13q0 8 2 14q21 2 71 12q8 3 21 7.5t21 7t13 2.5q10 0 10 -10q0 -7 -2 -29t-2 -35v-256q0 -12 7 -16.5t32 -9.5q6 0 6 -9t-1 -11q-50 2 -83 2q-44 0 -92 -2zM589 651q37 -14 37 -30l-3 -9 l-409 -624q-36 15 -36 30q0 6 3 9zM564 162q-7 -11 -7 -46q0 -93 56 -93q58 0 58 85q0 78 -56 78q-40 0 -51 -24zM564 203q32 21 76 21q48 0 79 -26t31 -77t-38 -89t-99 -38q-75 0 -107 39t-32 96q0 70 60.5 138.5t167.5 113.5q7 -11 7 -17q0 -5 -6 -9q-60 -40 -90 -71.5 t-49 -80.5z" glyph-name="onesixth" horiz-adv-x="802" unicode=""/>
<glyph d="M221 382q0 75 -78 75q-29 0 -71 -12l21 179h181l-2 -32q0 -22 -17 -22h-131l-14 -82q33 14 67 14q55 0 88 -25.5t33 -74.5q0 -64 -55 -106.5t-119 -42.5q-50 0 -78 19q-9 6 -9 13q0 10 36 37q6 5 15 -2q33 -30 62 -30t50 23.5t21 68.5zM605 651q37 -14 37 -30l-3 -9 l-409 -624q-36 15 -36 30q0 6 3 9zM584 162q-7 -11 -7 -46q0 -93 56 -93q58 0 58 85q0 78 -56 78q-40 0 -51 -24zM584 203q32 21 76 21q48 0 79 -26t31 -77t-38 -89t-99 -38q-75 0 -107 39t-32 96q0 70 60.5 138.5t167.5 113.5q7 -11 7 -17q0 -5 -6 -9q-60 -40 -90 -71.5 t-49 -80.5z" glyph-name="fivesixths" horiz-adv-x="802" unicode=""/>
<glyph d="M88 257q-1 2 -1 11t6 9q29 5 38 10.5t9 16.5v237q0 21 -8 28.5t-36 7.5q-11 0 -11 13q0 8 2 14q21 2 71 12q8 3 21 7.5t21 7t13 2.5q10 0 10 -10q0 -7 -2 -29t-2 -35v-256q0 -12 7 -16.5t32 -9.5q6 0 6 -9t-1 -11q-50 2 -83 2q-44 0 -92 -2zM583 651q37 -14 37 -30l-3 -9 l-409 -624q-36 15 -36 30q0 6 3 9zM716 311h-134q-24 0 -37 -32q-3 -7 -11 -7q-10 0 -18 3q16 51 20 86q2 7 11 7t31 -1.5t36 -1.5h153v-19q-61 -110 -80 -170t-26 -159q-1 -23 -64 -23q-23 0 -23 13q0 45 37.5 126.5t104.5 177.5z" glyph-name="oneseventh" horiz-adv-x="802" unicode=""/>
<glyph d="M69 553q-4 -4 -10 -4q-7 0 -19 15q59 69 128 69q50 0 80 -25t30 -65t-35.5 -93t-126.5 -134h112q23 0 39 32q2 8 10 8t18 -4q-4 -9 -8.5 -26t-9 -36.5t-6.5 -26.5q-2 -6 -10 -6q-7 0 -30.5 1t-38.5 1h-152v23q153 154 153 242q0 28 -14.5 42.5t-38.5 14.5q-33 0 -71 -28z M585 651q37 -14 37 -30l-3 -9l-409 -624q-36 15 -36 30q0 6 3 9zM716 311h-134q-24 0 -37 -32q-3 -7 -11 -7q-10 0 -18 3q16 51 20 86q2 7 11 7t31 -1.5t36 -1.5h153v-19q-61 -110 -80 -170t-26 -159q-1 -23 -64 -23q-23 0 -23 13q0 45 37.5 126.5t104.5 177.5z" glyph-name="twosevenths" horiz-adv-x="802" unicode=""/>
<glyph d="M150 293q33 0 52 22t19 59q0 68 -70 68q-18 0 -48 -8v24q57 23 78 45t21 46q0 42 -49 42q-27 0 -69 -29q-8 -4 -9 -4q-11 0 -18 15q59 60 126 60q35 0 62 -16.5t27 -51.5q0 -55 -72 -85q45 -5 73 -26.5t28 -59.5q0 -56 -57 -98.5t-122 -42.5q-48 0 -75 18q-10 6 -10 13 q0 5 33 35q11 11 21 3q32 -29 59 -29zM579 651q37 -14 37 -30l-3 -9l-409 -624q-36 15 -36 30q0 6 3 9zM716 311h-134q-24 0 -37 -32q-3 -7 -11 -7q-10 0 -18 3q16 51 20 86q2 7 11 7t31 -1.5t36 -1.5h153v-19q-61 -110 -80 -170t-26 -159q-1 -23 -64 -23q-23 0 -23 13 q0 45 37.5 126.5t104.5 177.5z" glyph-name="threesevenths" horiz-adv-x="802" unicode=""/>
<glyph d="M190 394v144l-113 -144h113zM311 257q-50 2 -96 2q-32 0 -80 -2q-2 4 -2 11q0 9 7 9q30 5 40 10.5t10 16.5v41h-162q-3 8 -3 20q-1 7 6 19l181 233q7 7 11 7h41v-230h49v-49h-49v-42q0 -11 9 -16t33 -10q6 0 6 -9t-1 -11zM610 651q37 -14 37 -30l-3 -9l-409 -624 q-36 15 -36 30q0 6 3 9zM732 311h-134q-24 0 -37 -32q-3 -7 -11 -7q-10 0 -18 3q16 51 20 86q2 7 11 7t31 -1.5t36 -1.5h153v-19q-61 -110 -80 -170t-26 -159q-1 -23 -64 -23q-23 0 -23 13q0 45 37.5 126.5t104.5 177.5z" glyph-name="foursevenths" horiz-adv-x="802" unicode=""/>
<glyph d="M221 382q0 75 -78 75q-29 0 -71 -12l21 179h181l-2 -32q0 -22 -17 -22h-131l-14 -82q33 14 67 14q55 0 88 -25.5t33 -74.5q0 -64 -55 -106.5t-119 -42.5q-50 0 -78 19q-9 6 -9 13q0 10 36 37q6 5 15 -2q33 -30 62 -30t50 23.5t21 68.5zM578 651q37 -14 37 -30l-3 -9 l-409 -624q-36 15 -36 30q0 6 3 9zM716 311h-134q-24 0 -37 -32q-3 -7 -11 -7q-10 0 -18 3q16 51 20 86q2 7 11 7t31 -1.5t36 -1.5h153v-19q-61 -110 -80 -170t-26 -159q-1 -23 -64 -23q-23 0 -23 13q0 45 37.5 126.5t104.5 177.5z" glyph-name="fivesevenths" horiz-adv-x="802" unicode=""/>
<glyph d="M121 421q-7 -11 -7 -46q0 -93 56 -93q58 0 58 85q0 78 -56 78q-40 0 -51 -24zM121 462q32 21 76 21q48 0 79 -26t31 -77t-38 -89t-99 -38q-75 0 -107 39t-32 96q0 70 60.5 138.5t167.5 113.5q7 -10 7 -17q0 -5 -6 -9q-60 -40 -90 -71.5t-49 -80.5zM585 651q37 -14 37 -30 l-3 -9l-409 -624q-36 15 -36 30q0 6 3 9zM716 311h-134q-24 0 -37 -32q-3 -7 -11 -7q-10 0 -18 3q16 51 20 86q2 7 11 7t31 -1.5t36 -1.5h153v-19q-61 -110 -80 -170t-26 -159q-1 -23 -64 -23q-23 0 -23 13q0 45 37.5 126.5t104.5 177.5z" glyph-name="sixsevenths" horiz-adv-x="802" unicode=""/>
<glyph d="M58 257q-1 2 -1 11t6 9q29 5 38 10.5t9 16.5v237q0 21 -8 28.5t-36 7.5q-11 0 -11 13q0 8 2 14q21 2 71 12q8 3 21 7.5t21 7t13 2.5q10 0 10 -10q0 -7 -2 -29t-2 -35v-256q0 -12 7 -16.5t32 -9.5q6 0 6 -9t-1 -11q-50 2 -83 2q-44 0 -92 -2zM560 651q37 -14 37 -30l-3 -9 l-409 -624q-36 15 -36 30q0 6 3 9zM650 205q7 12 7 46q0 46 -15.5 69.5t-40.5 23.5q-59 0 -59 -85q0 -77 58 -77q39 0 50 23zM650 165q-35 -22 -76 -22q-49 0 -79.5 26.5t-30.5 81.5q0 46 38.5 84.5t98.5 38.5q75 0 107 -39t32 -97q0 -75 -53 -145t-158 -106q-7 11 -7 16 q0 3 6 9q58 42 82.5 72t39.5 81z" glyph-name="oneninth" horiz-adv-x="802" unicode=""/>
<glyph d="M69 553q-4 -4 -10 -4q-7 0 -19 15q59 69 128 69q50 0 80 -25t30 -65t-35.5 -93t-126.5 -134h112q23 0 39 32q2 8 10 8t18 -4q-4 -9 -8.5 -26t-9 -36.5t-6.5 -26.5q-2 -6 -10 -6q-7 0 -30.5 1t-38.5 1h-152v23q153 154 153 242q0 28 -14.5 42.5t-38.5 14.5q-33 0 -71 -28z M598 651q37 -14 37 -30l-3 -9l-409 -624q-36 15 -36 30q0 6 3 9zM680 205q7 12 7 46q0 46 -15.5 69.5t-40.5 23.5q-59 0 -59 -85q0 -77 58 -77q39 0 50 23zM680 165q-35 -22 -76 -22q-49 0 -79.5 26.5t-30.5 81.5q0 46 38.5 84.5t98.5 38.5q75 0 107 -39t32 -97 q0 -75 -53 -145t-158 -106q-7 11 -7 16q0 3 6 9q58 42 82.5 72t39.5 81z" glyph-name="twoninths" horiz-adv-x="802" unicode=""/>
<glyph d="M181 394v144l-113 -144h113zM302 257q-50 2 -96 2q-32 0 -80 -2q-2 4 -2 11q0 9 7 9q30 5 40 10.5t10 16.5v41h-162q-3 8 -3 20q-1 7 6 19l181 233q7 7 11 7h41v-230h49v-49h-49v-42q0 -11 9 -16t33 -10q6 0 6 -9t-1 -11zM603 651q37 -14 37 -30l-3 -9l-409 -624 q-36 15 -36 30q0 6 3 9zM671 205q7 12 7 46q0 46 -15.5 69.5t-40.5 23.5q-59 0 -59 -85q0 -77 58 -77q39 0 50 23zM671 165q-35 -22 -76 -22q-49 0 -79.5 26.5t-30.5 81.5q0 46 38.5 84.5t98.5 38.5q75 0 107 -39t32 -97q0 -75 -53 -145t-158 -106q-7 11 -7 16q0 3 6 9 q58 42 82.5 72t39.5 81z" glyph-name="fourninths" horiz-adv-x="802" unicode=""/>
<glyph d="M217 382q0 75 -78 75q-29 0 -71 -12l21 179h181l-2 -32q0 -22 -17 -22h-131l-14 -82q33 14 67 14q55 0 88 -25.5t33 -74.5q0 -64 -55 -106.5t-119 -42.5q-50 0 -78 19q-9 6 -9 13q0 10 36 37q6 5 15 -2q33 -30 62 -30t50 23.5t21 68.5zM583 651q37 -14 37 -30l-3 -9 l-409 -624q-36 15 -36 30q0 6 3 9zM676 205q7 12 7 46q0 46 -15.5 69.5t-40.5 23.5q-59 0 -59 -85q0 -77 58 -77q39 0 50 23zM676 165q-35 -22 -76 -22q-49 0 -79.5 26.5t-30.5 81.5q0 46 38.5 84.5t98.5 38.5q75 0 107 -39t32 -97q0 -75 -53 -145t-158 -106q-7 11 -7 16 q0 3 6 9q58 42 82.5 72t39.5 81z" glyph-name="fiveninths" horiz-adv-x="802" unicode=""/>
<glyph d="M223 570h-134q-24 0 -37 -32q-4 -7 -11 -7q-11 0 -18 3q16 51 20 86q2 7 11 7t31 -1.5t36 -1.5h153v-19q-61 -110 -80 -170t-26 -159q-1 -23 -64 -23q-23 0 -23 13q0 45 37.5 126.5t104.5 177.5zM531 651q37 -14 37 -30l-3 -9l-409 -624q-36 15 -36 30q0 6 3 9zM650 205 q7 12 7 46q0 46 -15.5 69.5t-40.5 23.5q-59 0 -59 -85q0 -77 58 -77q39 0 50 23zM650 165q-35 -22 -76 -22q-49 0 -79.5 26.5t-30.5 81.5q0 46 38.5 84.5t98.5 38.5q75 0 107 -39t32 -97q0 -75 -53 -145t-158 -106q-7 11 -7 16q0 3 6 9q58 42 82.5 72t39.5 81z" glyph-name="sevenninths" horiz-adv-x="802" unicode=""/>
<glyph d="M191 484q28 28 28 64q0 25 -15 40.5t-36 15.5q-46 0 -46 -45q0 -42 69 -75zM218 467q44 -29 66.5 -55t22.5 -55q0 -49 -42.5 -76.5t-98.5 -27.5q-133 0 -133 92q0 66 89 102q-74 41 -74 95q0 37 29.5 64t90.5 27q60 0 89.5 -21.5t29.5 -56.5q0 -55 -69 -88zM148 430 q-19 -13 -29.5 -34t-10.5 -39q0 -74 65 -74q24 0 39.5 15.5t15.5 40.5q0 21 -18 42t-62 49zM595 651q37 -14 37 -30l-3 -9l-409 -624q-36 15 -36 30q0 6 3 9zM680 205q7 12 7 46q0 46 -15.5 69.5t-40.5 23.5q-59 0 -59 -85q0 -77 58 -77q39 0 50 23zM680 165 q-35 -22 -76 -22q-49 0 -79.5 26.5t-30.5 81.5q0 46 38.5 84.5t98.5 38.5q75 0 107 -39t32 -97q0 -75 -53 -145t-158 -106q-7 11 -7 16q0 3 6 9q58 42 82.5 72t39.5 81z" glyph-name="eightninths" horiz-adv-x="802" unicode=""/>
<glyph d="M403 677q11 4 21.5 10.5t16 9.5t10.5 3q14 0 14 -15q0 -11 -3 -40.5t-3 -50.5v-252q37 50 73.5 71t87.5 21q71 0 122.5 -58t51.5 -156q0 -102 -68.5 -167t-140.5 -65q-74 0 -136 32q-17 -1 -38.5 -16t-25.5 -15q-8 0 -15 4q1 13 3.5 47.5t2.5 58.5v515q-14 19 -44 33.5 t-57 14.5q-46 0 -66.5 -29.5t-20.5 -98.5v-112h118q0 -42 -20 -42h-98v-323q0 -25 61 -34q6 -1 6 -12l-2 -16q-69 5 -112 5l-102 -5q-2 12 -2 16q0 10 7 12q30 6 45 13.5t15 21.5v322h-60v18q0 10 9.5 13.5t20.5 4t20.5 7t9.5 21.5v37q0 108 51 163.5t133 55.5q70 0 115 -23 zM459 257v-177q53 -56 124 -56q56 0 86 47t30 124q0 80 -34.5 134.5t-91.5 54.5q-40 0 -77 -41t-37 -86z" glyph-name="fb" horiz-adv-x="828" unicode=""/>
<glyph d="M371 0v330q0 50 -45 50h-138v-323q0 -16 12.5 -22.5t51.5 -11.5q8 -2 8 -12l-2 -16q-58 5 -117 5q-57 0 -102 -5q-2 12 -2 16q0 11 7 12q60 9 60 35v322h-60v18q0 10 9.5 13.5t20.5 4t20.5 7.5t9.5 23v35q0 106 54.5 162.5t132.5 56.5q62 0 103 -28.5t41 -56.5 q0 -10 -22.5 -19t-35.5 -10q-17 -1 -24 15q-28 61 -76 61q-89 0 -89 -128v-112h165q21 0 50 4t43 4t14 -15q0 -6 -3 -33.5t-3 -51.5v-230q0 -50 -1.5 -79t-7.5 -61t-16.5 -52t-31.5 -45.5t-48.5 -48.5t-70.5 -54q-12 10 -12 21q0 5 6 11q57 56 78 98.5t21 109.5z" glyph-name="fj" horiz-adv-x="541" unicode=""/>
<glyph d="M403 677q11 4 21.5 10.5t16 9.5t10.5 3q14 0 14 -15q0 -11 -3 -43.5t-3 -53.5v-353l150 133q9 5 9 15q0 8 -24 12.5t-24 17.5q0 4 2 12l33 -1q33 -2 57 -2t54 1.5t31 1.5l1 -5q2 -4 2 -7q0 -16 -14 -16q-40 -3 -58 -18l-140 -126l162 -188q28 -35 75 -39q10 0 10 -12 q0 -4 -3 -19q-67 3 -140 3l-182 220h-1v-160q0 -24 55 -35q9 -2 9 -12q0 -6 -2 -16q-58 5 -103 5q-52 0 -107 -5q-2 10 -2 16q0 10 8 12q59 11 59 35v559q-13 19 -43 32t-58 13q-46 0 -66.5 -29.5t-20.5 -98.5v-112h118q0 -42 -20 -42h-98v-323q0 -25 61 -34q6 -1 6 -12 l-2 -16q-69 5 -112 5l-102 -5q-2 12 -2 16q0 10 7 12q30 6 45 13.5t15 21.5v322h-60v18q0 10 9.5 13.5t20.5 4t20.5 7t9.5 21.5v37q0 108 51 163.5t133 55.5q74 0 115 -23z" glyph-name="fk" horiz-adv-x="778" unicode=""/>
<glyph d="M403 677q11 4 21.5 10.5t16 9.5t10.5 3q14 0 14 -15q0 -11 -3 -43.5t-3 -53.5v-253l17 17q17 18 36.5 35t51.5 32t64 15q54 0 87.5 -32t33.5 -101v-244q0 -24 59 -34q8 -2 8 -12q0 -6 -2 -16q-57 5 -105 5t-105 -5q-2 10 -2 16q0 10 9 12q55 10 55 34v196q0 55 -16 85 t-59 30q-53 0 -92.5 -35t-39.5 -94v-182q0 -24 55 -34q9 -2 9 -12q0 -6 -2 -16q-58 5 -104 5q-51 0 -106 -5q-2 10 -2 16q0 10 8 12q59 10 59 35v559q-13 19 -43 32t-58 13q-46 0 -66.5 -29.5t-20.5 -98.5v-112h118q0 -42 -20 -42h-98v-323q0 -25 61 -34q6 -1 6 -12l-2 -16 q-69 5 -112 5l-102 -5q-2 12 -2 16q0 10 7 12q30 6 45 13.5t15 21.5v322h-60v18q0 10 9.5 13.5t20.5 4t20.5 7t9.5 21.5v37q0 108 51 163.5t133 55.5q74 0 115 -23z" glyph-name="fh" horiz-adv-x="842" unicode=""/>
<glyph d="M371 55l-37 88h-185l-36 -85q-4 -10 -4 -15q0 -15 44 -22q11 0 11 -13q0 -5 -2 -11q-42 3 -90 3q-44 0 -69 -3q-2 6 -2 11q0 14 10 14q44 8 53 27l188 424q6 13 16 13q5 0 13 -2l189 -437q8 -18 50 -24q11 -3 11 -14q0 -6 -2 -12q-49 3 -94 3q-65 0 -110 -3q0 1 -0.5 5 t-0.5 6q0 13 8 13q42 8 42 23q0 4 -3 11zM163 178h158l-78 191z" glyph-name="a.smcp" horiz-adv-x="532" unicode=""/>
<glyph d="M190 266h12q116 0 116 90q0 83 -116 83h-12v-173zM190 231v-172q0 -26 55 -26q118 0 118 93q0 51 -36 78t-96 27h-41zM312 255v-2q63 -6 104.5 -36.5t41.5 -80.5q0 -65 -50 -100.5t-136 -35.5h-129l-99 -3q-2 8 -2 11q0 13 9 13q29 5 40.5 11.5t11.5 20.5v367 q0 15 -10.5 20.5t-41.5 10.5q-9 3 -9 15l2 12q41 -4 98 -4h102q88 0 127.5 -32t39.5 -83q0 -39 -27 -65.5t-72 -38.5z" glyph-name="b.smcp" horiz-adv-x="490" unicode=""/>
<glyph d="M298 -12q-130 0 -193.5 69t-63.5 180q0 45 15 87.5t45 79.5t82 59.5t119 22.5q73 0 154 -21q2 -41 19 -109q-9 -3 -15 -3q-15 0 -18 10q-15 49 -44.5 67.5t-86.5 18.5q-84 0 -129.5 -53.5t-45.5 -144.5q0 -96 52.5 -162t128.5 -66q62 0 90.5 21t49.5 71q4 11 18 11 q9 0 17 -4q-23 -65 -36 -123q-80 -11 -158 -11z" glyph-name="c.smcp" horiz-adv-x="522" unicode=""/>
<glyph d="M457 223q0 112 -56.5 164t-167.5 52h-43v-378q0 -15 13 -20.5t46 -5.5q208 0 208 188zM552 237q0 -95 -68.5 -166t-196.5 -71h-146q-49 0 -97 -3q-2 6 -2 11q0 13 9 13q29 6 40.5 12t11.5 20v367q0 14 -11 20t-41 11q-9 3 -9 14q0 5 2 13q57 -4 96 -4h145 q126 0 196.5 -67.5t70.5 -169.5z" glyph-name="d.smcp" horiz-adv-x="592" unicode=""/>
<glyph d="M301 439h-109v-178h115q15 0 21 10.5t10 37.5q3 10 15 10q8 0 14 -2q-4 -28 -4 -76q0 -32 4 -72q-1 0 -7 -1t-7 -1q-12 0 -15 11q-3 26 -10 37t-21 11h-115v-166q0 -15 20 -20t70 -5h37q42 0 65 19t45 59q1 6 11 6q5 0 19 -7q-9 -23 -16.5 -54.5t-13 -46t-15.5 -14.5 q-6 0 -43 1.5t-52 1.5h-174q-55 0 -101 -3q-2 6 -2 13q0 11 8 11q31 6 43.5 12t12.5 20v367q0 14 -11 20t-45 11q-8 3 -8 13q0 6 2 14q59 -4 100 -4h157q28 0 61 2t34 2q11 0 15 -14.5t8 -44.5t14 -53q-10 -4 -16 -4q-11 0 -13 6q-19 40 -39.5 55.5t-63.5 15.5z" glyph-name="e.smcp" horiz-adv-x="488" unicode=""/>
<glyph d="M106 53v367q0 13 -11.5 19.5t-44.5 11.5q-8 2 -8 13q0 6 2 14q52 -4 100 -4h157q26 0 59.5 2t35.5 2q11 0 14.5 -14t8 -44.5t13.5 -53.5q-10 -5 -16 -5q-9 0 -12 7q-20 41 -40 56t-63 15h-109v-187h112q22 0 30 48q3 10 15 10q7 0 13 -2q-4 -42 -4 -76q0 -31 4 -71 q-2 0 -6.5 -1t-5.5 -1q-13 0 -16 10q-6 48 -30 48h-112v-165q0 -7 4.5 -12t16 -8t20.5 -5t28 -4q9 -1 9 -13q0 -7 -2 -13q-63 3 -123 3q-56 0 -101 -3q-2 6 -2 13q0 11 8 11q46 11 53 20q3 5 3 12z" glyph-name="f.smcp" horiz-adv-x="458" unicode=""/>
<glyph d="M452 -1q-75 -11 -144 -11q-135 0 -201 67t-66 182q0 96 69 172.5t192 76.5q66 0 166 -23q1 -39 18 -109q-9 -3 -16 -3q-13 0 -16 9q-15 49 -49.5 69t-95.5 20q-79 0 -126 -54.5t-47 -143.5q0 -99 52 -163.5t135 -64.5q38 0 68 8v106q0 19 -11.5 27.5t-41.5 11.5 q-11 1 -11 14q0 8 2 14q40 -4 104 -4t97 4q2 -8 2 -14q0 -13 -9 -13q-25 -3 -35 -10t-10 -22v-128q0 -14 -26 -18z" glyph-name="g.smcp" horiz-adv-x="557" unicode=""/>
<glyph d="M498 420v-367q0 -15 9 -21t40 -11q9 0 9 -11q0 -7 -2 -13q-45 3 -97 3q-51 0 -100 -3q0 2 -0.5 6.5t-0.5 6.5q0 11 8 11q31 5 40.5 11.5t9.5 20.5v173h-227v-173q0 -15 9 -21t40 -11q8 0 8 -11q0 -2 -0.5 -6.5t-0.5 -6.5q-45 3 -100 3q-47 0 -97 -3q-2 6 -2 13q0 11 8 11 q31 5 40.5 11.5t9.5 20.5v367q0 15 -9 21t-40 10q-8 2 -8 13q0 6 2 14q40 -4 96 -4t100 4q0 -2 0.5 -7.5t0.5 -6.5q0 -11 -8 -13q-31 -4 -40 -10t-9 -21v-157h227v157q0 14 -9.5 20.5t-39.5 10.5q-8 1 -8 13q0 1 0.5 6.5t0.5 7.5q40 -4 99 -4q53 0 97 4q1 -4 1 -14 q0 -11 -7 -13q-32 -4 -41 -10t-9 -21z" glyph-name="h.smcp" horiz-adv-x="601" unicode=""/>
<glyph d="M186 420v-367q0 -14 9.5 -20.5t40.5 -11.5q8 0 8 -12q0 -1 -0.5 -6t-0.5 -6q-49 3 -100 3t-99 -3q-2 6 -2 12q0 12 8 12q31 5 40.5 11.5t9.5 20.5v367q0 14 -9.5 20.5t-40.5 10.5q-8 1 -8 13q0 6 2 14q43 -4 99 -4t100 4q0 -2 0.5 -7.5t0.5 -6.5q0 -11 -8 -13 q-31 -4 -40.5 -10.5t-9.5 -20.5z" glyph-name="i.smcp" horiz-adv-x="287" unicode=""/>
</font>
</defs>
</svg>
